<svg width="50" height="33" viewBox="0 0 50 33" fill="none" xmlns="http://www.w3.org/2000/svg">
    <g opacity="0.8">
        <path d="M21.4432 5.9375C17.5795 5.9375 14.4512 9.07921 14.4512 12.9295C14.4512 16.7797 17.5929 19.9215 21.4432 19.9215C25.3068 19.9215 28.4351 16.7797 28.4351 12.9295C28.4351 9.07921 25.2934 5.9375 21.4432 5.9375ZM21.4432 18.0632C18.6223 18.0632 16.3228 15.7637 16.3228 12.9429C16.3228 10.122 18.6223 7.82253 21.4432 7.82253C24.264 7.82253 26.5635 10.122 26.5635 12.9429C26.5635 15.7637 24.264 18.0632 21.4432 18.0632Z" fill="white"/>
        <path d="M49.0642 6.95187H42.9144V0.975936C42.9144 0.454546 42.4599 0 41.9519 0H0.935829C0.414438 0 0 0.454546 0 0.975936V24.8931C0 25.4144 0.414438 25.8021 0.935829 25.8021H7.08556V31.7914C7.08556 32.3128 7.54011 32.754 8.04813 32.754H49.0642C49.5856 32.754 50 32.3128 50 31.7914V7.87433C50 7.35294 49.5856 6.95187 49.0642 6.95187ZM41.0428 1.87166V6.01604C38.9037 5.62834 37.2995 4.0107 36.9118 1.87166H41.0428ZM1.87166 1.87166H5.97594C5.58823 4.0107 3.94385 5.62834 1.87166 6.01604V1.87166ZM1.87166 23.9305V20.0134C3.89037 20.3877 5.50802 21.9251 5.93583 23.9305H1.87166ZM7.84759 23.9305C7.36631 20.8556 4.93316 18.5294 1.87166 18.115V7.90107C4.98663 7.48663 7.44652 5.08021 7.87433 1.87166H35.0134C35.4278 5.08021 37.8342 7.48663 41.0428 7.90107V18.115C37.9679 18.5294 35.5214 20.8556 35.0401 23.9305H7.84759ZM41.0428 20.0134V23.9305H36.9385C37.3797 21.9251 39.0374 20.3877 41.0428 20.0134ZM8.95722 30.8824V26.9251C10.9626 27.2995 12.6203 28.877 13.0615 30.8824H8.95722ZM48.1283 30.8824H44.0642C44.5053 28.877 46.1096 27.2995 48.1283 26.9251V30.8824ZM48.1283 25.0267C45.0668 25.4412 42.6337 27.8075 42.1524 30.8824H14.9599C14.6123 28.7433 13.2754 26.8717 11.4171 25.8021H41.9519C42.4733 25.8021 42.9144 25.4011 42.9144 24.8931V11.1497C43.984 13.1016 45.8556 14.5053 48.1283 14.8128V25.0267ZM48.1283 12.9144C46.0561 12.5267 44.4118 10.8289 44.0241 8.82353H48.1283V12.9144Z" fill="white"/>
    </g>
</svg>
