<svg width="66" height="32" viewBox="0 0 66 32" fill="none" xmlns="http://www.w3.org/2000/svg">
    <g opacity="0.8">
        <mask id="path-1-outside-1" maskUnits="userSpaceOnUse" x="0" y="0" width="66" height="32" fill="black">
            <rect fill="white" width="66" height="32"/>
            <path d="M64.9999 24.0343C64.9547 21.3339 63.0933 18.9902 60.473 18.3352C58.2518 17.7798 56.3111 16.8048 54.1574 16.0361C54.1574 16.0361 52.1215 15.2717 51.0133 14.8012L51.3734 13.7476L50.0039 13.2795L49.6823 14.2205C48.2621 13.5826 46.8992 12.9092 45.6148 12.2112L46.083 11.189L44.7672 10.5862L44.3483 11.5002C43.08 10.7651 41.7932 9.95046 40.5079 9.06938L41.0706 8.10986L39.8221 7.37784L39.319 8.23577C38.3825 7.56526 37.5438 6.93123 36.7739 6.31094C36.2238 5.86765 35.708 5.44853 35.2317 5.05748L35.8779 4.13415L34.6922 3.30444L34.114 4.13067C33.139 3.3124 32.4948 2.73915 32.198 2.4251C31.341 1.5184 30.1405 1 28.9005 1C28.8921 1 28.8837 1 28.8753 1C27.622 1.00709 26.4629 1.51826 25.6115 2.43957C24.6961 3.42992 22.4908 5.81989 20.2596 8.23881C18.8561 9.76029 18.6232 10.6016 16.5529 10.6078C16.5451 10.6078 16.5377 10.6078 16.5301 10.6078C14.4779 10.6078 12.5787 9.78374 11.1805 8.28599C10.7533 7.82837 10.2418 7.31648 9.66001 6.76436C8.79731 5.94566 7.62852 5.57762 6.45307 5.7552C5.27893 5.93249 4.27179 6.62803 3.68986 7.66368C2.35666 10.0366 1.53245 12.6174 1.23997 15.3345C1.23997 15.3345 1.16746 16.0976 1.14937 16.4463C1.03837 18.5916 0.989016 20.2565 1.00204 21.3948C1.01564 22.5555 1.05255 23.6872 1.11174 24.7585C1.12578 25.0138 1.14112 25.3381 1.15776 25.6904C1.20379 26.659 1.25589 27.7569 1.32043 28.3462C1.4792 29.7963 2.69835 31.1792 4.15645 31.1792H6.46986L45.0848 31.2473L62.1071 31.1026C63.66 31.1026 64.9392 29.8393 64.9588 28.2844L65 24.0535L64.9999 24.0343ZM4.95185 8.37253C5.31352 7.7288 5.93945 7.29636 6.66915 7.18623C7.40044 7.07624 8.1271 7.30476 8.66373 7.81404C9.22439 8.34619 9.7153 8.83724 10.1227 9.27359C11.7979 11.0679 14.0722 12.055 16.5298 12.055C16.5389 12.055 16.5482 12.055 16.5571 12.055C18.9986 12.0478 19.6678 11.0145 21.3232 9.22018C23.5542 6.8017 25.7591 4.41201 26.6743 3.42196C27.2506 2.7982 28.0352 2.45216 28.8835 2.44739C28.8896 2.44739 28.8956 2.44739 28.9015 2.44739C29.7568 2.44739 30.5534 2.79212 31.1465 3.4195C31.4945 3.78782 32.1956 4.4123 33.2811 5.32117L32.6323 6.24827L33.8181 7.07798L34.3998 6.24668C34.856 6.62065 35.3452 7.01821 35.8663 7.43805C36.6874 8.09944 37.5818 8.77429 38.5843 9.48951L38.0051 10.4774L39.2536 11.2094L39.7743 10.3214C41.102 11.2288 42.4322 12.0665 43.7434 12.8218L43.271 13.8528L44.5868 14.4556L45.011 13.5299C46.339 14.2486 47.7472 14.9405 49.2127 15.5953L48.842 16.6796L50.2115 17.1476L50.5444 16.1739C51.4783 16.569 52.3533 16.917 53.1907 17.2256V21.2368C51.4339 20.6143 49.6878 19.9089 47.9877 19.1324C47.5845 18.9484 47.1783 18.7577 46.7804 18.5659C45.155 17.7822 43.5432 16.9197 41.9898 16.0018C41.5177 15.7229 38.2578 17.1476 35.8423 18.279C34.1161 19.0876 32.3514 19.712 30.5227 19.173L19.1428 15.8202C16.7911 15.1272 15.9826 15.2857 13.8153 16.2665C12.2581 16.9712 10.226 17.6737 7.77281 18.356C5.85377 16.7853 3.75021 15.5618 2.73728 15.0077C3.05018 12.663 3.79406 10.433 4.95185 8.37253ZM53.1905 22.7697V23.9951H45.545H11.8355C11.5987 22.5646 10.6656 21.057 9.05507 19.4952C11.1848 18.8723 12.9836 18.2314 14.412 17.5851C16.2633 16.7473 16.7146 16.6133 18.7338 17.2082L30.1137 20.5612C30.8276 20.7715 31.7809 20.991 32.2769 20.875C37.1288 19.7393 38.5843 18.0404 41.6686 17.4871C43.1289 18.3355 44.6334 19.1376 46.1519 19.8694C46.5588 20.0655 46.9741 20.2605 47.3864 20.4488C49.2807 21.3142 51.2308 22.093 53.1905 22.7697ZM2.44957 21.3779C2.43669 20.2814 2.48459 18.6682 2.59155 16.5845C3.72517 17.2327 5.52771 18.3468 7.13385 19.7065C8.95144 21.2456 10.0476 22.7114 10.356 23.9951H2.52324C2.48503 23.1503 2.45999 22.2737 2.44957 21.3779ZM63.5117 28.2683C63.5023 29.0332 62.8721 29.6554 62.1073 29.6554L45.0887 29.8001L6.47391 29.7319H4.15659C3.43818 29.7319 2.83758 28.9034 2.75943 28.1886C2.69965 27.6437 2.64654 26.5225 2.6037 25.6218C2.60066 25.5607 2.59791 25.5016 2.59502 25.4423H11.1724H45.545H53.9142H63.5392L63.5117 28.2683ZM54.6378 23.9951V20.5729V17.7344C56.5257 18.3742 58.1718 19.2517 60.1219 19.7393C62.0871 20.2306 63.4872 21.9754 63.5494 23.9951H54.6378Z"/>
        </mask>
        <path d="M64.9999 24.0343C64.9547 21.3339 63.0933 18.9902 60.473 18.3352C58.2518 17.7798 56.3111 16.8048 54.1574 16.0361C54.1574 16.0361 52.1215 15.2717 51.0133 14.8012L51.3734 13.7476L50.0039 13.2795L49.6823 14.2205C48.2621 13.5826 46.8992 12.9092 45.6148 12.2112L46.083 11.189L44.7672 10.5862L44.3483 11.5002C43.08 10.7651 41.7932 9.95046 40.5079 9.06938L41.0706 8.10986L39.8221 7.37784L39.319 8.23577C38.3825 7.56526 37.5438 6.93123 36.7739 6.31094C36.2238 5.86765 35.708 5.44853 35.2317 5.05748L35.8779 4.13415L34.6922 3.30444L34.114 4.13067C33.139 3.3124 32.4948 2.73915 32.198 2.4251C31.341 1.5184 30.1405 1 28.9005 1C28.8921 1 28.8837 1 28.8753 1C27.622 1.00709 26.4629 1.51826 25.6115 2.43957C24.6961 3.42992 22.4908 5.81989 20.2596 8.23881C18.8561 9.76029 18.6232 10.6016 16.5529 10.6078C16.5451 10.6078 16.5377 10.6078 16.5301 10.6078C14.4779 10.6078 12.5787 9.78374 11.1805 8.28599C10.7533 7.82837 10.2418 7.31648 9.66001 6.76436C8.79731 5.94566 7.62852 5.57762 6.45307 5.7552C5.27893 5.93249 4.27179 6.62803 3.68986 7.66368C2.35666 10.0366 1.53245 12.6174 1.23997 15.3345C1.23997 15.3345 1.16746 16.0976 1.14937 16.4463C1.03837 18.5916 0.989016 20.2565 1.00204 21.3948C1.01564 22.5555 1.05255 23.6872 1.11174 24.7585C1.12578 25.0138 1.14112 25.3381 1.15776 25.6904C1.20379 26.659 1.25589 27.7569 1.32043 28.3462C1.4792 29.7963 2.69835 31.1792 4.15645 31.1792H6.46986L45.0848 31.2473L62.1071 31.1026C63.66 31.1026 64.9392 29.8393 64.9588 28.2844L65 24.0535L64.9999 24.0343ZM4.95185 8.37253C5.31352 7.7288 5.93945 7.29636 6.66915 7.18623C7.40044 7.07624 8.1271 7.30476 8.66373 7.81404C9.22439 8.34619 9.7153 8.83724 10.1227 9.27359C11.7979 11.0679 14.0722 12.055 16.5298 12.055C16.5389 12.055 16.5482 12.055 16.5571 12.055C18.9986 12.0478 19.6678 11.0145 21.3232 9.22018C23.5542 6.8017 25.7591 4.41201 26.6743 3.42196C27.2506 2.7982 28.0352 2.45216 28.8835 2.44739C28.8896 2.44739 28.8956 2.44739 28.9015 2.44739C29.7568 2.44739 30.5534 2.79212 31.1465 3.4195C31.4945 3.78782 32.1956 4.4123 33.2811 5.32117L32.6323 6.24827L33.8181 7.07798L34.3998 6.24668C34.856 6.62065 35.3452 7.01821 35.8663 7.43805C36.6874 8.09944 37.5818 8.77429 38.5843 9.48951L38.0051 10.4774L39.2536 11.2094L39.7743 10.3214C41.102 11.2288 42.4322 12.0665 43.7434 12.8218L43.271 13.8528L44.5868 14.4556L45.011 13.5299C46.339 14.2486 47.7472 14.9405 49.2127 15.5953L48.842 16.6796L50.2115 17.1476L50.5444 16.1739C51.4783 16.569 52.3533 16.917 53.1907 17.2256V21.2368C51.4339 20.6143 49.6878 19.9089 47.9877 19.1324C47.5845 18.9484 47.1783 18.7577 46.7804 18.5659C45.155 17.7822 43.5432 16.9197 41.9898 16.0018C41.5177 15.7229 38.2578 17.1476 35.8423 18.279C34.1161 19.0876 32.3514 19.712 30.5227 19.173L19.1428 15.8202C16.7911 15.1272 15.9826 15.2857 13.8153 16.2665C12.2581 16.9712 10.226 17.6737 7.77281 18.356C5.85377 16.7853 3.75021 15.5618 2.73728 15.0077C3.05018 12.663 3.79406 10.433 4.95185 8.37253ZM53.1905 22.7697V23.9951H45.545H11.8355C11.5987 22.5646 10.6656 21.057 9.05507 19.4952C11.1848 18.8723 12.9836 18.2314 14.412 17.5851C16.2633 16.7473 16.7146 16.6133 18.7338 17.2082L30.1137 20.5612C30.8276 20.7715 31.7809 20.991 32.2769 20.875C37.1288 19.7393 38.5843 18.0404 41.6686 17.4871C43.1289 18.3355 44.6334 19.1376 46.1519 19.8694C46.5588 20.0655 46.9741 20.2605 47.3864 20.4488C49.2807 21.3142 51.2308 22.093 53.1905 22.7697ZM2.44957 21.3779C2.43669 20.2814 2.48459 18.6682 2.59155 16.5845C3.72517 17.2327 5.52771 18.3468 7.13385 19.7065C8.95144 21.2456 10.0476 22.7114 10.356 23.9951H2.52324C2.48503 23.1503 2.45999 22.2737 2.44957 21.3779ZM63.5117 28.2683C63.5023 29.0332 62.8721 29.6554 62.1073 29.6554L45.0887 29.8001L6.47391 29.7319H4.15659C3.43818 29.7319 2.83758 28.9034 2.75943 28.1886C2.69965 27.6437 2.64654 26.5225 2.6037 25.6218C2.60066 25.5607 2.59791 25.5016 2.59502 25.4423H11.1724H45.545H53.9142H63.5392L63.5117 28.2683ZM54.6378 23.9951V20.5729V17.7344C56.5257 18.3742 58.1718 19.2517 60.1219 19.7393C62.0871 20.2306 63.4872 21.9754 63.5494 23.9951H54.6378Z" fill="white"/>
        <path d="M64.9999 24.0343C64.9547 21.3339 63.0933 18.9902 60.473 18.3352C58.2518 17.7798 56.3111 16.8048 54.1574 16.0361C54.1574 16.0361 52.1215 15.2717 51.0133 14.8012L51.3734 13.7476L50.0039 13.2795L49.6823 14.2205C48.2621 13.5826 46.8992 12.9092 45.6148 12.2112L46.083 11.189L44.7672 10.5862L44.3483 11.5002C43.08 10.7651 41.7932 9.95046 40.5079 9.06938L41.0706 8.10986L39.8221 7.37784L39.319 8.23577C38.3825 7.56526 37.5438 6.93123 36.7739 6.31094C36.2238 5.86765 35.708 5.44853 35.2317 5.05748L35.8779 4.13415L34.6922 3.30444L34.114 4.13067C33.139 3.3124 32.4948 2.73915 32.198 2.4251C31.341 1.5184 30.1405 1 28.9005 1C28.8921 1 28.8837 1 28.8753 1C27.622 1.00709 26.4629 1.51826 25.6115 2.43957C24.6961 3.42992 22.4908 5.81989 20.2596 8.23881C18.8561 9.76029 18.6232 10.6016 16.5529 10.6078C16.5451 10.6078 16.5377 10.6078 16.5301 10.6078C14.4779 10.6078 12.5787 9.78374 11.1805 8.28599C10.7533 7.82837 10.2418 7.31648 9.66001 6.76436C8.79731 5.94566 7.62852 5.57762 6.45307 5.7552C5.27893 5.93249 4.27179 6.62803 3.68986 7.66368C2.35666 10.0366 1.53245 12.6174 1.23997 15.3345C1.23997 15.3345 1.16746 16.0976 1.14937 16.4463C1.03837 18.5916 0.989016 20.2565 1.00204 21.3948C1.01564 22.5555 1.05255 23.6872 1.11174 24.7585C1.12578 25.0138 1.14112 25.3381 1.15776 25.6904C1.20379 26.659 1.25589 27.7569 1.32043 28.3462C1.4792 29.7963 2.69835 31.1792 4.15645 31.1792H6.46986L45.0848 31.2473L62.1071 31.1026C63.66 31.1026 64.9392 29.8393 64.9588 28.2844L65 24.0535L64.9999 24.0343ZM4.95185 8.37253C5.31352 7.7288 5.93945 7.29636 6.66915 7.18623C7.40044 7.07624 8.1271 7.30476 8.66373 7.81404C9.22439 8.34619 9.7153 8.83724 10.1227 9.27359C11.7979 11.0679 14.0722 12.055 16.5298 12.055C16.5389 12.055 16.5482 12.055 16.5571 12.055C18.9986 12.0478 19.6678 11.0145 21.3232 9.22018C23.5542 6.8017 25.7591 4.41201 26.6743 3.42196C27.2506 2.7982 28.0352 2.45216 28.8835 2.44739C28.8896 2.44739 28.8956 2.44739 28.9015 2.44739C29.7568 2.44739 30.5534 2.79212 31.1465 3.4195C31.4945 3.78782 32.1956 4.4123 33.2811 5.32117L32.6323 6.24827L33.8181 7.07798L34.3998 6.24668C34.856 6.62065 35.3452 7.01821 35.8663 7.43805C36.6874 8.09944 37.5818 8.77429 38.5843 9.48951L38.0051 10.4774L39.2536 11.2094L39.7743 10.3214C41.102 11.2288 42.4322 12.0665 43.7434 12.8218L43.271 13.8528L44.5868 14.4556L45.011 13.5299C46.339 14.2486 47.7472 14.9405 49.2127 15.5953L48.842 16.6796L50.2115 17.1476L50.5444 16.1739C51.4783 16.569 52.3533 16.917 53.1907 17.2256V21.2368C51.4339 20.6143 49.6878 19.9089 47.9877 19.1324C47.5845 18.9484 47.1783 18.7577 46.7804 18.5659C45.155 17.7822 43.5432 16.9197 41.9898 16.0018C41.5177 15.7229 38.2578 17.1476 35.8423 18.279C34.1161 19.0876 32.3514 19.712 30.5227 19.173L19.1428 15.8202C16.7911 15.1272 15.9826 15.2857 13.8153 16.2665C12.2581 16.9712 10.226 17.6737 7.77281 18.356C5.85377 16.7853 3.75021 15.5618 2.73728 15.0077C3.05018 12.663 3.79406 10.433 4.95185 8.37253ZM53.1905 22.7697V23.9951H45.545H11.8355C11.5987 22.5646 10.6656 21.057 9.05507 19.4952C11.1848 18.8723 12.9836 18.2314 14.412 17.5851C16.2633 16.7473 16.7146 16.6133 18.7338 17.2082L30.1137 20.5612C30.8276 20.7715 31.7809 20.991 32.2769 20.875C37.1288 19.7393 38.5843 18.0404 41.6686 17.4871C43.1289 18.3355 44.6334 19.1376 46.1519 19.8694C46.5588 20.0655 46.9741 20.2605 47.3864 20.4488C49.2807 21.3142 51.2308 22.093 53.1905 22.7697ZM2.44957 21.3779C2.43669 20.2814 2.48459 18.6682 2.59155 16.5845C3.72517 17.2327 5.52771 18.3468 7.13385 19.7065C8.95144 21.2456 10.0476 22.7114 10.356 23.9951H2.52324C2.48503 23.1503 2.45999 22.2737 2.44957 21.3779ZM63.5117 28.2683C63.5023 29.0332 62.8721 29.6554 62.1073 29.6554L45.0887 29.8001L6.47391 29.7319H4.15659C3.43818 29.7319 2.83758 28.9034 2.75943 28.1886C2.69965 27.6437 2.64654 26.5225 2.6037 25.6218C2.60066 25.5607 2.59791 25.5016 2.59502 25.4423H11.1724H45.545H53.9142H63.5392L63.5117 28.2683ZM54.6378 23.9951V20.5729V17.7344C56.5257 18.3742 58.1718 19.2517 60.1219 19.7393C62.0871 20.2306 63.4872 21.9754 63.5494 23.9951H54.6378Z" stroke="white" stroke-width="0.6" mask="url(#path-1-outside-1)"/>
    </g>
</svg>
