<svg width="102" height="48" viewBox="0 0 102 48" fill="none" xmlns="http://www.w3.org/2000/svg">
    <g clip-path="url(#clip0)">
        <path d="M62.6659 26.1286C61.3274 25.0649 61.231 24.6535 61.2197 24.3932C61.1651 24.3707 61.1571 24.3354 61.1233 24.2968C61.1314 24.2615 61.1217 24.2181 61.1233 24.2004C61.0912 24.067 61.0655 23.9417 60.9305 23.9112C60.8357 23.8164 60.6799 23.8324 60.4485 23.9112C60.0606 24.0812 59.7509 24.391 59.5808 24.7789H59.4844C59.5181 24.8126 59.4892 24.8688 59.4844 24.9717C59.4265 25.0054 59.396 25.0697 59.388 25.1645C59.3462 25.0922 59.3173 25.0568 59.29 25.0681C59.1116 24.7692 58.9622 24.6889 58.8079 24.6825C58.787 24.6391 58.7774 24.631 58.8079 24.5844C58.7121 24.5997 58.6145 24.5997 58.5187 24.5844C58.5315 24.5989 58.5122 24.5989 58.5187 24.5844C58.4785 24.6021 58.464 24.6069 58.4207 24.5844C58.35 24.6246 58.2519 24.668 58.1314 24.7773C58.117 24.758 58.0816 24.7853 58.035 24.7773C58.0511 24.811 58.0479 24.811 58.035 24.7773C58.0254 24.7773 58.0013 24.7515 57.937 24.6808C57.9724 24.7146 57.9691 24.7098 57.937 24.6808C57.9186 24.6395 57.8861 24.6059 57.8454 24.586C57.8213 24.5427 57.8036 24.5266 57.7474 24.4896C57.7586 24.4896 57.7313 24.4704 57.7474 24.4896C57.6253 24.398 57.5401 24.3531 57.4582 24.2968C57.3948 24.3122 57.3287 24.3122 57.2654 24.2968C57.2396 24.3097 57.2284 24.3113 57.1689 24.2968C57.5482 24.0429 57.8727 23.7585 58.133 23.4291C59.2205 22.3826 60.0812 21.1237 60.6617 19.7305C61.2422 18.3374 61.53 16.8398 61.5074 15.3307C61.5445 13.1047 60.9058 10.9197 59.6756 9.06411C59.8138 8.83433 60.1866 8.37478 60.6397 8.29283C60.744 8.25884 60.836 8.1951 60.9046 8.10945C60.9731 8.0238 61.0151 7.91998 61.0253 7.81078C61.1169 7.50709 60.9739 7.05557 60.8325 6.84508C60.8883 6.61279 60.8913 6.37095 60.8412 6.13735C60.7912 5.90376 60.6894 5.68437 60.5433 5.49534C60.7248 5.06954 60.9707 4.56981 59.9648 3.56715C57.2466 1.32273 53.8483 0.0653375 50.3239 0H49.8418C46.315 0.0526835 42.9126 1.31157 40.2009 3.56715C39.1613 4.56981 39.4039 5.07114 39.624 5.49534C39.1982 6.00471 39.2223 6.57513 39.3332 6.84508C39.1329 7.1262 39.0317 7.4659 39.0456 7.81078C39.142 8.06305 39.2753 8.20767 39.4312 8.29283C39.9406 8.37478 40.3117 8.8279 40.4917 9.06411C39.2326 10.9112 38.5606 13.0954 38.5635 15.3307C38.561 16.8369 38.8581 18.3285 39.4374 19.7188C40.0167 21.1091 40.8666 22.3703 41.9378 23.4291C42.2431 23.7585 42.5677 24.0429 42.9019 24.2968C42.8891 24.3113 42.8762 24.3097 42.9019 24.2968C42.7991 24.3097 42.7332 24.3145 42.7091 24.2968C42.5963 24.333 42.4956 24.3998 42.4183 24.4896C42.3829 24.4704 42.3572 24.4896 42.3219 24.4896C42.3122 24.525 42.293 24.5411 42.3219 24.586C42.2303 24.6005 42.1885 24.6503 42.1291 24.6841C42.1419 24.713 42.1387 24.7178 42.1291 24.6841C42.1114 24.7548 42.0873 24.7805 42.0327 24.7805C42.0632 24.8142 42.0616 24.8142 42.0327 24.7805C42.0294 24.7885 41.9957 24.7612 41.9346 24.7805C41.8607 24.6712 41.7627 24.6278 41.6454 24.5877C41.6486 24.6101 41.6342 24.6053 41.6454 24.5877C41.6004 24.6021 41.5811 24.6021 41.5474 24.5877C41.484 24.6029 41.4179 24.6029 41.3546 24.5877C41.3337 24.6343 41.324 24.6407 41.3546 24.6857C41.1489 24.6921 40.9995 24.7724 40.7761 25.0713C40.7954 25.0601 40.7665 25.0954 40.7761 25.1677C40.7345 25.1084 40.7015 25.0435 40.6781 24.9749C40.6425 24.9124 40.6103 24.8481 40.5817 24.7821C40.3728 24.435 40.0723 24.0799 39.714 23.9144C39.4296 23.8357 39.2737 23.8196 39.1355 23.9144C39.0456 23.9465 39.0199 24.0703 39.0391 24.2036C38.9877 24.2213 38.9781 24.2647 38.9427 24.3C38.954 24.337 38.9459 24.3739 38.9427 24.3964C38.8785 24.6567 38.7837 25.0681 37.4966 26.1318C37.3263 26.2957 37.1913 26.4387 37.2074 26.6139C37.2154 26.7392 37.3038 26.8517 37.4966 26.9995C37.7167 27.1055 38.1425 27.6535 38.6535 28.4456C38.7113 28.5613 38.7869 28.6545 38.8463 28.7349C38.8865 28.7686 38.9154 28.7911 38.9427 28.8329C38.9492 28.8216 38.9556 28.8265 38.9427 28.8329C38.9644 28.8418 38.9841 28.8549 39.0006 28.8714C39.0172 28.888 39.0302 28.9076 39.0391 28.9293C39.0681 28.918 39.0906 28.9357 39.1355 28.9293C39.2164 29.015 39.3159 29.081 39.4264 29.1221C39.4408 29.098 39.4778 29.1044 39.5228 29.1221C39.5228 29.106 39.5292 29.1012 39.5228 29.1221C39.5437 29.1012 39.5469 29.1028 39.5228 29.1221C39.5726 29.1012 39.5951 29.0948 39.6208 29.1221C39.7076 29.0723 39.7879 29.037 39.8136 28.9293C39.8425 28.9679 40.0675 28.7156 40.1993 28.5437C40.2362 28.6256 40.2925 28.6706 40.3921 28.7365C40.5513 28.889 40.753 28.9899 40.9705 29.0257C40.9593 29.0434 40.977 29.045 40.9705 29.0257C41.0075 29.0498 41.0252 29.0498 41.0669 29.0257C41.1618 29.0594 41.2774 29.0289 41.3562 28.9293C41.5297 28.8554 41.6229 28.7284 41.6454 28.6401C41.6808 28.6385 41.6872 28.6304 41.6454 28.6401C41.8929 28.391 41.9571 28.3508 42.1275 28.4472C44.5092 29.898 47.2443 30.6651 50.033 30.6647C52.8522 30.6656 55.6184 29.8991 58.035 28.4472C58.1523 28.3508 58.2166 28.391 58.4191 28.6401C58.4223 28.6304 58.4271 28.6385 58.4191 28.6401C58.4881 28.7284 58.5813 28.8554 58.7099 28.9293C58.8336 29.0289 58.9493 29.0611 59.0955 29.0257C59.0859 29.0498 59.102 29.0498 59.0955 29.0257C59.1341 29.045 59.1502 29.0434 59.1919 29.0257C59.3767 29 59.584 28.857 59.7704 28.7365C59.8186 28.6706 59.8748 28.6256 59.9632 28.5437L60.2557 28.9245C60.328 29.0353 60.4099 29.0707 60.5449 29.1173C60.5192 29.09 60.5401 29.0964 60.5449 29.1173C60.5658 29.098 60.5706 29.0964 60.5449 29.1173C60.5818 29.0964 60.5899 29.1012 60.6413 29.1173C60.6349 29.0996 60.6702 29.0932 60.7377 29.1173C60.8068 29.0611 60.9016 29.0129 61.0269 28.9245C61.0189 28.9309 61.0446 28.9132 61.0269 28.9245C61.0944 28.8747 61.1233 28.8522 61.1249 28.8281C61.1571 28.8216 61.1619 28.8168 61.1249 28.8281C61.1956 28.7879 61.2246 28.7654 61.2214 28.73C61.3258 28.6497 61.4013 28.5581 61.5106 28.4408C61.9685 27.6487 62.3959 27.1007 62.6675 26.9947C62.8089 26.8468 62.8973 26.7344 62.8603 26.609C62.9198 26.4355 62.7848 26.2909 62.6659 26.1286V26.1286Z" fill="white"/>
        <path d="M54.5677 21.5972C54.5886 21.5618 54.6304 21.6229 54.6641 21.4991C54.7493 21.4011 54.918 21.422 54.9534 21.4027C55.0723 21.5249 55.4547 21.9475 55.1462 21.8848C54.9871 21.9234 54.9598 21.9989 54.9534 22.0776C54.9871 22.1097 54.9325 22.1499 54.9534 22.2704C54.9325 22.3138 54.8361 22.4938 54.7606 22.4632C54.6433 22.4938 54.6433 22.1901 54.3749 22.1724C54.3412 22.1081 54.2994 22.039 54.5677 21.9796C54.6513 21.925 54.5886 21.6438 54.5677 21.5972ZM50.3242 10.5101C50.3467 10.4088 50.3869 10.3397 50.4222 10.3172C50.5395 10.3397 50.5733 10.3671 50.615 10.4153C50.7243 10.4779 50.8271 10.4297 50.9043 10.4153C50.9926 10.3751 51.171 10.3879 51.1935 10.3172C51.2947 10.2915 51.4265 10.0987 51.4843 10.2208C51.5711 10.2224 51.5277 10.3124 51.4843 10.3172C51.4329 10.3671 51.3847 10.3799 51.3863 10.4153C51.3558 10.4779 51.3429 10.5599 51.4843 10.6081C51.5486 10.5599 51.5631 10.6499 51.4843 10.7045C51.4393 10.7736 51.2883 10.8957 51.1935 10.8973C51.0264 10.8555 51.0135 10.9439 51.0007 10.9937C51.0375 11.0806 51.1066 11.1498 51.1935 11.1865C51.2819 11.1705 51.4875 11.1994 51.4843 11.2846C51.4731 11.4163 51.4184 11.4918 51.2899 11.4742C51.2529 11.4645 51.2401 11.3344 51.0971 11.3778C50.9782 11.3761 50.8898 11.3537 50.8079 11.1849C50.7098 11.0259 50.6552 11.1432 50.615 10.9921C50.5186 10.9375 50.3258 10.6547 50.3242 10.5101V10.5101Z" fill="black"/>
        <path d="M52.7329 13.1132C52.6091 13.1116 52.5674 13.2353 52.54 13.306C52.5545 13.3864 52.5963 13.5856 53.0221 13.5953C53.1989 13.5792 53.2664 13.5101 53.3114 13.4024C53.4319 13.3735 53.4946 13.3462 53.6006 13.306C53.7147 13.3446 53.8047 13.2417 53.6986 13.1132C53.5444 13.0216 53.4415 13.065 53.313 13.1132C53.2487 13.1196 52.8775 13.1325 52.7329 13.1132Z" fill="white"/>
        <path d="M56.206 26.6104C56.4968 26.3517 57.6633 25.8921 57.9413 26.6104C58.1533 27.4042 56.9901 27.8075 56.3024 27.7673C55.6999 27.7255 54.3952 27.0651 53.7943 27.6693C53.722 27.6966 53.6818 27.6404 53.6979 27.5729C53.791 27.5038 54.1333 27.2419 54.6619 27.2837C55.2596 27.3801 55.7946 27.5038 56.3972 27.4765C57.0029 27.4492 58.0071 27.311 57.8432 26.6088C57.6071 26.0207 56.4438 26.4963 56.3008 26.6088C56.2574 26.6618 56.2156 26.6136 56.206 26.6104V26.6104Z" fill="black"/>
        <path d="M54.7606 28.0565C54.8217 27.9923 54.8907 27.8155 54.7606 27.6709C54.616 27.5118 54.4168 27.5472 54.2787 27.5745C54.2321 27.6018 54.2385 27.6757 54.2787 27.6709C54.404 27.65 54.5903 27.6596 54.6642 27.7689C54.7071 27.8609 54.7394 27.9573 54.7606 28.0565C54.698 28.0887 54.7317 28.1369 54.7606 28.0565V28.0565Z" fill="black"/>
        <path d="M41.0712 25.3563C41.0969 25.1844 41.3154 24.7441 41.5533 24.8743C41.8377 24.937 41.8377 25.1025 41.6513 25.4511C41.5083 25.8159 41.166 26.6932 41.0728 26.9937C40.9186 27.2155 40.7129 27.3247 40.5908 27.4758C40.549 27.5995 40.4928 27.9016 40.88 28.0542C41.1805 28.2872 41.4279 28.5331 41.2656 28.7291C41.1242 28.8625 40.835 28.7243 40.5908 28.5363C40.4237 28.3129 39.8066 27.614 39.5303 27.4758C39.6299 27.3392 39.9577 26.9809 40.2051 26.8009C40.4221 26.5438 40.986 25.6375 41.0712 25.3563V25.3563ZM59.0997 25.3563C59.0242 25.1844 58.804 24.7441 58.5212 24.8743C58.2818 24.937 58.2818 25.1025 58.4232 25.4511C58.6096 25.8159 58.9535 26.6932 59.0981 26.9937C59.2009 27.2155 59.4066 27.3247 59.4837 27.4758C59.5721 27.5995 59.6267 27.9016 59.2909 28.0542C58.939 28.2872 58.6932 28.5331 58.8089 28.7291C58.9936 28.8625 59.2829 28.7243 59.4837 28.5363C59.6958 28.3129 60.3128 27.614 60.5442 27.4758C60.4912 27.3392 60.1618 26.9809 59.9658 26.8009C59.6958 26.5438 59.1334 25.6375 59.0997 25.3563V25.3563Z" fill="#121212"/>
        <path d="M42.8054 4.05125L42.709 4.14766C42.4551 3.80541 42.0903 3.61419 41.7432 3.85843C41.3624 4.15569 41.6179 4.75022 41.8413 5.11015C42.1176 5.42027 42.6142 5.83644 42.9982 5.49579C43.3453 5.29333 43.3598 4.92697 43.0946 4.53169H43.1926L43.6747 4.91733C43.5036 5.21698 43.2741 5.47925 42.9998 5.68861C42.5338 6.03408 41.8412 6.05336 41.3608 5.39938C40.935 4.83217 41.1519 4.17498 41.65 3.85682C41.9312 3.59652 42.2478 3.46154 42.5178 3.47119L42.8054 4.05125V4.05125Z" fill="black"/>
        <path d="M42.8053 4.05182L42.7089 4.14823C42.455 3.80598 42.0903 3.61477 41.7432 3.859C41.3624 4.15627 41.6179 4.75079 41.8412 5.11072C42.1176 5.42084 42.6141 5.83701 42.9981 5.49636C43.3452 5.2939 43.3597 4.92754 43.0946 4.53226H43.1926L43.6746 4.9179C43.5035 5.21755 43.274 5.47982 42.9997 5.68918C42.5338 6.03465 41.8412 6.05393 41.3608 5.39995C40.935 4.83274 41.1519 4.17555 41.65 3.8574C41.9312 3.59709 42.2478 3.46212 42.5177 3.47176L42.8053 4.05182V4.05182ZM45.0228 3.08612L44.7335 2.60407C44.6805 2.3743 44.5969 2.29717 44.4443 2.31484V2.21843C44.5809 2.20719 44.7191 2.15898 44.8283 2.12202C44.9697 2.0449 45.0983 1.97098 45.214 1.9292H45.3104C45.1545 2.04329 45.1722 2.17023 45.3104 2.41125L45.696 3.37535C45.8181 3.59709 45.9676 3.89596 46.1781 3.8574L45.312 4.24304C45.455 4.12734 45.3538 3.87507 45.2156 3.56817L45.0228 3.18253L44.2515 3.56817L44.3479 3.95381C44.5134 4.2591 44.6387 4.50173 44.8299 4.43585V4.53226L43.9622 4.9179V4.82149C44.1261 4.73633 44.0233 4.48567 43.8658 4.24304L43.4802 3.27894C43.3211 2.96079 43.2809 2.91098 43.0946 2.8933C43.2408 2.82099 43.3806 2.77279 43.4802 2.70048C43.6185 2.6579 43.7488 2.59275 43.8658 2.50766L43.9622 2.60407C43.8144 2.65388 43.8144 2.74065 43.9622 2.98971L44.1551 3.47176L45.0228 3.08612V3.08612ZM46.3709 2.02561C46.2841 1.81512 46.2214 1.70264 46.0817 1.73639V1.63998C46.3002 1.59498 46.5476 1.55481 46.7565 1.54196L47.335 1.34914C47.7961 1.28808 48.0789 1.43752 48.1047 1.73478C48.2316 2.15255 47.8042 2.34055 47.5278 2.40965C47.8765 2.39518 48.0388 2.45142 48.2975 2.79528C48.5064 3.20342 48.5803 3.25805 48.7795 3.27733C48.6594 3.33539 48.5287 3.3682 48.3955 3.37374C48.2766 3.41391 48.1496 3.45408 48.0098 3.47015L47.7206 2.9881C47.621 2.76315 47.4282 2.46267 47.1422 2.50606L46.9493 2.60247L47.0457 2.9881C47.1534 3.30465 47.2225 3.56817 47.4314 3.56495C47.2799 3.63279 47.1153 3.66627 46.9493 3.66297C46.8015 3.72885 46.6344 3.77706 46.4673 3.85579V3.76099C46.6714 3.68868 46.6264 3.42034 46.5637 3.08612L46.3709 2.02561V2.02561ZM48.9739 1.54357C48.9386 1.27523 48.8775 1.24791 48.7811 1.25434V1.15793C48.9161 1.15793 49.0639 1.16275 49.1668 1.15793C49.3371 1.14507 49.4833 1.12418 49.6488 1.15793C49.5122 1.20935 49.4801 1.29451 49.456 1.44876L49.5524 2.70048C49.5797 2.95918 49.6086 3.23073 49.8416 3.27894L48.7811 3.37535V3.27894C49.0463 3.26287 49.0414 2.99132 49.072 2.70048L48.9739 1.54357V1.54357ZM51.7714 1.8328L52.0607 1.25434L53.9889 1.63998V2.21843H53.8925C53.8539 2.05293 53.6418 1.693 53.4104 1.64158C53.306 1.6223 53.2513 1.70746 53.2176 1.8344L53.0248 2.98971C52.9155 3.29179 52.8705 3.56013 53.1212 3.66458C52.9091 3.65172 52.7404 3.60352 52.5427 3.56656C52.4222 3.53442 52.2487 3.51193 52.0607 3.47015V3.37535C52.3194 3.44444 52.3885 3.17932 52.4463 2.8933L52.7355 1.73639C52.7243 1.59498 52.7066 1.49536 52.5427 1.44716C52.3708 1.42145 52.0317 1.66729 51.8678 1.8328H51.7714V1.8328ZM54.2781 2.12202C54.3954 1.9051 54.3488 1.8585 54.2781 1.8328V1.73639C54.4179 1.7878 54.5529 1.84886 54.6637 1.9292C54.7978 1.93235 54.9296 1.96528 55.0494 2.02561C54.9497 2.06418 54.8887 2.12845 54.8566 2.31645L54.4709 3.37696C54.3488 3.70957 54.2717 3.97148 54.4709 4.05182V4.14823L53.5068 3.76259C53.7382 3.7883 53.8378 3.53442 53.8925 3.28055L54.2781 2.12202V2.12202ZM55.6278 2.70048C55.7371 2.48999 55.7596 2.36465 55.6278 2.31645V2.21843C55.8207 2.29556 55.9444 2.3759 56.1099 2.41125C56.7044 2.76636 56.992 2.89973 57.2668 2.98971L57.074 3.66458V3.56817C56.984 3.22913 56.7912 2.93347 56.4971 2.7985L56.3027 2.70048L55.8207 3.47176H56.0135C56.2561 3.62601 56.5309 3.69993 56.7848 3.47176L56.3991 4.24304C56.4361 3.9763 56.2513 3.75456 56.0135 3.56817H55.8207L55.6278 3.95381C55.4254 4.27196 55.4286 4.41818 55.7242 4.53226C56.0456 4.73472 56.5228 4.59814 56.8812 4.43425L56.3027 5.01431C55.9669 4.85202 55.5989 4.64635 55.0494 4.33945C54.8854 4.28366 54.7245 4.21929 54.5673 4.14663L54.6637 4.05022C54.8501 4.18519 54.9867 3.94899 55.1458 3.66458L55.6278 2.70048V2.70048Z" fill="black"/>
        <path d="M56.9782 3.95382C57.0457 3.98756 57.2578 3.9731 57.4603 3.85741C57.5856 3.71922 57.4908 3.69833 57.4603 3.66459C57.4175 3.64057 57.3818 3.60558 57.357 3.56322C57.3322 3.52086 57.3191 3.47265 57.3191 3.42356C57.3191 3.37448 57.3322 3.32627 57.357 3.28391C57.3818 3.24155 57.4175 3.20656 57.4603 3.18254C57.6756 3.10702 57.9022 3.25163 57.8459 3.47177C57.764 3.83813 57.4731 3.98274 57.2675 4.05023C57.2321 4.04219 57.02 4.07433 56.9782 4.05023V3.95382V3.95382ZM47.5301 28.8276C47.4401 29.0606 47.4545 29.2277 47.6265 29.3096C47.4995 29.3176 47.3437 29.271 47.1444 29.2116C47.0101 29.2105 46.8779 29.1774 46.7588 29.1152C46.9532 29.1216 47.032 28.9738 47.048 28.7295L47.3372 27.4762C47.3726 27.322 47.318 27.2079 47.1444 27.187V27.0906C47.4063 27.0986 47.6297 27.1018 47.8193 27.0906L47.5301 28.8276V28.8276ZM49.9403 27.3814C49.9114 27.6658 49.5386 28.0354 49.3619 28.2491C49.1851 28.5062 49.1273 28.7167 49.0726 29.2132C49.0807 29.2855 49.0807 29.3932 49.0726 29.504L48.4942 29.406C48.5504 28.9095 48.8541 28.4837 49.169 28.1543C49.3367 28.0719 49.4723 27.9363 49.5547 27.7687L48.8798 27.6706C48.5729 27.6883 48.4701 27.7253 48.3013 27.9615L48.4942 27.2866L49.9403 27.3814V27.3814ZM51.192 27.9599C51.1197 27.698 50.9414 27.3766 50.71 27.3814C50.3372 27.4023 50.2585 28.0049 50.3243 28.3455C50.4015 28.1511 50.5268 28.0691 50.71 28.0563C50.8989 28.0548 51.0818 28.1227 51.2239 28.2471C51.3661 28.3715 51.4577 28.5437 51.4813 28.7311C51.4878 28.9469 51.4116 29.157 51.2682 29.3184C51.1247 29.4797 50.925 29.5801 50.71 29.5988C50.2681 29.594 49.868 29.1634 49.8423 28.4419C49.8102 27.8072 50.1203 27.2962 50.71 27.285C50.8867 27.2641 51.1245 27.3364 51.2884 27.3814L51.1904 28.0563V27.9599H51.192ZM52.9274 27.6706C52.8181 27.4393 52.5964 27.1468 52.3506 27.1886C52.0019 27.2545 52.0083 27.8619 52.0597 28.2491C52.169 27.9888 52.2815 27.8876 52.4454 27.8635C52.637 27.8265 52.8355 27.8664 52.9979 27.9747C53.1603 28.0829 53.2735 28.2508 53.313 28.4419C53.3854 28.9802 53.019 29.2919 52.6382 29.3096C52.2349 29.4349 51.7785 29.0638 51.6741 28.3455C51.5359 27.7301 51.7721 27.179 52.3489 27.0922C52.5273 27.0424 52.7715 27.0809 52.9258 27.0922V27.7671V27.6706H52.9274ZM58.9064 5.11074V5.01433C59.0575 4.76366 59.0735 4.41177 58.8084 4.24305C58.6975 4.11129 58.4758 4.10325 58.3264 4.33946C58.1866 4.46479 58.1978 4.56923 58.4228 4.91792C58.7249 5.24732 58.8711 5.49959 58.6156 5.88202C58.2492 6.28212 57.7206 6.15518 57.4587 5.88202C57.1915 5.73334 56.9863 5.49395 56.8802 5.20715L57.3639 4.82151H57.4603C57.2273 5.18465 57.2192 5.61528 57.4603 5.78561C57.637 5.9479 57.8925 6.01538 58.1351 5.78561C58.2669 5.55262 58.2139 5.42728 57.9423 5.01433C57.6981 4.77652 57.5679 4.52746 57.8459 4.14664C58.1882 3.74654 58.6654 3.94739 58.9064 4.14664C59.1169 4.30732 59.2519 4.50496 59.3885 4.7251L58.9064 5.11074V5.11074ZM51.5793 1.92921V1.8328C51.5648 1.53232 51.3816 1.23185 51.0972 1.25434C50.9012 1.1965 50.7132 1.31058 50.7116 1.54357C50.6778 1.77496 50.7453 1.85369 51.1936 2.02562C51.5616 2.12042 51.8267 2.24576 51.7721 2.70049C51.7512 3.2436 51.2435 3.43481 50.9044 3.37536C50.5883 3.39724 50.2764 3.29328 50.0367 3.08613L50.2295 2.50767C50.2874 2.90938 50.5236 3.27092 50.808 3.27895C51.0538 3.31109 51.3045 3.22432 51.29 2.89331C51.3543 2.62979 51.2402 2.55748 50.808 2.41126C50.4465 2.30682 50.2006 2.17506 50.2295 1.73639C50.2745 1.18043 50.7823 1.0792 51.0972 1.06152C51.3575 1.12098 51.5809 1.20935 51.7721 1.25434L51.5793 1.92921V1.92921Z" fill="black"/>
        <path d="M46.9528 2.41086H47.1456C47.385 2.36426 47.6469 2.21322 47.5312 1.92881C47.5023 1.53996 47.205 1.5271 46.9528 1.54317L46.76 1.64119L46.9528 2.41086ZM50.7128 29.502C50.9425 29.4522 50.9859 29.1003 51.002 28.8271C50.9618 28.5154 50.8895 28.1667 50.6164 28.1523C50.385 28.1876 50.3416 28.5395 50.3255 28.8271C50.3657 29.126 50.4396 29.4731 50.7128 29.502ZM52.641 29.2128C52.882 29.2015 52.8788 28.8464 52.8338 28.5379C52.7743 28.2712 52.6554 27.937 52.4481 27.9611C52.1589 28.0269 52.1637 28.3821 52.2553 28.6359C52.2666 28.9573 52.3887 29.2915 52.641 29.2128ZM40.3005 25.7436C40.2507 25.7726 40.2089 25.8529 40.2025 25.9365C39.947 26.3607 39.624 26.9873 39.2384 27.2862C39.0993 27.4171 38.9992 27.5839 38.9492 27.7682C38.9797 27.9225 39.0247 28.0559 39.142 28.1539C39.1657 28.194 39.1995 28.2272 39.24 28.2503C39.4714 28.4447 39.6481 28.6038 39.5292 28.7323C39.5533 28.7372 39.5115 28.7934 39.4328 28.8304C39.3284 28.7854 39.2625 28.7613 39.24 28.7323C39.0796 28.6402 38.9465 28.5071 38.8544 28.3467C38.4687 27.7425 37.9497 26.9825 37.601 26.8041C37.5346 26.7421 37.4703 26.6778 37.4082 26.6113C37.4243 26.5133 37.5319 26.4105 37.601 26.3221C38.9877 25.1861 39.0954 24.7313 39.1436 24.4903C39.1677 24.4244 39.1757 24.3939 39.1436 24.3923C39.1998 24.3168 39.2111 24.267 39.2416 24.1995C39.2352 24.1513 39.2496 24.0854 39.2416 24.1031C39.2978 24.0597 39.3734 24.042 39.6272 24.1031C39.9534 24.2638 40.2234 24.5915 40.3969 24.8743C40.4647 25.1666 40.4307 25.4733 40.3005 25.7436ZM60.8342 7.80981C60.7956 7.93514 60.7265 8.01388 60.6414 8.00263C60.1947 8.15436 59.818 8.46255 59.5809 8.87032C59.4861 8.74981 59.4138 8.66143 59.388 8.57948C59.3093 8.51842 59.2707 8.467 59.1952 8.38666C59.1727 8.33685 59.1165 8.2549 59.0988 8.19384C59.2177 7.92389 59.4764 7.63788 59.8701 7.42256C60.2557 7.27473 60.4759 7.08995 60.545 6.94051C60.7362 7.07067 60.8953 7.49648 60.8342 7.80981V7.80981ZM60.5466 6.46168C60.5498 6.78947 59.7367 7.03853 59.5825 7.13655C59.4266 7.23778 59.0153 7.68126 58.8112 7.90622C58.7533 7.81302 58.6778 7.73429 58.6184 7.61699C58.5878 7.63466 58.575 7.6186 58.522 7.61699C58.5139 7.55272 58.4705 7.5013 58.4239 7.42417C58.6184 6.92284 59.4346 6.37973 59.6773 6.26725C59.9954 6.12103 60.1754 5.98606 60.2557 5.7852C60.4116 5.8543 60.5594 6.04712 60.5466 6.46168V6.46168Z" fill="#121212"/>
        <path d="M40.3002 3.76052C42.9882 1.52991 46.351 0.272889 49.8432 0.193359C49.8399 0.220675 50.3252 0.193359 50.3252 0.193359C53.7895 0.269078 57.1235 1.52785 59.7734 3.76052C60.3085 4.24418 60.4708 4.5784 60.4483 4.82103C60.4129 5.10705 60.2169 5.34164 60.0626 5.39949C59.7158 5.58571 59.3922 5.81224 59.0985 6.07436C58.9668 6.17398 58.3996 6.84564 58.1344 7.13487C57.6055 6.6246 57.0238 6.17213 56.399 5.78513C55.3795 5.0674 54.236 4.54442 53.0263 4.24257C52.9893 4.22008 52.9781 4.21526 52.9283 4.24257C52.8119 4.17344 52.6778 4.13992 52.5426 4.14616C52.4944 4.10278 52.451 4.09153 52.4462 4.04975C52.2904 4.05779 52.1747 4.0369 52.0606 4.04975C51.9851 4.00476 51.9128 3.9903 51.8678 3.95174C51.744 3.96459 51.6508 3.95174 51.5785 3.95174C51.4612 3.92763 51.3648 3.91639 51.2893 3.95174C51.1881 3.8971 51.1061 3.89068 51.0001 3.85533C50.9042 3.86982 50.8067 3.86982 50.7108 3.85533C50.6209 3.85533 50.5405 3.85211 50.4216 3.85533C50.3578 3.84454 50.2926 3.84454 50.2288 3.85533C50.2384 3.84086 50.179 3.84086 50.1324 3.85533C50.0922 3.84086 50.0745 3.83926 50.036 3.85533C50.0424 3.83926 50.0263 3.84086 50.036 3.85533C49.946 3.84086 49.8946 3.84086 49.9396 3.85533C49.8429 3.84485 49.7454 3.84485 49.6487 3.85533C49.5796 3.85211 49.4864 3.85533 49.3595 3.85533C49.296 3.86979 49.2301 3.86979 49.1667 3.85533C49.0253 3.88907 48.9192 3.8971 48.781 3.95174C48.7537 3.91639 48.6927 3.92442 48.5882 3.95174C48.4998 3.94852 48.3697 3.96459 48.2026 3.95174C48.2202 3.98869 48.201 3.99191 48.2026 3.95174C46.2373 4.31577 44.3867 5.14191 42.8036 6.36198C42.8245 6.41179 42.8197 6.41501 42.8036 6.46C42.6847 6.52588 42.5578 6.63514 42.418 6.74923C42.4212 6.75726 42.4067 6.76851 42.418 6.74923C42.2717 6.88902 42.1528 7.0015 42.0339 7.13487C42.0243 7.12844 42.0114 7.13808 42.0339 7.13487C41.7318 6.84564 41.1646 6.17398 40.9734 6.07436C40.7208 5.80592 40.4281 5.57826 40.1057 5.39949C39.9129 5.34325 39.7201 5.10544 39.6237 4.82103C39.6638 4.5784 39.8261 4.24418 40.3002 3.76052V3.76052ZM39.8181 5.78513C39.9579 5.98598 40.1395 6.12096 40.3966 6.26718C40.6986 6.37805 41.5165 6.92276 41.7463 7.4241C41.5935 7.56379 41.4634 7.72642 41.3607 7.90615C41.3141 7.8949 41.3125 7.8965 41.2643 7.90615C41.0633 7.62952 40.8374 7.37189 40.5894 7.13647C40.3998 7.03846 39.5851 6.7894 39.6253 6.4616C39.5755 6.04704 39.7233 5.85422 39.8181 5.78513ZM40.5894 8.87185C40.3821 8.56495 39.9997 8.16163 39.5289 8.00416C39.41 8.01541 39.3393 7.93668 39.336 7.81134C39.2396 7.49801 39.4003 7.0722 39.5289 6.94365C39.659 7.09309 39.8792 7.27787 40.3002 7.4257C40.6569 7.64102 40.9172 7.92703 41.0698 8.19698C41.0698 8.18895 41.0634 8.19859 41.0698 8.19698C40.9166 8.37215 40.7869 8.56662 40.6842 8.77544C40.6231 8.79151 40.6022 8.81561 40.5894 8.87185V8.87185Z" fill="#121212"/>
        <path d="M42.1321 23.3337C39.9956 21.2161 38.7827 18.3398 38.7578 15.3317C38.7871 13.1453 39.4211 11.0097 40.5896 9.16148L40.686 9.06507C40.7969 8.91403 40.927 8.72924 41.0716 8.58302C41.0765 8.5316 41.0925 8.51232 41.0716 8.48661C41.2195 8.34682 41.3335 8.20381 41.4573 8.10097C41.4926 8.01581 41.536 7.9676 41.5537 7.90815C41.6742 7.80853 41.7754 7.69926 41.8445 7.61892C41.9265 7.54019 41.9747 7.48877 42.0373 7.4261C42.1434 7.31523 42.2671 7.19472 42.4214 7.04046C42.4198 7.05492 42.4455 7.02761 42.5194 7.04046C42.8069 6.71571 43.1303 6.42462 43.4835 6.17277C43.5172 6.15992 43.5188 6.15831 43.4835 6.17277C44.9749 5.11808 46.6912 4.42493 48.4968 4.14817C48.5241 4.17066 48.5385 4.16745 48.5932 4.14817C48.7442 4.14013 48.9338 4.11924 49.1716 4.14817C49.1845 4.09996 49.2439 4.09514 49.2697 4.05176C49.4293 4.07762 49.5921 4.07762 49.7517 4.05176C49.8513 4.06783 49.9317 4.06461 50.0409 4.05176C50.0458 4.06461 50.0795 4.06461 50.1373 4.05176C50.2048 4.06461 50.298 4.06943 50.4266 4.05176C50.5537 4.0785 50.6851 4.0785 50.8122 4.05176C50.8813 4.09514 50.9649 4.09996 51.005 4.14817C51.1882 4.11924 51.328 4.13531 51.4871 4.14817C51.5502 4.16523 51.6167 4.16523 51.6799 4.14817C51.8807 4.20762 52.088 4.24297 52.2567 4.24458C52.2985 4.28475 52.3049 4.28636 52.3548 4.24458C52.5154 4.32813 52.7147 4.37634 52.9316 4.4374C52.9621 4.44061 53.0103 4.45507 53.0296 4.4374C53.2176 4.51131 53.3735 4.55791 53.5117 4.63022C53.584 4.6254 53.6386 4.64307 53.7045 4.63022C53.8443 4.71377 53.9937 4.7684 54.1865 4.82304C54.1946 4.84553 54.246 4.86481 54.2829 4.91945C54.4629 4.95158 54.6252 5.02228 54.765 5.11227C54.855 5.12994 54.9241 5.16208 54.9578 5.21028C55.0982 5.24747 55.2295 5.3131 55.3435 5.4031C55.5122 5.46416 55.6311 5.53165 55.7291 5.59592C55.7934 5.62806 55.8367 5.65377 55.9219 5.69233C56.0247 5.76625 56.1661 5.85623 56.3075 5.98156C56.3075 5.95103 56.3108 5.95264 56.3075 5.98156C56.9246 6.36399 57.4982 6.83479 58.0429 7.3313C60.1505 9.46036 61.3291 12.3375 61.3208 15.3333C61.3233 17.1504 60.8863 18.9412 60.0469 20.5528C59.2075 22.1644 57.9907 23.5491 56.5004 24.5887C56.397 24.6427 56.2996 24.7074 56.2095 24.7815C56.0039 24.8988 55.8303 25.0064 55.6327 25.0707C55.5541 25.1591 55.4539 25.2256 55.3418 25.2635C55.2231 25.3458 55.0933 25.4107 54.9562 25.4563C54.835 25.5344 54.7057 25.5991 54.5706 25.6492C54.4452 25.7086 54.2781 25.7777 54.0885 25.842C53.9969 25.8885 53.8989 25.921 53.7977 25.9384C53.6482 26.0091 53.5374 26.0493 53.4121 26.1312C53.2208 26.1489 53.0152 26.2067 52.8336 26.2292C52.7131 26.2823 52.6151 26.3048 52.5444 26.3256C52.3387 26.3658 52.1571 26.4028 51.9659 26.4237C51.9357 26.4376 51.9028 26.4449 51.8695 26.4449C51.8362 26.4449 51.8033 26.4376 51.7731 26.4237C51.525 26.507 51.2628 26.5397 51.0018 26.5201C50.9809 26.5618 50.9134 26.5667 50.809 26.6165C50.5523 26.5955 50.2944 26.5955 50.0377 26.6165C49.7816 26.5956 49.5242 26.5956 49.268 26.6165C49.2086 26.5667 49.1524 26.5635 49.0752 26.5201C48.8144 26.5358 48.5529 26.5031 48.304 26.4237C48.2895 26.4622 48.2525 26.4558 48.2075 26.4237C47.9762 26.4092 47.74 26.3626 47.5327 26.3256C47.4684 26.2983 47.4331 26.2919 47.4347 26.3256C47.1374 26.2212 46.8835 26.1505 46.665 26.0364C46.5975 26.0573 46.5622 26.0444 46.567 26.0364C46.0261 25.8783 45.5077 25.6515 45.0244 25.3615C44.9794 25.3921 44.9618 25.3824 44.928 25.3615C44.4266 25.106 43.9434 24.8161 43.4819 24.4939C43.0061 24.1382 42.5552 23.7506 42.1321 23.3337V23.3337Z" fill="#121212"/>
        <path d="M57.9411 28.2495C57.9507 28.2206 57.9218 28.2334 57.8447 28.2495C55.5373 29.6844 52.8281 30.4396 50.0355 30.4669C47.2802 30.4445 44.5821 29.6784 42.2263 28.2495C42.1925 28.2334 42.1652 28.2206 42.1298 28.2495C41.9499 28.0936 41.283 27.6485 41.0693 27.4782C41.3537 27.1633 42.0527 26.4016 42.4191 25.068C42.5068 24.9043 42.641 24.7701 42.8047 24.6824C42.9333 24.6647 43.2145 24.5972 43.576 24.7788C44.7332 25.607 46.0435 26.1969 47.4308 26.5141C47.4629 26.5229 47.4967 26.5229 47.5288 26.5141C48.0221 26.6459 48.5604 26.7294 49.0714 26.8034C49.1613 26.7776 49.216 26.7825 49.2642 26.8034C49.5325 26.8034 49.7944 26.8162 50.0339 26.8034C50.3199 26.8162 50.5818 26.8034 50.8051 26.8034C50.8967 26.7825 50.953 26.7776 50.998 26.8034C51.5539 26.7294 52.0906 26.6459 52.6369 26.5141C52.6289 26.5238 52.6401 26.5222 52.6369 26.5141C54.054 26.1956 55.3962 25.6064 56.5897 24.7788C56.8999 24.5988 57.181 24.6647 57.361 24.6824C57.5281 24.8093 57.6486 24.9684 57.6502 25.068C58.06 26.4016 58.759 27.1633 59.0964 27.4782C58.8329 27.6485 58.166 28.0936 57.9411 28.2495V28.2495ZM62.4723 26.8034C62.1703 26.9817 61.6496 27.7417 61.3154 28.3459C61.1942 28.4816 61.0655 28.6104 60.9298 28.7315C60.8559 28.7605 60.79 28.783 60.737 28.8296C60.6052 28.7942 60.5666 28.7364 60.5441 28.7315C60.4686 28.603 60.647 28.4439 60.8334 28.2495C60.9137 28.2286 60.9523 28.1965 61.0262 28.1531C61.1007 28.0389 61.1351 27.9033 61.1242 27.7674C61.1056 27.5921 61.0389 27.4252 60.9314 27.2854C60.4959 26.9849 60.1714 26.3599 59.9657 25.9357C59.9208 25.8786 59.888 25.813 59.8693 25.7429C59.715 25.4812 59.6475 25.1775 59.6765 24.8752C59.8966 24.5908 60.1649 24.263 60.5441 24.1039C60.745 24.0428 60.8221 24.0605 60.8334 24.1039C60.8703 24.0862 60.8848 24.1521 60.9314 24.2003C60.9089 24.2678 60.9201 24.3176 60.9314 24.3931C60.9459 24.3947 60.9523 24.4253 60.9314 24.4911C61.0246 24.7306 61.1322 25.1869 62.474 26.3229C62.5864 26.4113 62.6941 26.5141 62.6668 26.6121C62.6812 26.6411 62.625 26.7021 62.4723 26.8034Z" fill="#121212"/>
        <path d="M12.3407 37.2154C11.473 35.0478 9.7521 33.5904 7.61663 33.5519C4.35797 33.5904 2.38157 36.5181 2.41049 40.1077C2.37996 43.7375 4.35797 46.7552 7.80784 46.76C9.64766 46.7552 11.6578 45.7316 12.6283 44.1569C12.7778 43.9464 13.1104 44.0814 12.9192 44.4462C11.2625 46.9528 8.84264 47.5393 6.84535 47.5313C2.75757 47.5602 -0.0302815 43.977 0.000248275 40.1077C-0.0302815 36.1854 3.15606 32.9123 6.94015 32.877C8.35095 32.9123 9.51269 33.0955 10.5089 33.4554C10.811 33.5599 11.3814 33.8347 11.8587 33.0698C11.9551 32.8738 12.2523 32.7822 12.3407 33.1662C12.3439 33.4683 12.6299 37.119 12.6299 37.119C12.6412 37.3825 12.3921 37.4034 12.3407 37.2154V37.2154ZM64.4984 33.8411C64.5193 33.8122 66.8123 33.8411 66.8123 33.8411C67.4807 33.8122 69.1502 34.0805 69.1245 35.9621C69.1567 36.0473 69.2257 36.118 69.3173 36.1549C69.4028 36.116 69.4713 36.0475 69.5101 35.9621C69.4603 35.9685 69.425 32.8979 69.4137 32.877H57.3625C57.3786 32.8979 57.3095 35.9685 57.2661 35.9621C57.2836 36.0055 57.3097 36.045 57.3429 36.0781C57.376 36.1113 57.4155 36.1374 57.4589 36.1549C57.5451 36.117 57.6139 36.0482 57.6517 35.9621C57.6196 34.0805 59.2907 33.8122 59.964 33.8411C59.964 33.8411 62.2521 33.8122 62.2778 33.8411V45.7959C62.2408 47.0701 60.9232 47.0814 60.6388 47.0492C60.5762 47.0862 60.5055 47.1569 60.5424 47.242C60.5071 47.332 60.5762 47.4027 60.6388 47.4349H66.1342C66.1888 47.4011 66.2595 47.332 66.2306 47.242C66.2611 47.1569 66.1904 47.0862 66.1342 47.0492C65.8418 47.0814 64.5274 47.0701 64.4936 45.7959V33.8411H64.4984ZM85.323 46.4708C86.0139 46.4868 88.0498 46.0514 88.7937 43.8677C88.7648 43.7954 88.8339 43.7247 88.8901 43.7713C89.009 43.7247 89.0814 43.7954 89.083 43.8677C89.0701 43.8741 87.9598 47.4027 87.926 47.4365H77.0317C76.961 47.4027 76.8903 47.3336 76.9353 47.2437C76.8903 47.1585 76.961 47.0878 77.0317 47.0508C77.3097 47.083 78.6241 47.0717 78.6723 45.7975V34.5176C78.6257 33.2289 77.3097 33.2176 77.0317 33.1678C76.961 33.2144 76.8903 33.1437 76.9353 33.0714C76.8903 32.9686 76.961 32.8995 77.0317 32.8786H87.8312C87.8232 32.8995 87.8586 35.9701 87.8312 35.9637C87.8682 36.0489 87.7975 36.1196 87.7332 36.1565C87.624 36.1196 87.5533 36.0489 87.5404 35.9637C87.5468 34.0821 85.8773 33.8138 85.2282 33.8427C85.2282 33.8427 82.6974 33.8138 80.8897 33.8427V38.9524H85.1318C86.3931 38.9379 86.4044 37.6236 86.3851 37.4099C86.4108 37.2749 86.4815 37.2042 86.5779 37.217C86.655 37.2042 86.7257 37.2749 86.7707 37.4099V41.4591C86.7257 41.5169 86.655 41.5876 86.5779 41.5571C86.4799 41.5892 86.4108 41.5185 86.3851 41.4591C86.4044 41.1698 86.3931 39.8538 85.1318 39.8201H80.8897V46.4724H85.323V46.4708ZM90.1435 34.8052C89.8409 34.7918 89.5544 34.6656 89.3402 34.4515C89.1261 34.2374 88.9999 33.9508 88.9866 33.6483C88.9962 32.9525 89.5248 32.4239 90.1435 32.3949C90.8183 32.4174 92.0765 32.8963 92.0717 34.998C92.0315 37.0146 89.5827 37.8839 89.083 38.0831C88.8516 38.2052 88.6684 37.908 88.9866 37.7939C89.2629 37.6782 91.265 37.0596 90.7219 34.7088C90.6014 34.773 90.3957 34.7955 90.1435 34.8052ZM48.9748 43.0964C49.1082 43.8324 50.1607 46.6459 53.0257 46.6636C54.2115 46.6475 54.8751 45.9598 55.0503 45.6031C55.2865 45.2303 55.9774 43.8307 54.9539 42.7108C53.8468 41.5217 50.9625 39.9663 49.9406 39.3364C49.1114 38.803 48.3771 37.8373 48.398 36.1549C48.3369 34.9321 49.5437 32.6922 52.3508 32.6842C53.104 32.7118 53.8499 32.8415 54.5682 33.0698C54.9908 33.2867 55.7669 33.3317 56.1108 32.877C56.2715 32.644 56.5221 32.6681 56.4964 32.877V37.0226C56.5221 37.2443 56.2249 37.3134 56.2056 37.0226C56.1783 36.7639 55.6753 34.7955 54.181 34.0339C52.6545 33.3317 51.4879 33.6756 50.9995 34.1319C50.4805 34.5915 49.5662 35.8721 50.903 37.217C51.2373 37.4291 53.5206 38.9026 54.7594 39.6273C55.9035 40.2427 57.5971 41.3402 57.5537 43.6765C57.5955 46.1912 55.399 47.0846 54.8542 47.2453C54.2902 47.4831 52.1965 47.6807 50.9979 47.0524C49.8345 46.4531 49.4264 46.7182 48.9732 47.1488C48.9009 47.4059 48.5587 47.5666 48.5876 47.0524V43.0996C48.5603 42.7574 48.9732 42.7124 48.9748 43.0964V43.0964ZM57.5553 7.81043C55.5886 5.76815 52.9084 4.65783 50.0354 4.62891C44.1736 4.65944 39.3869 9.44458 39.4303 15.3304C39.4062 16.7278 39.6674 18.1153 40.1978 19.4083C40.7283 20.7013 41.5169 21.8725 42.5154 22.8504C43.4982 23.8489 44.6683 24.6439 45.9586 25.1898C47.249 25.7357 48.6343 26.0219 50.0354 26.0319C52.9084 25.9981 55.5886 24.8894 57.5553 22.8504C58.5658 21.8766 59.3686 20.7083 59.9154 19.4159C60.4622 18.1234 60.7416 16.7337 60.7369 15.3304C60.7288 12.4799 59.6201 9.79969 57.5553 7.81043V7.81043Z" fill="white"/>
        <path d="M45.3129 28.0565C45.2969 27.9923 45.2278 27.8155 45.4093 27.6709C45.5025 27.5118 45.7018 27.5472 45.795 27.5745C45.8866 27.6018 45.8785 27.6757 45.795 27.6709C45.7275 27.6577 45.6579 27.6597 45.5912 27.6767C45.5245 27.6936 45.4624 27.7251 45.4093 27.7689C45.419 27.8364 45.3852 27.936 45.4093 28.0581C45.419 28.0887 45.3852 28.1369 45.3129 28.0565ZM93.3251 43.0964C93.4938 43.8323 94.5479 46.6459 97.4707 46.6636C97.8685 46.6626 98.2603 46.5657 98.6128 46.3811C98.9652 46.1965 99.2679 45.9296 99.4953 45.6031C99.672 45.2303 100.363 43.8307 99.3025 42.7108C98.2307 41.5217 95.3481 39.9663 94.3856 39.3364C93.497 38.803 92.7643 37.8373 92.7466 36.1549C92.7225 34.9321 93.9292 32.6922 96.6994 32.6842C97.4533 32.7049 98.2002 32.8348 98.9168 33.0698C99.3748 33.2867 100.154 33.3317 100.459 32.877C100.657 32.644 100.908 32.6681 100.941 32.877V37.0226C100.908 37.2444 100.612 37.3135 100.557 37.0226C100.565 36.7639 100.062 34.7956 98.5312 34.0339C97.0417 33.3317 95.8751 33.6756 95.3513 34.1319C94.8692 34.5915 93.9549 35.8721 95.3513 37.217C95.6244 37.4291 97.9093 38.9026 99.2077 39.6273C100.292 40.2427 101.986 41.3402 102.004 43.6765C101.986 46.1912 99.7893 47.0846 99.2077 47.2452C98.6806 47.4831 96.5869 47.6807 95.3513 47.0524C94.2233 46.4531 93.8167 46.7182 93.4231 47.1488C93.2913 47.4059 92.9474 47.5666 92.941 47.0524V43.0996C92.9458 42.7574 93.3588 42.7124 93.3251 43.0964V43.0964ZM16.872 34.516C16.8961 33.2273 18.2121 33.216 18.511 33.1662C18.5592 33.2128 18.6299 33.1421 18.609 33.0698C18.6175 33.0313 18.6124 32.991 18.5945 32.9559C18.5767 32.9207 18.5471 32.8928 18.511 32.877H13.0156C12.9465 32.8979 12.8758 32.967 12.9192 33.0698C12.8742 33.1421 12.9465 33.2128 13.0156 33.1662C13.2936 33.2177 14.608 33.2289 14.6562 34.516V45.7959C14.6096 47.0701 13.2936 47.0814 13.0156 47.0492C12.9465 47.0862 12.8758 47.1569 12.9192 47.242C12.8742 47.332 12.9465 47.4027 13.0156 47.4349H18.511C18.5592 47.4011 18.6299 47.332 18.609 47.242C18.6315 47.1569 18.5608 47.0862 18.511 47.0492C18.2121 47.0814 16.8961 47.0701 16.872 45.7959V40.397H23.3315V45.7959C23.3492 47.0701 22.0332 47.0814 21.7889 47.0492C21.6861 47.0862 21.6154 47.1569 21.5961 47.242C21.6154 47.332 21.6861 47.4027 21.7889 47.4349H27.1879C27.2988 47.4011 27.3695 47.332 27.3807 47.242C27.3695 47.1569 27.2988 47.0862 27.1879 47.0492C26.9517 47.0814 25.6357 47.0701 25.6453 45.7959V34.516C25.6357 33.2273 26.9517 33.216 27.1879 33.1662C27.2988 33.2128 27.3695 33.1421 27.3807 33.0698C27.3695 32.967 27.2988 32.8979 27.1879 32.877H21.7889C21.7406 32.8848 21.696 32.9076 21.6614 32.9423C21.6268 32.9769 21.6039 33.0215 21.5961 33.0698C21.6154 33.1421 21.6861 33.2128 21.7889 33.1662C22.0332 33.2177 23.3492 33.2289 23.3315 34.516V39.5293H16.872V34.516ZM75.4876 32.877C75.5728 32.8979 75.6435 32.967 75.6804 33.0698C75.6435 33.1421 75.5728 33.2128 75.4876 33.1662C75.2257 33.2177 73.9097 33.2289 73.9451 34.516V45.7959C73.9097 47.0701 75.2257 47.0814 75.4876 47.0492C75.5738 47.0871 75.6426 47.1559 75.6804 47.242C75.6631 47.2856 75.6371 47.3252 75.604 47.3584C75.5708 47.3915 75.5312 47.4176 75.4876 47.4349H70.0903C69.9601 47.4011 69.8894 47.332 69.8975 47.242C69.8894 47.1569 69.9601 47.0862 70.0903 47.0492C70.3072 47.0814 71.6232 47.0701 71.6328 45.7959V34.516C71.6232 33.2273 70.3072 33.216 70.0903 33.1662C69.9601 33.2128 69.8894 33.1421 69.8975 33.0698C69.8894 32.967 69.9601 32.8979 70.0903 32.877H75.4876ZM41.5513 47.0492C41.2043 47.0942 40.3703 46.4418 39.816 45.6995L35.8632 40.397C37.6243 39.8747 39.2488 38.6166 39.2391 36.4442C39.2488 34.5224 37.2129 32.8979 35.4791 32.877H28.4412C28.3207 32.8979 28.25 32.967 28.2484 33.0698C28.25 33.1421 28.3191 33.2128 28.4412 33.1662C28.6678 33.2177 29.9822 33.2289 29.9838 34.516V45.7959C29.9822 47.0701 28.6678 47.0814 28.4412 47.0492C28.3207 47.0862 28.25 47.1569 28.2484 47.242C28.25 47.332 28.3191 47.4027 28.4412 47.4349H33.8402C33.8853 47.4203 33.9263 47.3952 33.9598 47.3617C33.9934 47.3282 34.0184 47.2872 34.033 47.242C34.0167 47.1979 33.991 47.1578 33.9577 47.1245C33.9244 47.0912 33.8843 47.0655 33.8402 47.0492C33.5879 47.0814 32.2703 47.0701 32.2976 45.7959V34.0339C34.1246 33.1486 36.71 34.0869 36.7325 36.5422C36.71 39.0295 34.9489 39.6707 33.7454 39.6273H32.2992V40.5914H33.4561C33.4561 40.5914 37.6966 46.2153 38.0838 46.6652C38.4261 47.1745 38.7699 47.4043 39.4335 47.4365H47.0499C47.1142 47.4027 47.1849 47.3336 47.1463 47.2436C47.1849 47.1585 47.1126 47.0878 47.0499 47.0508C46.7671 47.083 45.4511 47.0717 45.411 45.7975V34.5176C45.4511 33.2289 46.7671 33.2177 47.0499 33.1678C47.1142 33.2144 47.1849 33.1437 47.1463 33.0714C47.1849 32.9686 47.1126 32.8995 47.0499 32.8786H41.5546C41.5174 32.8931 41.487 32.9208 41.4692 32.9565C41.4514 32.9921 41.4475 33.0331 41.4582 33.0714C41.4292 33.1437 41.4999 33.2144 41.5546 33.1678C41.8486 33.2193 43.1646 33.2305 43.1951 34.5176V45.7975C43.1614 47.0701 41.8454 47.0814 41.5513 47.0492V47.0492Z" fill="white"/>
        <path d="M43.8667 26.6104C43.6208 26.3517 42.4543 25.8921 42.2277 26.6104C41.9642 27.4042 43.1259 27.8075 43.7703 27.7673C44.4178 27.7255 45.721 27.0651 46.3734 27.6693C46.3942 27.6966 46.436 27.6404 46.3734 27.5729C46.3268 27.5038 45.9829 27.2419 45.4092 27.2837C44.8565 27.3801 44.3214 27.5038 43.6739 27.4765C43.1131 27.4492 42.1072 27.311 42.3241 26.6088C42.5089 26.0207 43.6722 26.4963 43.7703 26.6088C43.8619 26.6618 43.902 26.6136 43.8667 26.6104V26.6104Z" fill="white"/>
        <path d="M50.8078 24.1035C50.7789 24.0665 50.7242 24.1147 50.7098 24.1999C50.7242 24.2095 50.7853 24.2594 50.9026 24.2963C50.9492 24.2594 51.0247 24.1903 51.0954 24.1999C51.0536 24.1356 50.9508 24.073 50.8078 24.1035V24.1035ZM51.3847 23.7179C51.3541 23.7596 51.3284 23.8127 51.3847 23.8159C51.4505 23.8416 51.5261 23.8143 51.5775 23.8159C51.5148 23.7853 51.4457 23.7709 51.3847 23.7179V23.7179ZM51.4827 24.1035C51.4795 24.1292 51.4313 24.2095 51.4827 24.1999C51.6225 24.2095 51.6225 24.1838 51.6755 24.1999C51.6305 24.1549 51.5759 24.1405 51.4827 24.1035ZM52.254 23.7179C52.2074 23.7789 52.1254 23.8127 52.1575 23.9107C52.1656 23.9492 52.3166 23.9444 52.4468 23.9107C52.4805 23.9155 52.5094 23.7034 52.254 23.7179ZM52.5432 21.404C52.4886 21.4426 52.4066 21.5952 52.5432 21.5968C52.6798 21.5615 52.6942 21.4924 52.6396 21.4988C52.6798 21.4378 52.6042 21.4233 52.5432 21.404ZM46.2765 21.5004C46.1319 21.5342 46.0499 21.5888 45.9873 21.6933C45.886 21.8909 46.0355 21.9038 46.1801 21.8861C46.2829 21.9038 46.6959 21.9038 46.855 21.9825C47.0237 21.9873 46.9835 22.0275 46.9514 22.0805C46.9851 22.1383 47.0799 22.193 47.1442 22.1769C47.2728 22.1673 47.4784 22.14 47.5298 22.1769C47.5331 22.0435 47.5186 21.9616 47.1442 21.8877C47.0398 21.8925 47.0108 21.8089 47.1442 21.7913C46.9289 21.7527 46.5449 21.547 46.2765 21.5004V21.5004ZM46.4693 21.404C46.4758 21.3558 46.4693 21.4105 46.4693 21.404C46.5513 21.4378 46.6348 21.4571 46.6622 21.5004C46.757 21.4715 46.6059 21.3831 46.4693 21.404ZM47.337 13.3056C47.374 13.2414 47.4302 13.296 47.5298 13.3056C47.5395 13.394 47.6005 13.4952 47.5298 13.5949C47.5186 13.6061 47.4013 13.537 47.337 13.4984C47.3467 13.4695 47.2711 13.394 47.337 13.3056ZM49.3616 10.8954C49.5239 10.9693 49.7923 11.2023 49.8437 11.281C49.9562 11.3806 49.9289 11.4851 49.7473 11.3774C49.6249 11.2731 49.4961 11.1765 49.3616 11.0882C49.2684 11.0818 49.111 10.9291 49.3616 10.8954V10.8954ZM49.9401 10.6062C50.0317 10.5997 50.202 10.709 50.2293 10.799C50.3129 10.9291 50.2374 11.0047 50.1329 10.897C50.0028 10.8552 49.9289 10.7524 49.8437 10.7042C49.8324 10.6688 49.826 10.5997 49.9401 10.6062ZM50.3241 8.38874C50.2293 8.36945 50.2229 8.38713 50.2277 8.38874C50.2213 8.43373 50.2325 8.45944 50.3241 8.48675C50.3225 8.45944 50.4238 8.45462 50.4222 8.48675C50.4658 8.46784 50.5004 8.43269 50.5186 8.38874C50.4945 8.3791 50.4752 8.37267 50.4222 8.38874C50.4125 8.36624 50.3257 8.36945 50.3241 8.38874Z" fill="white"/>
        <path d="M59.1005 20.3433C58.9414 20.3931 58.8595 20.2292 58.7149 20.1505C58.6393 20.0927 58.5574 19.8308 58.424 19.6685C58.228 19.3776 58.4337 19.1591 58.522 18.9936C58.5992 18.7735 58.7631 18.7333 58.9077 18.608C58.9543 18.5132 59.258 17.7708 59.2917 17.6439C59.3672 17.4414 59.1744 17.4141 59.0989 17.451C59.0362 17.5249 58.9543 17.676 58.7132 17.5474C58.5429 17.3466 58.3919 17.4559 58.3276 17.451C58.1717 17.4832 57.7186 17.4559 57.4599 17.451C57.3747 17.3048 57.0871 17.1409 56.8814 17.0654C56.6211 16.9754 56.6211 16.8372 56.6886 16.7762C56.785 16.6187 56.7577 16.5078 56.6886 16.3905C56.4991 16.1944 56.3062 16.0016 56.1102 15.8121C55.9061 15.6305 55.8515 15.563 55.8209 15.33C55.837 14.848 55.7277 14.2036 55.6281 13.7875C55.5399 13.4742 55.5067 13.148 55.5301 12.8234C55.5622 11.7307 55.3421 10.5368 55.3373 10.3151C55.2601 10.1255 55.0272 9.87805 54.9516 9.2546C54.9163 8.72434 54.6158 8.13464 54.2768 7.71204C53.8461 7.20107 52.927 6.66599 52.7342 6.55512C52.4883 6.50049 52.3646 6.28036 51.9645 6.26589C51.5403 6.1968 49.7712 6.21126 49.1686 6.26589C48.5628 6.29482 47.9715 6.71902 47.4332 7.03557C46.956 7.43245 46.9303 7.81648 46.8564 8.28889C46.821 8.6665 46.5864 8.88663 46.4707 9.06017C46.4225 9.19032 45.8585 10.4517 45.6994 10.7955C45.558 11.0848 45.5436 11.2214 45.603 11.4704C45.7075 11.893 45.3781 12.1822 45.2174 12.3381C45.1049 12.539 44.9265 12.9648 44.7353 13.4966C44.4589 14.1185 44.843 14.2004 44.9281 14.1715C45.0631 14.202 45.3106 14.1586 45.4102 14.2679C45.5837 14.435 45.6801 14.7516 45.6994 14.8464C45.7091 14.9701 45.6127 15.1484 45.603 15.232C45.6673 15.3959 45.7766 15.5196 45.6994 15.7141C45.64 15.8763 45.5034 16.164 45.4102 16.5817C45.3925 16.9047 45.8874 17.1104 46.0851 17.1586C46.2441 17.2197 46.4771 17.2486 46.4707 17.3514C46.4225 17.5217 45.9967 17.5217 45.505 17.6422C44.9522 17.8238 44.9121 18.1532 44.9281 18.3171C44.994 18.4569 44.9667 18.5935 44.5425 18.6063C44.3848 18.6193 44.2325 18.6698 44.0983 18.7537C43.9641 18.8376 43.852 18.9523 43.7712 19.0884C43.7037 19.323 43.5543 19.3905 43.3856 19.474C43.3242 19.5393 43.2901 19.6255 43.2901 19.7151C43.2901 19.8046 43.3242 19.8908 43.3856 19.9561C43.5109 20.0493 43.5109 20.2148 43.482 20.3417C43.4306 20.3787 43.4032 20.4751 43.3856 20.631C43.4563 20.7499 43.4981 20.9154 43.3856 21.0166C43.2233 21.1066 43.1831 21.2978 43.1927 21.4986C43.2104 21.6288 43.2506 21.9164 43.5784 21.9807C43.8821 22.0803 43.9785 22.1494 44.0604 22.5591C44.1681 23.046 43.6732 23.3288 43.482 23.4268C43.2074 23.2233 42.95 22.9976 42.7123 22.752C40.6973 20.7434 39.6095 18.1179 39.6272 15.3284C39.6095 12.5357 40.6973 9.91179 42.7123 7.90486C43.6698 6.93952 44.8123 6.17727 46.0713 5.66373C47.3303 5.1502 48.68 4.89594 50.0395 4.91616C51.4134 4.89627 52.7775 5.15032 54.0521 5.66347C55.3267 6.17662 56.4863 6.93858 57.4631 7.90486C59.414 9.88649 60.52 12.5477 60.5483 15.3284C60.5262 17.0863 60.062 18.8104 59.1985 20.3417C59.1921 20.3642 59.1583 20.3771 59.1005 20.3433V20.3433Z" fill="#121212"/>
        <path d="M46.3702 24.3927C46.2979 24.4699 45.9508 24.6964 45.6953 24.8764C45.093 24.5636 44.5131 24.2092 43.96 23.8159V23.7179C43.8652 23.2101 44.9498 22.1512 45.2133 21.8861C45.4157 21.6306 46.3364 20.7227 46.6594 20.5363C47.0225 20.3114 47.0916 20.3114 47.2362 20.1507C47.6524 19.4887 49.3685 17.6071 49.6465 17.3548C49.9726 17.0318 49.9871 17.2519 49.9373 17.3548C49.8907 17.6071 49.8489 18.5278 50.0337 18.8973C50.1526 19.2139 50.0691 19.516 50.0337 19.6686C50.1526 19.7217 50.249 19.8036 50.1301 19.8614C50.0562 19.9129 50.0289 19.9948 50.1301 19.9579C50.3984 19.9402 50.3583 20.0639 50.3229 20.1507C50.249 20.1475 50.2217 20.2021 50.3229 20.2471C50.7439 20.2985 50.6202 20.4624 50.6138 20.5363C50.7295 20.5588 50.7584 20.6681 50.7102 20.7291C50.6202 20.7083 50.5929 20.7227 50.6138 20.8256C50.9223 20.9027 50.8805 21.0264 50.8066 21.0184C50.7985 21.2176 50.715 21.2465 50.6138 21.2112C50.5511 21.2449 50.5109 21.2723 50.4209 21.3076C50.6604 21.3413 50.6475 21.4924 50.6138 21.5984C50.7439 21.5213 50.9094 21.5486 50.903 21.7913C50.964 21.96 50.9496 22.1126 50.8066 22.1769C50.5924 22.2238 50.3935 22.3238 50.2281 22.4677C50.0408 22.5747 49.8477 22.6713 49.6497 22.757C49.5372 22.7987 49.4263 22.7441 49.4569 22.6606C49.4263 22.6075 49.4119 22.5658 49.264 22.5642C49.1371 22.5658 49.2062 22.6493 49.264 22.6606C49.2319 23.1153 48.9587 23.1426 48.7804 23.1426C48.6824 23.088 48.6567 23.1282 48.5876 23.239C48.4638 23.3772 48.1762 23.4736 48.0091 23.5283C47.8452 23.6086 47.2828 23.9669 47.045 24.0103C46.8442 24.1003 46.5437 24.2513 46.3702 24.3927V24.3927Z" fill="#121212"/>
        <path d="M53.4117 25.2605C53.0453 24.6692 53.0598 23.8593 53.2188 23.7179C53.3032 23.566 53.368 23.4041 53.4117 23.2359C53.4229 23.1812 53.4791 23.0704 53.5081 22.9466C53.5048 22.8502 53.4775 22.659 53.6045 22.561C53.6704 22.4405 53.6848 22.2204 53.7973 21.9825C53.8869 21.7406 54.0572 21.5369 54.2793 21.4057C54.3838 21.3977 54.4802 21.343 54.4722 21.2129C54.4802 21.1502 54.4256 21.1374 54.5702 20.9236C54.7839 20.779 54.8241 20.8208 54.9558 20.9236C55.0169 21.0136 55.0442 20.8481 55.0522 20.8256C54.9896 20.7099 54.8932 20.7244 54.8594 20.5364C54.9205 20.3934 55.0715 20.2423 55.1486 20.1508C55.2097 20.0238 55.2643 19.9547 55.3415 19.9579C55.3536 19.8093 55.4227 19.6712 55.5343 19.5723C55.6082 19.3795 55.6082 19.2558 55.4379 19.3795C55.3045 19.4743 54.6184 20.313 54.4722 20.5364C54.1926 20.9028 54.0688 20.7646 53.8953 20.7292C53.7121 20.7646 53.6575 20.9011 53.7973 20.922C53.9853 20.9011 53.9853 20.9847 53.8953 21.0184C53.7394 21.012 53.6013 21.012 53.5097 21.1149C53.7266 21.1213 53.7266 21.2723 53.6061 21.3077C53.5878 21.3365 53.5781 21.3699 53.5781 21.4041C53.5781 21.4382 53.5878 21.4717 53.6061 21.5005C53.6575 21.6162 53.6318 21.6853 53.5097 21.8861C53.3008 22.0693 53.1771 22.0549 53.0276 22.079C53.2172 22.3023 52.9023 22.275 52.8348 22.2718C52.7368 22.275 52.6564 22.3023 52.642 22.3682C52.6998 22.455 52.6564 22.5353 52.7384 22.561C52.843 22.56 52.9447 22.5263 53.0292 22.4646C53.1096 22.4662 53.206 22.4517 53.1256 22.561C53.0148 22.7281 52.9183 22.741 52.74 22.7538C52.5889 22.741 52.6725 22.8792 52.6436 22.9466C52.589 22.9466 52.4925 23.0013 52.3544 23.0431C52.2997 23.0302 52.2178 23.1668 52.3544 23.2359C52.5472 23.2503 52.4636 23.1668 52.6436 23.0431C52.8782 23.0029 52.9585 23.1957 52.9328 23.3339C52.8782 23.4705 52.8637 23.8127 52.8364 24.1036C52.838 24.2755 52.9633 25.0018 53.0292 25.3569C52.0595 25.6419 51.0508 25.7721 50.0405 25.7425C49.2963 25.769 48.5516 25.7043 47.8231 25.5497C47.7471 25.4362 47.7131 25.2999 47.7267 25.1641C47.7427 25.0339 47.77 24.9937 47.7267 24.7784C47.77 24.4715 47.9227 24.4442 48.2087 24.3928C48.2087 24.0329 48.5253 24.1421 48.6908 24.1036C48.7727 24.0039 48.8129 24.0329 48.98 24.0071C49.0877 24.0313 49.5826 24.073 49.6549 23.9091C49.7207 23.824 49.5424 23.7147 49.6549 23.5235C49.679 23.4126 49.7609 23.2744 50.0405 23.3307C50.2558 23.358 50.6254 23.4126 50.8118 23.2327C50.9548 23.0816 50.995 23.1507 51.0046 23.2327C50.9966 23.3419 50.9821 23.493 51.101 23.6183C51.2569 23.6858 51.5188 23.6569 51.4867 23.6183C51.5188 23.5203 51.477 23.5347 51.3886 23.5219C51.2006 23.4383 51.379 23.3708 51.5815 23.4255C51.7373 23.3966 51.6811 23.26 51.6795 23.1362C51.53 22.8342 51.7229 22.7779 51.7759 22.6542C51.9157 22.614 51.9848 22.5321 51.9687 22.4614C51.9028 22.3119 51.8884 22.2428 51.9687 22.1705C51.9992 22.1063 52.094 22.0516 52.1615 21.8813C52.1487 21.8026 52.0249 21.7078 51.9687 21.5921C51.8884 21.515 51.8482 21.6258 51.8723 21.3012C51.8193 21.0747 51.9703 21.1165 52.1615 21.1084C52.0667 21.0747 51.9976 21.0056 52.1615 20.9156C52.2451 20.7308 52.5327 20.5251 52.5472 20.432C52.6163 20.2761 52.6163 20.2086 52.74 20.1427C52.9183 20.0704 52.7689 19.9612 52.6436 19.8535C52.6436 19.8535 52.5616 19.823 52.4508 19.8535C52.2869 19.823 52.3142 19.9467 52.3544 20.0463C52.2451 20.4271 51.8482 20.2616 51.7759 20.1427C51.71 20.0977 51.5188 19.9467 51.6795 19.7571C51.7646 19.6173 51.9976 19.6864 52.1615 19.6607C52.3544 19.6864 52.4234 19.4936 52.2579 19.4679C52.099 19.5009 51.9349 19.5009 51.7759 19.4679C51.6281 19.5064 51.6425 19.6173 51.4867 19.5643C51.2569 19.5916 51.2151 19.6719 51.1958 19.8551C51.1332 20.1122 50.8712 20.0447 50.8118 19.9515C50.7073 19.9081 50.5965 19.7282 50.521 19.5659C50.288 19.2156 50.4872 19.2075 50.7138 19.1818C50.4053 19.1256 50.4872 19.0147 50.521 18.989C50.5692 18.989 50.6383 18.9746 50.619 18.891C50.3651 18.7143 50.5708 18.6869 50.7154 18.6982C50.5981 18.5487 50.5708 18.4797 50.7154 18.5054C50.3378 18.3286 50.5226 18.2145 50.5226 18.2145C50.5226 18.2145 50.5451 18.2033 50.6206 18.2145C50.7218 18.2338 50.8054 18.1486 50.717 18.1181C50.4486 18.0796 50.4904 17.9703 50.5242 17.9253C50.5724 17.9157 50.627 17.8594 50.5242 17.8289C50.4904 17.8048 50.4229 17.8048 50.4278 17.7325C50.394 17.5863 50.5579 17.5718 50.6206 17.5397C50.6125 17.5316 50.5451 17.5589 50.6206 17.3468C50.5981 17.064 50.9291 17.244 51.0062 17.3468C51.1219 17.4352 51.1765 17.5863 51.1026 17.6377C51.0384 17.6409 51.011 17.6971 51.1026 17.7341C51.3967 17.9446 51.1476 18.0683 51.1026 18.0233C51.0384 18.0683 50.9982 18.1503 51.1026 18.1213C51.3967 18.1647 51.3678 18.3158 51.2954 18.4106C51.2312 18.4813 51.2312 18.6741 51.3919 18.6998C51.8353 18.7416 51.9864 18.9344 52.0667 18.989C52.1519 19.0437 52.1937 19.1545 52.1647 19.2782H52.5504C52.5648 18.9488 52.9216 18.8251 53.0324 18.7962C53.0324 18.7962 53.0308 18.7287 53.1288 18.6998C53.2236 18.6194 53.2236 18.5648 53.1288 18.507C53.1128 18.4539 53.1562 18.3993 53.2269 18.3142C53.3892 18.0828 53.7603 17.7807 53.9965 17.6393C54.3083 17.5332 54.3902 17.4513 54.7678 17.1556C55.0763 16.9291 55.1856 17.1894 55.2499 17.3484C55.3784 17.5461 55.6805 17.7116 55.8283 17.7341C56.0099 17.71 56.2429 17.8755 56.4068 18.0233C56.6012 18.1792 57.313 18.4668 57.4673 18.507C57.596 18.5626 57.7031 18.6584 57.7726 18.7801C57.8422 18.9018 57.8704 19.0428 57.8529 19.1818C57.8771 19.4148 58.192 19.688 58.2386 19.7587C58.3575 19.8808 58.5214 20.0993 58.5278 20.2407C58.5503 20.3179 58.5905 20.387 58.7206 20.53C58.8556 20.6521 58.8877 20.808 58.9135 20.9156C57.6081 22.9303 55.674 24.4576 53.4117 25.2605V25.2605ZM45.9881 14.2698C46.017 14.183 46.0636 14.1284 46.1809 14.1733C46.2998 14.1894 46.4283 14.4031 46.2773 14.559C46.0989 14.6907 46.0379 14.6425 45.9881 14.559C45.8868 14.5461 45.8788 14.334 45.9881 14.2698ZM45.8917 17.7405C45.8177 17.7598 45.6121 17.8964 45.9897 17.9333C46.0732 17.9092 46.2243 17.8964 46.2789 17.8369C46.2355 17.7453 46.1407 17.71 45.8917 17.7405V17.7405ZM44.0599 21.8861C44.0808 21.9424 44.1563 22.2332 44.2527 22.3682C44.2929 22.4533 44.3893 22.5353 44.5419 22.3682C44.6496 22.2332 44.5419 22.1368 44.4455 22.1754C44.4037 22.1239 44.3202 22.0693 44.2527 21.8861C44.1016 21.7255 44.0599 21.6772 43.9618 21.6933C43.8944 21.6772 43.8879 21.6981 43.8654 21.6933C43.9024 21.7528 44.0261 21.7062 44.0599 21.8861V21.8861ZM43.385 21.4041C43.4637 21.3478 43.6276 21.1213 43.6742 21.1149C43.7787 21.0393 43.7996 20.9638 43.7706 20.8256C43.7722 20.6746 43.6839 20.6489 43.6742 20.5364C43.6839 20.4689 43.7996 20.2986 43.7706 20.1508C43.7722 20.064 43.6485 19.9885 43.5778 19.8615C43.5939 19.7282 43.6341 19.6735 43.6742 19.6687C43.6931 19.6612 43.7134 19.6578 43.7338 19.6587C43.7541 19.6595 43.774 19.6647 43.7922 19.6738C43.8104 19.6829 43.8265 19.6957 43.8394 19.7115C43.8523 19.7272 43.8617 19.7455 43.867 19.7651C43.8622 19.8937 43.8285 20.0174 43.9635 20.1508C44.0342 20.2922 44.0743 20.3934 44.0615 20.5364C44.0913 20.6795 44.1577 20.8124 44.2543 20.922C44.2816 21.0377 44.37 21.4234 43.9635 21.4041C43.6003 21.4105 43.5875 21.3816 43.5794 21.5005C43.5457 21.6306 43.3191 21.5551 43.385 21.4041V21.4041ZM44.3491 20.5364C44.2527 20.5653 44.1836 20.6826 44.5419 20.922C44.7058 20.9767 44.7942 21.0522 44.6383 21.2113C44.5483 21.3125 44.5885 21.3961 44.6383 21.5005C44.7813 21.6435 44.8922 21.8701 45.024 21.7897C45.1525 21.6917 45.1043 21.5953 45.122 21.5005C45.1043 21.486 45.1397 21.4378 45.2184 21.3077C45.2907 21.2739 45.3807 20.8883 45.0256 20.8256C44.6913 20.8337 44.4792 20.779 44.3491 20.5364V20.5364ZM44.0599 19.2831C44.1081 19.2622 44.1498 19.275 44.1563 19.2831C44.2334 19.3714 44.4535 19.688 44.5419 19.7651C44.6721 19.839 44.8086 19.8872 44.9276 20.056C45.0834 20.2295 45.371 20.4287 46.0845 20.44C46.3062 20.4287 46.2773 20.5444 46.2773 20.6328C46.2773 20.6424 46.2082 20.7581 45.9881 20.7308C45.8292 20.7699 45.6633 20.7699 45.5044 20.7308C45.3775 20.779 45.2618 20.6232 45.1204 20.538C44.9327 20.4802 44.7382 20.4473 44.5419 20.44C44.4326 20.4432 44.4391 20.3886 44.5419 20.3436C44.5764 20.3042 44.6027 20.2583 44.6193 20.2087C44.6358 20.159 44.6423 20.1065 44.6383 20.0543C44.5548 19.9885 44.2527 19.5273 44.0599 19.3795C44.0197 19.3586 44.0599 19.2831 44.0599 19.2831V19.2831ZM48.5911 17.1621C48.4546 17.1347 48.4128 17.2103 48.3019 17.2601C48.2746 17.2247 48.2344 17.3002 48.2055 17.4529C48.2344 17.5204 48.3083 17.8016 48.4947 17.7421C48.7084 17.6923 48.6185 17.432 48.9768 17.4529C49.2676 17.395 49.078 17.252 48.9768 17.2601C48.9398 17.1813 48.7277 17.1347 48.5911 17.1621V17.1621ZM49.3624 16.8728C49.1744 16.86 49.2226 17.0512 49.266 17.1621C49.3592 17.1894 49.5231 17.3276 49.65 17.1621C49.7903 17.0318 49.8911 16.8648 49.9409 16.68C49.9023 16.5515 49.8461 16.5916 49.7481 16.68C49.6822 16.688 49.6131 16.8664 49.3624 16.8728V16.8728Z" fill="#121212"/>
        <path d="M51.384 15.6192C51.3599 15.9068 51.2795 17.0316 51.6748 18.0294C51.7744 18.3074 51.7792 18.7493 52.1568 18.8007C52.4477 18.8151 52.6935 18.4713 52.8317 18.3186C52.8847 18.1692 53.1611 17.7578 53.5066 17.6438C53.8745 17.5377 54.5751 17.2501 54.7599 16.9689C54.8483 16.8805 54.9302 16.8114 54.7599 16.5833C54.4916 16.3438 54.5317 16.151 54.5671 16.0048C54.506 15.8232 54.1622 15.534 54.085 15.4263C54.0513 15.3139 53.8601 14.9989 53.7942 14.7515C53.652 14.4794 53.4102 14.2727 53.1193 14.1746C53.0775 14.067 52.8847 13.7649 52.5409 13.9818C52.2806 14.2052 52.1713 14.3 51.9624 14.3674C51.7037 14.4365 50.9903 14.835 50.9983 15.0423C51.0722 15.0696 51.2924 15.2464 51.2875 15.4279C51.498 15.2753 51.7583 15.1387 52.0572 15.2351C51.9222 15.4681 51.8531 15.4681 51.8644 15.6192C51.8258 15.7397 51.5511 15.9871 51.4788 15.812C51.4996 15.6577 51.4852 15.5629 51.384 15.6192V15.6192ZM57.1701 18.0294C57.2698 17.9442 57.477 17.7177 57.845 17.7402C58.2322 17.7595 58.2676 17.7386 58.3271 17.7402C58.4186 17.6695 58.4942 17.655 58.6163 17.7402C58.6581 17.8751 58.8509 18.0599 58.8091 18.1258C58.8509 18.2801 58.8171 18.4793 58.6163 18.415C58.3913 18.4375 58.3222 18.2801 57.9414 18.3186C57.6233 18.3074 57.3822 18.2511 57.1717 18.2206C57.093 18.1371 57.1348 18.0808 57.1701 18.0294ZM58.0378 18.6079C58.0684 18.5741 58.1294 18.5275 58.2306 18.6079C58.2531 18.6496 58.3222 18.7541 58.2306 18.8971C58.1567 18.9389 58.0812 18.9999 58.0378 18.6079ZM44.3477 18.8007C44.5405 18.8344 45.1655 18.8151 45.2153 18.6079C45.2603 18.4857 45.1848 18.3958 45.2153 18.3186C45.1575 18.2592 45.1093 18.1146 45.3118 18.1258C45.5624 18.1146 45.9609 18.0872 46.083 18.2222C46.1248 18.3074 46.2967 18.3074 46.3723 18.2222C46.4205 18.129 46.5587 18.1081 46.6631 18.1258C46.7643 18.1081 46.8125 17.9635 46.6631 17.933C46.4558 17.896 46.4349 17.7096 46.6631 17.7402C46.8752 17.7514 47.1901 17.6823 47.2399 17.6438C47.3685 17.6004 47.6706 17.6132 47.722 17.7402C47.8345 17.7916 48.0482 17.9298 48.204 17.933C48.3487 18.0117 48.3278 18.1837 48.3004 18.2222C48.1783 18.3492 47.9646 18.5002 47.722 18.3202C47.5244 18.0471 47.5195 17.9924 47.3364 18.0294C47.346 18.1017 47.2303 18.2945 47.0471 18.3202C47.0037 18.362 46.9829 18.4873 47.1435 18.5131C47.2849 18.4857 47.5179 18.4456 47.6256 18.5131C47.7927 18.6239 47.9935 18.8441 47.722 18.8023C47.4296 18.8441 47.264 18.8585 47.0471 19.0915C47.0246 19.1751 46.819 19.2217 46.5651 19.1895C46.2839 19.2233 46.263 19.3133 46.1794 19.4788C46.1393 19.6218 46.0702 19.6427 45.8902 19.5752C45.7954 19.588 45.8018 19.6571 45.7938 19.768C45.8163 19.7937 45.8227 19.8419 45.9866 19.866C46.1393 19.8419 46.1457 19.9383 46.2758 19.9624C46.4751 19.9383 46.5506 19.8981 46.6615 19.9624C46.6888 20.0219 46.6952 20.1729 46.4687 20.1552C46.1794 20.1552 46.0637 20.1793 45.9866 20.2516C45.8436 20.2484 45.699 20.2275 45.601 20.0588C45.4933 19.8274 45.315 19.8419 45.2153 19.768C45.1511 19.7182 45 19.3823 44.8297 19.2859C44.5887 19.1879 44.4521 19.0321 44.3477 18.9967C44.2721 18.9453 44.2721 18.836 44.3477 18.8007V18.8007Z" fill="#121212"/>
        <path d="M45.1201 19.09C45.247 19.0563 45.337 18.9454 45.4093 18.8972C45.5154 18.796 45.7419 18.6706 45.795 18.7044C45.8278 18.7454 45.8457 18.7964 45.8457 18.849C45.8457 18.9016 45.8278 18.9526 45.795 18.9936C45.7355 18.9647 45.6311 19.0482 45.697 19.1864C45.4672 19.2266 44.9241 19.2491 45.1201 19.09ZM49.5549 7.81006C49.5099 7.84059 49.5035 7.92896 49.5549 8.00288C49.661 8.05912 49.6883 8.2439 49.7477 8.38691C49.7782 8.42226 50.0659 8.8545 50.2298 9.06178C50.437 9.23853 50.6572 9.09392 50.7118 9.06178C50.8818 8.9426 51.0828 8.87559 51.2903 8.86896C51.5072 8.93002 51.5409 9.05857 51.5795 9.15819C51.4863 9.44421 51.2469 9.25299 51.1939 9.06178C51.0557 8.92359 50.9319 9.0184 50.9046 9.15819C50.8211 9.26585 50.6636 9.32691 50.6154 9.44742C50.4708 9.54704 50.5817 9.66434 50.6154 9.83306C50.7311 9.91179 50.8146 9.82181 50.8082 9.83306C50.9448 9.71255 51.0958 9.62256 51.1922 9.64024C51.369 9.62256 51.4252 9.68523 51.3851 9.73665C51.4108 9.83627 51.2935 9.8427 51.0958 9.83306C50.9641 9.91179 50.9769 9.96 50.9994 10.0259C50.9914 10.1368 50.9496 10.1866 50.8066 10.1223C50.6845 10.0459 50.5554 9.98133 50.421 9.92947C50.1607 9.87805 50.106 9.54865 50.0353 9.35262C49.9696 9.2349 49.9363 9.1018 49.9389 8.96698C49.714 8.91074 49.7349 8.83522 49.7461 8.67775C49.5501 8.53313 49.6802 8.65525 49.5533 8.38691C49.4328 8.08001 49.1243 8.08483 48.9748 8.09768C48.8768 8.05912 48.5346 8.12018 48.398 8.19409C48.2743 8.25836 47.6492 8.60705 47.5303 8.57973C47.3208 8.59422 47.1219 8.67778 46.9649 8.81734C46.8079 8.9569 46.7016 9.14458 46.6626 9.35101C46.6209 9.43778 46.3863 9.87002 46.277 9.92786C46.2368 10.0612 46.0103 10.426 45.8914 10.6991C45.7628 11.0414 46.044 11.0687 46.1806 11.0848C46.3606 11.0414 46.6546 10.9868 46.8555 10.9868C47.066 10.9868 47.458 11.3499 47.5303 11.3724C47.5126 11.4045 47.5737 11.4254 47.5303 11.5652C47.5609 11.7275 47.6091 11.6777 47.6267 11.8545C47.6508 11.9541 47.3825 11.9059 47.0483 11.8545C46.7109 11.8914 46.7848 12.2417 46.7591 12.3365C46.8121 12.4908 46.7574 12.5438 46.6626 12.4345C46.5518 12.4072 46.4152 12.0714 46.277 11.8561C46.2224 11.6472 46.0022 11.6745 45.8914 11.7596C45.7146 11.8239 45.4816 12.2224 45.3129 12.3365C45.2342 12.4972 45.0285 12.9214 44.8309 13.3022C44.6718 13.7602 44.9385 13.8903 45.0237 13.8807C45.1587 13.9048 45.3724 13.7875 45.6986 13.8807C46.044 14.0349 46.0521 13.8839 46.0842 13.7843C46.187 13.7473 46.277 13.7409 46.277 13.7843C46.3606 13.8775 46.5919 14.2004 46.7591 14.4591C47.0049 14.7355 46.9567 15.0103 46.9519 15.134C46.9567 15.2995 46.8747 15.2995 46.7591 15.232C46.5807 14.983 46.4216 14.983 46.3734 15.0392C46.2852 14.986 46.1866 14.9525 46.0842 14.9412C45.8576 15.0103 45.9476 15.1067 45.9878 15.134C46.0839 15.1226 46.1809 15.1226 46.277 15.134C46.3863 15.0858 46.367 15.1468 46.3734 15.134C46.367 15.2159 46.3525 15.2304 46.3734 15.232C46.4072 15.3814 46.4072 15.4505 46.3734 15.5212C46.3525 15.547 46.3397 15.6964 46.3734 15.8105C46.4216 16.0001 46.4023 16.0274 46.3734 16.0033C46.277 16.0274 46.1677 15.9519 46.0842 15.8105C45.9621 15.7478 45.8576 15.8426 45.795 15.9085C45.4463 16.2877 46.0922 16.728 46.1806 16.7762C46.3124 16.8099 46.6418 16.6187 46.7591 16.4853C46.9712 16.3986 46.9856 16.1784 46.9519 16.1013C46.9856 15.9599 47.066 15.9053 47.1447 16.0033C47.1768 16.1784 47.3006 16.2202 47.4339 16.1961C47.6026 16.082 47.932 16.0129 48.1088 16.0997C48.2695 16.1093 48.3707 16.1351 48.4944 16.0017C48.5764 15.9021 48.6455 15.8539 48.7836 15.9053C48.7836 15.8121 48.8383 15.7783 48.8816 15.8073C49.0504 15.7703 49.1002 15.6337 49.1709 15.518C49.2239 15.3991 49.2914 15.3718 49.5565 15.4216C49.759 15.4136 49.7445 15.1324 49.7493 15.036C49.6754 15.0215 49.5742 14.9733 49.5565 14.7451C49.5886 14.6021 49.8056 14.5266 49.8457 14.4559C49.9646 14.3547 49.8554 14.3065 49.8457 14.2631C49.8307 14.2119 49.8317 14.1573 49.8486 14.1068C49.8656 14.0562 49.8977 14.012 49.9405 13.9803C50.045 13.9433 50.0032 13.7553 50.0369 13.6911C49.992 13.5786 50.0321 13.5015 50.0369 13.4982C50.1285 13.434 50.1687 13.3793 50.2298 13.3054C50.2924 13.1737 50.1687 13.1592 50.1334 13.2074C50.0466 13.2138 49.8473 13.3038 49.7477 13.2074C49.6529 13.1383 49.6481 13.1512 49.5549 13.2074C49.4424 13.2604 49.5228 13.3167 49.4585 13.3054C49.428 13.3729 49.4071 13.2283 49.3621 13.2074C49.2978 13.0403 49.4071 13.0082 49.4585 13.0146C49.587 12.9391 49.6192 12.8427 49.7477 12.9182C49.9213 13.0628 50.0177 13.0194 50.1334 12.9182C50.2292 12.9037 50.3267 12.9037 50.4226 12.9182C50.5318 12.87 50.6572 12.7736 50.8082 12.7254C50.9159 12.7334 51.0412 12.6241 51.0974 12.5325C51.2324 12.4442 51.3095 12.4313 51.3867 12.4361C51.4734 12.5133 51.5361 12.5052 51.5795 12.4361C51.6855 12.2851 51.7064 12.2385 51.5795 12.1469C51.4606 12.0746 51.3561 12.1421 51.2903 12.2433C51.287 12.3349 51.2662 12.3622 51.1922 12.3397C51.0878 12.3204 51.0203 12.3285 50.903 12.3397C50.8548 12.396 50.7921 12.6306 50.421 12.6306C50.0369 12.6306 49.8795 12.2867 49.8425 12.1485C49.7365 12.1099 49.6947 12.0874 49.6497 11.9557C49.4826 11.8818 49.4408 11.7725 49.3605 11.6648C49.3171 11.5395 49.4199 11.4977 49.4569 11.6648C49.5565 11.7452 49.7011 11.9219 49.7461 11.9557C49.865 12.02 50.045 12.0553 50.1317 12.1485C50.2362 12.2754 50.4001 12.1983 50.5174 12.2449C50.5318 12.081 50.6202 11.9991 50.7102 12.0521C50.8002 12.0682 50.9014 12.0553 50.9994 12.0521C51.0525 11.9862 50.9496 11.8898 50.903 11.8593C50.9629 11.8295 51.0289 11.8141 51.0958 11.8141C51.1627 11.8141 51.2287 11.8295 51.2887 11.8593C51.4365 11.9589 51.9105 11.9316 52.0583 11.9573C52.1435 11.9043 52.1162 11.8577 52.3491 11.8593C52.603 11.9043 52.5629 11.7934 52.542 11.6665C52.5902 11.6166 52.7075 11.6086 52.7348 11.57C52.8328 11.4977 52.8183 11.4302 52.8328 11.2808C52.8039 11.1555 52.5243 11.08 52.4472 11.088C52.4809 10.998 52.5436 10.9916 52.64 10.9916C52.791 10.9916 52.8103 10.9161 52.8328 10.7988C52.7991 10.7522 52.9421 10.7377 53.0256 10.7988C53.0642 10.847 53.1204 10.8743 53.122 10.7988C53.175 10.7088 52.9967 10.5995 52.8328 10.5095C52.7348 10.4485 52.5853 10.4886 52.4472 10.5095C52.3106 10.4629 52.0776 10.0982 52.0615 9.93108C51.9957 9.81056 52.1322 9.83145 52.1595 9.93108C52.2576 9.94072 52.3877 10.14 52.5452 10.1239C52.6629 10.2344 52.7922 10.3319 52.9308 10.4147C53.0272 10.4774 53.0883 10.3681 53.1236 10.3167C53.0754 10.2155 53.1429 10.2155 53.2216 10.2203C53.3084 10.2701 53.3164 10.373 53.3181 10.4131C53.2329 10.373 53.2184 10.3987 53.2216 10.5095C53.2474 10.5385 53.3968 10.6076 53.5109 10.7024C53.5366 10.7425 53.5494 10.8807 53.4145 10.9916C53.2747 11.0735 53.4257 11.1571 53.5109 11.1844C53.5366 11.2921 53.6169 11.2921 53.6073 11.1844C53.6732 11.1555 53.6876 11.0044 53.7053 10.7988C53.7985 10.675 53.8788 10.7297 53.9945 10.7988C54.0733 10.8405 54.1134 10.7988 54.0925 10.9916C54.115 11.2664 54.0459 11.5122 53.8997 11.57C53.8001 11.6215 53.8001 11.8271 53.9961 11.8593C54.2114 11.8834 54.0604 12.0216 53.7069 12.2449C53.4016 12.4859 53.1124 12.2803 53.032 12.2449C52.8649 12.1437 52.4809 12.0874 52.3572 12.0521C52.2351 12.0617 52.0422 12.2947 51.9715 12.3413C51.851 12.4329 51.8912 12.5293 51.9715 12.6322C52.0021 12.6386 52.0278 12.6932 52.2608 12.5341C52.4134 12.4185 52.6062 12.4602 52.7428 12.4377C52.8521 12.4859 52.9083 12.6097 53.0336 12.6306C53.2104 12.6097 53.2923 12.6643 53.4193 12.8234C53.4868 12.9117 53.7599 12.8989 53.9013 12.8234C53.9511 12.7334 53.9929 12.7205 54.0941 12.8234C54.2404 12.8844 54.295 12.7061 54.287 12.6306C54.1857 12.6241 54.1166 12.5406 54.1905 12.5325C54.3512 12.404 54.5007 12.8298 54.5762 13.0146C54.5842 13.2395 54.528 13.8582 54.5762 13.9787C54.6935 14.1458 54.528 14.1056 54.4782 14.0751C54.4171 14.0237 54.3769 13.9273 54.2854 14.0751C54.1841 14.1474 54.2516 14.2422 54.2854 14.2679C54.3898 14.3788 54.4589 14.4222 54.4782 14.6536C54.4316 14.8319 54.4862 14.8882 54.5762 14.8464C54.6517 14.8865 54.679 14.7628 54.769 14.6536C54.7899 14.4623 54.8445 14.4623 54.8654 14.5571C54.9265 14.7371 54.9265 14.9572 54.9618 15.1356C54.9811 15.3413 54.9666 15.4232 55.1546 15.5212C55.3523 15.5598 55.2559 15.6964 55.1546 15.7141C55.1209 15.8073 55.0518 15.8619 55.1546 16.0997C55.2976 16.3841 55.3941 16.2331 55.3475 16.0997C55.386 16.0145 55.3716 15.8635 55.4358 15.6193C55.5355 15.3429 55.439 15.1501 55.3378 14.7516C55.2205 14.4366 55.2334 13.3938 55.2414 12.6322C55.3131 12.0199 55.2799 11.3999 55.1434 10.7988C55.1498 10.5722 55.0888 10.4838 54.9506 10.5095C54.9088 10.4822 54.9024 10.4003 54.8542 10.3167C54.8751 10.1801 54.8333 10.0227 54.8542 9.83467C54.8439 9.70162 54.8113 9.57125 54.7578 9.44903C54.716 9.34458 54.6549 9.28192 54.5649 8.96698C54.475 8.74523 54.2291 8.83522 54.1793 8.87057C54.1745 8.99911 54.1954 9.1839 54.0829 9.2546C53.9061 9.38636 53.9608 9.5133 53.8901 9.44742C53.7551 9.47313 53.7696 9.20479 53.8901 9.06178C53.937 8.97093 53.9695 8.87336 53.9865 8.77255C53.9543 8.63436 53.8113 8.38852 53.6973 8.38691C53.6603 8.33389 53.5559 8.30496 53.408 8.19409C53.2956 8.07197 53.1236 8.13946 52.926 8.09768C52.7476 8.12018 52.6721 8.12018 52.5404 8.00127C52.452 7.9129 52.2318 7.94825 52.1547 7.90326C52.1483 7.7972 52.0728 7.78274 51.8655 7.80685C51.7177 7.80845 51.737 7.64456 51.8655 7.61403C51.9298 7.64456 52.0808 7.63813 52.2511 7.61403C52.4118 7.62367 52.5886 7.60278 52.6368 7.51601C52.6978 7.50637 52.6914 7.43085 52.8296 7.4196C52.9838 7.42121 53.0176 7.31194 53.0256 7.2316C53.0594 7.06449 52.9903 6.98254 52.8328 6.84596C52.7573 6.77687 52.73 6.79776 52.64 6.84596C52.55 6.81222 52.5998 6.90702 52.5436 6.94398C52.4263 6.90863 52.2752 6.86685 52.2543 6.84596C52.1403 6.86685 52.1322 6.75598 52.2543 6.74955C52.4006 6.78972 52.3733 6.70777 52.3524 6.65314C52.3733 6.58405 52.2431 6.53584 52.0615 6.46032C51.8864 6.37034 50.3214 6.39123 49.5549 6.3623C48.7547 6.41854 48.8929 6.62422 48.88 6.84435C48.8929 6.98093 48.7885 7.05646 48.6872 7.13519C48.639 7.19464 48.5555 7.19464 48.4944 7.13519C48.4478 7.09984 48.4799 6.9954 48.4944 6.94237C48.5346 6.96808 48.5908 6.9263 48.4944 6.84435C48.4253 6.73509 48.104 6.91184 47.8195 7.03717C47.6219 7.15929 47.5609 7.46941 47.6267 7.71204C47.6701 7.87915 47.699 8.05912 47.7231 8.19409C47.8694 8.2439 47.9802 8.18927 48.1088 8.09768C48.1859 8.02377 48.2887 7.92896 48.3996 8.00127C48.578 8.13303 48.7419 7.96753 48.7836 7.90326C48.7627 7.72008 48.7836 7.65902 48.8816 7.51762C48.9491 7.42603 49.0504 7.41317 49.0745 7.42121C49.1339 7.43888 49.0857 7.56261 49.0745 7.61403C48.9893 7.87755 49.1339 7.89201 49.2673 7.90326C49.3765 7.85826 49.4601 7.87755 49.5565 7.61403C49.632 7.58028 49.6899 7.61081 49.6529 7.71044C49.5983 7.73614 49.5886 7.78274 49.5549 7.81006V7.81006Z" fill="#121212"/>
        <path d="M52.0607 9.4486C52.1371 9.41677 52.219 9.40039 52.3017 9.40039C52.3845 9.40039 52.4664 9.41677 52.5428 9.4486C52.6601 9.55625 52.6118 9.66552 52.4463 9.64142C52.3501 9.64909 52.2534 9.64909 52.1571 9.64142C52.051 9.65909 51.8566 9.53536 52.0607 9.4486V9.4486ZM54.7618 10.8947C54.8084 10.9221 54.8438 10.9349 54.8582 11.0876C54.9402 11.1824 55.0029 11.3945 54.9547 11.4732C54.8518 11.4636 54.7956 11.3463 54.7618 11.2804C54.7136 11.1422 54.6654 10.9831 54.7618 10.8947V10.8947ZM54.471 11.9553C54.4517 11.8604 54.479 11.7721 54.569 11.8572C54.7281 11.8685 54.7683 11.9215 54.7618 12.0501C54.7683 12.1416 54.6927 12.2043 54.6638 12.3393C54.7184 12.3827 54.7329 12.471 54.7618 12.5321C54.8438 12.5819 54.8293 12.6703 54.8582 12.7249C54.8237 12.8838 54.8237 13.0481 54.8582 13.207C54.8181 13.2536 54.7281 13.2471 54.7618 13.1106C54.7409 12.9435 54.7329 12.8004 54.6638 12.6285C54.6092 12.5385 54.651 12.4293 54.5674 12.3377C54.569 12.267 54.4388 12.0758 54.471 11.9553V11.9553ZM54.9547 15.7152C54.9482 15.6911 54.8438 15.6365 54.8582 15.7152C54.8181 15.7474 54.8374 15.7474 54.8582 15.8116C54.9048 15.8293 54.9386 15.8422 54.9547 15.7152ZM50.8089 13.1122C50.8443 13.1347 50.8861 13.0929 50.9054 13.0158C50.8761 12.9809 50.8439 12.9486 50.8089 12.9194C50.7431 12.9515 50.7013 12.9917 50.7109 13.0158C50.7013 13.0929 50.7431 13.1347 50.8089 13.1122ZM50.4233 13.4014C50.3687 13.3307 50.3895 13.2696 50.5197 13.305C50.5824 13.2953 50.7736 13.3934 50.8105 13.4978C50.7881 13.5299 50.7591 13.5541 50.7125 13.5942C50.6643 13.5782 50.6434 13.6199 50.6161 13.5942C50.6 13.6842 50.4924 13.7983 50.4233 13.6922C50.2722 13.6601 50.2449 13.6553 50.3253 13.5942C50.3687 13.5026 50.396 13.4255 50.4233 13.4014ZM50.8089 17.065C50.8748 17.0923 50.8973 17.0602 50.9054 17.065C50.8973 16.9862 50.8748 16.9557 50.8089 16.9686C50.8218 16.9557 50.8009 16.9862 50.8089 17.065C50.8218 17.0923 50.8009 17.0602 50.8089 17.065ZM50.4233 15.7152C50.4988 15.651 50.6081 15.5754 50.6161 15.8116C50.6081 15.9595 50.6563 16.6472 50.4233 16.6793C50.2176 16.6456 50.253 16.2969 50.2305 16.1025C50.2658 15.9804 50.3879 15.7875 50.4233 15.7152ZM55.6295 16.9686C55.6472 17.0361 55.6263 17.3044 55.726 17.4506C55.914 17.5792 56.1003 17.5502 56.1116 17.4506C56.2096 17.3317 55.9284 17.0216 55.8224 16.9686C55.7372 16.8593 55.7018 16.8722 55.6295 16.9686V16.9686ZM56.5937 17.547C56.6965 17.5727 56.9793 17.5052 56.9793 17.645C56.9922 17.8346 56.8556 17.9102 56.6901 17.8379C56.4571 17.8122 56.4571 17.6547 56.5937 17.547Z" fill="#121212"/>
    </g>
    <defs>
        <clipPath id="clip0">
            <rect width="102" height="47.532" fill="white"/>
        </clipPath>
    </defs>
</svg>
