<svg width="40" height="41" viewBox="0 0 40 41" fill="none" xmlns="http://www.w3.org/2000/svg">
    <path d="M13.8833 20.4481C13.3126 21.7903 13.2196 23.0733 13.6783 23.3101C13.9933 23.4771 14.488 23.101 14.9508 22.4117C15.1348 23.1621 15.5892 23.8427 16.2382 24.3881C15.5575 24.6396 15.1136 25.0497 15.1136 25.5148C15.1136 26.2779 16.3163 26.8971 17.8002 26.8971C19.1382 26.8971 20.2457 26.3941 20.4509 25.7346C20.5058 25.7326 20.7172 25.7326 20.7701 25.7346C20.975 26.3942 22.0849 26.8971 23.423 26.8971C24.9068 26.8971 26.1095 26.2779 26.1095 25.5148C26.1095 25.0497 25.6655 24.6396 24.9849 24.3881C25.6318 23.8427 26.0883 23.1621 26.2701 22.4117C26.7329 23.1009 27.2277 23.4771 27.5426 23.3101C28.0012 23.0733 27.9104 21.7904 27.3396 20.4481C26.8914 19.393 26.2827 18.6153 25.8177 18.4435C25.8262 18.3779 25.8283 18.3081 25.8283 18.2405C25.8283 17.8325 25.7141 17.4566 25.5218 17.1505C25.5239 17.1272 25.5239 17.1014 25.5239 17.0783C25.5239 16.8898 25.4795 16.7146 25.4035 16.5624C25.2873 13.8184 23.5011 11.6416 20.6115 11.6416C17.7198 11.6416 15.9336 13.8185 15.8174 16.5624C15.7392 16.7147 15.6948 16.8898 15.6948 17.0783C15.6948 17.1014 15.697 17.1272 15.697 17.1505C15.5067 17.4566 15.3927 17.8325 15.3927 18.2405C15.3927 18.3081 15.3947 18.3758 15.401 18.4435C14.9402 18.6153 14.3294 19.393 13.8833 20.4481Z" fill="#2A8AB8"/>
    <path d="M25.4109 1.03535C23.4103 0.473926 21.7258 1.73566 21.1664 3.72173C20.6094 5.7078 21.3886 7.66354 23.3892 8.22507C25.3889 8.78954 38.0684 13.1852 38.5216 27.5615C38.7757 26.925 38.9968 26.2697 39.187 25.5955C42.1646 15.008 35.9959 4.01326 25.4109 1.03535Z" fill="#4BAB48"/>
    <path d="M34.7132 28.8856C33.295 27.3888 31.217 27.0526 29.707 28.4833C28.1955 29.9116 17.9171 38.538 5.34473 31.5508C5.76106 32.0942 6.21088 32.6209 6.69034 33.1296C14.249 41.1174 26.8505 41.4662 34.8383 33.9076C36.3502 32.4773 36.1289 30.3838 34.7132 28.8856Z" fill="#ED1C24"/>
    <path d="M8.57764 23.6382C8.12602 21.6102 5.99419 8.36022 18.4401 1.15234C17.7609 1.23216 17.0785 1.3449 16.3959 1.49901C5.66173 3.88923 -1.1023 14.5283 1.28792 25.2624C1.74145 27.2909 3.65086 28.1787 5.66331 27.7301C7.67553 27.2817 9.02869 25.6684 8.57764 23.6382Z" fill="#FEDE0D"/>
</svg>
