<svg width="72" height="18" viewBox="0 0 72 18" fill="none" xmlns="http://www.w3.org/2000/svg">
    <g clip-path="url(#clip0)">
        <path d="M2.26722 0.00806775H17.7523L17.0955 5.07379H1.63738L2.26722 0.00806775V0.00806775ZM1.35845 6.93631H16.8616L16.3846 11.0573H6.69419L6.44216 13.0278H16.1507L15.5479 17.7336H0.00878906L1.35845 6.93631V6.93631ZM18.0042 5.07379C18.0042 5.07379 18.1122 3.34622 18.5441 2.44645C18.949 1.60066 19.4889 0.98882 20.3977 0.475949C20.9376 0.188022 21.9003 0.00806775 21.9003 0.00806775H49.7933C49.7933 0.00806775 50.963 0.0260632 51.4668 0.233011C52.0067 0.457954 52.7895 0.79087 53.2034 1.79861C53.6083 2.76137 53.5274 3.07629 53.5274 4.03905C53.5274 4.98381 53.5003 5.07379 53.5003 5.07379H18.0042ZM17.7523 6.9813H32.0228C32.0228 6.9813 33.2914 6.9813 33.8763 7.33221C34.4881 7.73711 34.7671 8.23199 34.947 9.01479C35.1179 9.79759 34.6411 13.7476 34.3622 14.7103C34.0563 15.6551 33.6963 16.5459 32.2206 17.2837C30.8981 17.9585 28.8915 17.7336 28.8915 17.7336H16.5646L17.2935 13.0278H28.8376L29.0715 11.0303H21.1085C21.1085 11.0303 19.813 11.2102 18.5983 10.1576C17.8604 9.52775 17.7794 8.56499 17.7344 8.1421C17.6803 7.89907 17.7523 6.9813 17.7523 6.9813V6.9813ZM36.3146 6.9813H53.1493C53.1493 6.9813 52.9964 8.92481 52.5375 9.61764C52.0785 10.3375 51.6736 10.7244 50.9088 10.8952C50.126 11.0752 48.9563 11.0752 48.9563 11.0752H41.6322L40.8674 17.7335H34.9919L36.3146 6.9813ZM54.2921 5.11877H71.7836C71.7836 5.11877 72.1165 3.58916 71.9366 2.62641C71.7566 1.66365 71.3247 1.01581 70.6139 0.547931C69.6782 -0.108903 67.9687 0.00806775 67.9956 0.00806775H55.0029L54.2921 5.11877V5.11877ZM54.0672 6.9813H59.8616L58.539 17.7336H52.7894L54.0672 6.9813V6.9813ZM65.7101 7.02629H71.4507L70.1281 17.7336H64.4146L65.7101 7.02629V7.02629Z" fill="#CC0000"/>
    </g>
    <defs>
        <clipPath id="clip0">
            <rect width="72" height="17.7696" fill="white"/>
        </clipPath>
    </defs>
</svg>
