<svg width="48" height="24" viewBox="0 0 48 24" fill="none" xmlns="http://www.w3.org/2000/svg">
    <path d="M46.4038 17.5582C47.319 15.8393 47.7894 13.9187 47.772 11.9715C47.7815 5.39667 42.4266 0.0418052 35.8005 0C29.4499 0.0399049 24.2433 5.02612 23.829 11.2874C23.8632 10.9378 23.8309 10.571 23.829 10.2613H12.7696V15.2779L16.3041 15.3919C15.2609 16.6328 13.7008 17.4594 11.9715 17.4442C11.2516 17.4487 10.5379 17.3102 9.87188 17.0368C9.20586 16.7634 8.60075 16.3605 8.09165 15.8514C7.58256 15.3423 7.17962 14.7372 6.9062 14.0711C6.63278 13.4051 6.49433 12.6914 6.49887 11.9715C6.49317 8.98621 8.93497 6.54061 11.9715 6.4988C13.9915 6.54061 15.772 7.66175 16.7601 9.34916L22.3468 6.15676C21.3184 4.30297 19.8156 2.75591 17.9925 1.67405C16.1694 0.5922 14.0914 0.0144527 11.9715 0C5.34543 0.0399049 -0.00943421 5.39477 6.69609e-05 11.9715C-0.00520476 13.5451 0.300848 15.1042 0.900604 16.559C1.50036 18.0138 2.38197 19.3356 3.49468 20.4483C4.60738 21.5611 5.9292 22.4427 7.38403 23.0424C8.83886 23.6422 10.398 23.9482 11.9715 23.943C18.3126 23.9582 23.5117 18.989 23.943 12.7696C24.2604 18.989 29.4594 23.9601 35.8005 23.943C38.1359 23.9582 40.2945 23.3026 42.0713 22.1187L43.5535 23.6009L48 19.1544L46.4038 17.5582Z" fill="white"/>
    <path d="M41.2745 12.7698L40.1343 11.7437L35.9158 16.1902L37.1699 17.3304C36.7186 17.4118 36.2604 17.4499 35.8018 17.4444C32.8089 17.4596 30.3652 15.0159 30.3291 11.9717C30.3535 10.5279 30.938 9.15004 31.959 8.12896C32.9801 7.10789 34.358 6.52346 35.8018 6.49902C38.8384 6.54083 41.2821 8.98643 41.2745 11.9717C41.2821 12.2586 41.2631 12.5152 41.2745 12.7698Z" fill="#121212"/>
</svg>
