<svg width="82" height="24" viewBox="0 0 82 24" fill="none" xmlns="http://www.w3.org/2000/svg">
    <g opacity="0.8">
        <mask id="path-1-outside-1" maskUnits="userSpaceOnUse" x="0" y="0" width="82" height="24" fill="black">
            <rect fill="white" width="82" height="24"/>
            <path d="M81 23.3349H74.1778L73.828 20.1279H64.965L63.0408 23.2766H55.344L55.1691 20.1279H46.5394L44.4402 23.3349H32.1953C28.2303 23.3349 24.9067 20.886 24.3236 17.4457C24.0904 15.9297 24.0321 14.4137 24.2653 12.8976H24.207L21.2332 23.3349H14.4111L9.97959 12.6644L7.06414 23.3349H1L5.72303 6.19208H3.62391L5.02332 1.1192H12.6035L17.9096 13.5973L20.0087 6.13377H17.9096L19.3673 1.06089H27.4723L25.2566 8.81599H25.3149C26.0729 6.89179 27.5889 4.96759 29.5131 3.56818C31.7289 1.87721 34.2945 0.944269 36.8018 1.00258L45.9563 1.06089L43.7988 8.75768H37.9096L38.6093 6.3087L37.2682 6.25039C35.8105 6.25039 34.1778 7.29995 32.895 9.10753C31.6706 10.7985 30.9125 12.8393 30.9125 14.4137C30.9125 15.8131 31.379 16.9209 32.3703 17.6207C33.07 18.2037 34.5277 18.3787 34.8775 18.3787L41.9329 18.5536L49.105 6.19208H47.1224L48.5219 1.1192H60.8834L61.6997 15.7548L67.7055 6.19208H65.8396L67.2974 1.1192H79.484L81 23.3349ZM75.1108 22.3437H79.8921L78.4927 2.11045H68.0554L67.1808 5.14252H69.5714L60.8834 18.9035L59.8921 2.11045H49.2799L48.4052 5.14252H50.8542L42.516 19.5449L34.2362 19.4282V19.3699C33.5364 19.3116 32.4286 19.0201 31.6706 18.4953C30.8542 17.8539 29.863 16.6294 29.863 14.472C29.863 12.6061 30.6793 10.3903 32.0204 8.52444C33.5364 6.48363 35.4606 5.25914 37.2682 5.25914L39.9504 5.31745L39.2507 7.82474H43.0408L44.6152 2.11045L36.8018 2.05214H36.7434C34.5277 2.05214 32.1953 2.86847 30.1545 4.3845C28.2886 5.78392 26.7726 7.70812 26.1312 9.63232L25.9563 10.0988L24.0321 9.5157L26.1895 2.11045H20.1837L19.309 5.14252H21.4082L18.1429 16.6294L11.9621 2.16876H5.83965L4.96501 5.14252H7.06414L2.34111 22.3437H6.30612L9.80466 9.57401L15.1108 22.3437H20.4169L23.449 11.7314L25.3732 12.1979L25.3149 12.6644C25.0233 14.1804 25.0233 15.7548 25.3149 17.3291C25.7813 20.2446 28.6968 22.402 32.1953 22.402H43.9155L46.0146 19.195H56.1603L56.3353 22.3437H62.516L64.4402 19.195H74.7609L75.1108 22.3437ZM56.0437 15.8714H48.1137L55.6356 4.50112L56.0437 15.8714ZM50.0379 14.8218H54.9942L54.7609 7.64981L50.0379 14.8218ZM74.8192 15.7548H66.9475L74.4694 4.3845L74.8192 15.7548ZM68.8717 14.7635H73.828L73.5947 7.64981L68.8717 14.7635Z"/>
        </mask>
        <path d="M81 23.3349H74.1778L73.828 20.1279H64.965L63.0408 23.2766H55.344L55.1691 20.1279H46.5394L44.4402 23.3349H32.1953C28.2303 23.3349 24.9067 20.886 24.3236 17.4457C24.0904 15.9297 24.0321 14.4137 24.2653 12.8976H24.207L21.2332 23.3349H14.4111L9.97959 12.6644L7.06414 23.3349H1L5.72303 6.19208H3.62391L5.02332 1.1192H12.6035L17.9096 13.5973L20.0087 6.13377H17.9096L19.3673 1.06089H27.4723L25.2566 8.81599H25.3149C26.0729 6.89179 27.5889 4.96759 29.5131 3.56818C31.7289 1.87721 34.2945 0.944269 36.8018 1.00258L45.9563 1.06089L43.7988 8.75768H37.9096L38.6093 6.3087L37.2682 6.25039C35.8105 6.25039 34.1778 7.29995 32.895 9.10753C31.6706 10.7985 30.9125 12.8393 30.9125 14.4137C30.9125 15.8131 31.379 16.9209 32.3703 17.6207C33.07 18.2037 34.5277 18.3787 34.8775 18.3787L41.9329 18.5536L49.105 6.19208H47.1224L48.5219 1.1192H60.8834L61.6997 15.7548L67.7055 6.19208H65.8396L67.2974 1.1192H79.484L81 23.3349ZM75.1108 22.3437H79.8921L78.4927 2.11045H68.0554L67.1808 5.14252H69.5714L60.8834 18.9035L59.8921 2.11045H49.2799L48.4052 5.14252H50.8542L42.516 19.5449L34.2362 19.4282V19.3699C33.5364 19.3116 32.4286 19.0201 31.6706 18.4953C30.8542 17.8539 29.863 16.6294 29.863 14.472C29.863 12.6061 30.6793 10.3903 32.0204 8.52444C33.5364 6.48363 35.4606 5.25914 37.2682 5.25914L39.9504 5.31745L39.2507 7.82474H43.0408L44.6152 2.11045L36.8018 2.05214H36.7434C34.5277 2.05214 32.1953 2.86847 30.1545 4.3845C28.2886 5.78392 26.7726 7.70812 26.1312 9.63232L25.9563 10.0988L24.0321 9.5157L26.1895 2.11045H20.1837L19.309 5.14252H21.4082L18.1429 16.6294L11.9621 2.16876H5.83965L4.96501 5.14252H7.06414L2.34111 22.3437H6.30612L9.80466 9.57401L15.1108 22.3437H20.4169L23.449 11.7314L25.3732 12.1979L25.3149 12.6644C25.0233 14.1804 25.0233 15.7548 25.3149 17.3291C25.7813 20.2446 28.6968 22.402 32.1953 22.402H43.9155L46.0146 19.195H56.1603L56.3353 22.3437H62.516L64.4402 19.195H74.7609L75.1108 22.3437ZM56.0437 15.8714H48.1137L55.6356 4.50112L56.0437 15.8714ZM50.0379 14.8218H54.9942L54.7609 7.64981L50.0379 14.8218ZM74.8192 15.7548H66.9475L74.4694 4.3845L74.8192 15.7548ZM68.8717 14.7635H73.828L73.5947 7.64981L68.8717 14.7635Z" fill="white"/>
        <path d="M81 23.3349H74.1778L73.828 20.1279H64.965L63.0408 23.2766H55.344L55.1691 20.1279H46.5394L44.4402 23.3349H32.1953C28.2303 23.3349 24.9067 20.886 24.3236 17.4457C24.0904 15.9297 24.0321 14.4137 24.2653 12.8976H24.207L21.2332 23.3349H14.4111L9.97959 12.6644L7.06414 23.3349H1L5.72303 6.19208H3.62391L5.02332 1.1192H12.6035L17.9096 13.5973L20.0087 6.13377H17.9096L19.3673 1.06089H27.4723L25.2566 8.81599H25.3149C26.0729 6.89179 27.5889 4.96759 29.5131 3.56818C31.7289 1.87721 34.2945 0.944269 36.8018 1.00258L45.9563 1.06089L43.7988 8.75768H37.9096L38.6093 6.3087L37.2682 6.25039C35.8105 6.25039 34.1778 7.29995 32.895 9.10753C31.6706 10.7985 30.9125 12.8393 30.9125 14.4137C30.9125 15.8131 31.379 16.9209 32.3703 17.6207C33.07 18.2037 34.5277 18.3787 34.8775 18.3787L41.9329 18.5536L49.105 6.19208H47.1224L48.5219 1.1192H60.8834L61.6997 15.7548L67.7055 6.19208H65.8396L67.2974 1.1192H79.484L81 23.3349ZM75.1108 22.3437H79.8921L78.4927 2.11045H68.0554L67.1808 5.14252H69.5714L60.8834 18.9035L59.8921 2.11045H49.2799L48.4052 5.14252H50.8542L42.516 19.5449L34.2362 19.4282V19.3699C33.5364 19.3116 32.4286 19.0201 31.6706 18.4953C30.8542 17.8539 29.863 16.6294 29.863 14.472C29.863 12.6061 30.6793 10.3903 32.0204 8.52444C33.5364 6.48363 35.4606 5.25914 37.2682 5.25914L39.9504 5.31745L39.2507 7.82474H43.0408L44.6152 2.11045L36.8018 2.05214H36.7434C34.5277 2.05214 32.1953 2.86847 30.1545 4.3845C28.2886 5.78392 26.7726 7.70812 26.1312 9.63232L25.9563 10.0988L24.0321 9.5157L26.1895 2.11045H20.1837L19.309 5.14252H21.4082L18.1429 16.6294L11.9621 2.16876H5.83965L4.96501 5.14252H7.06414L2.34111 22.3437H6.30612L9.80466 9.57401L15.1108 22.3437H20.4169L23.449 11.7314L25.3732 12.1979L25.3149 12.6644C25.0233 14.1804 25.0233 15.7548 25.3149 17.3291C25.7813 20.2446 28.6968 22.402 32.1953 22.402H43.9155L46.0146 19.195H56.1603L56.3353 22.3437H62.516L64.4402 19.195H74.7609L75.1108 22.3437ZM56.0437 15.8714H48.1137L55.6356 4.50112L56.0437 15.8714ZM50.0379 14.8218H54.9942L54.7609 7.64981L50.0379 14.8218ZM74.8192 15.7548H66.9475L74.4694 4.3845L74.8192 15.7548ZM68.8717 14.7635H73.828L73.5947 7.64981L68.8717 14.7635Z" stroke="white" stroke-width="0.6" mask="url(#path-1-outside-1)"/>
    </g>
</svg>
