<svg width="26" height="62" viewBox="0 0 26 62" fill="none" xmlns="http://www.w3.org/2000/svg">
    <rect width="25.39" height="61.0947" rx="7" fill="white"/>
    <path d="M20.347 0H16.0072C16.0498 0.0506106 16.1112 0.105014 16.1858 0.153965C16.7225 0.505513 17.5366 1.35238 17.6665 1.69409C17.8619 2.20861 17.8179 2.89203 17.542 3.62998C17.3834 4.05359 17.3167 4.43263 17.3615 4.65594C17.4459 5.07801 17.0314 5.97276 16.5406 6.4279C16.3636 6.59194 16.1128 6.93282 15.9833 7.18552C15.8537 7.4381 15.5322 7.87866 15.269 8.16431C15.0059 8.44995 14.8081 8.77495 14.8301 8.88649C14.8519 8.99814 15.1651 9.24834 15.526 9.44261C15.8871 9.63687 16.4275 10.0181 16.7273 10.2897C17.0268 10.5614 17.6316 11.0378 18.0712 11.3485C19.6508 12.4651 20.4088 14.3745 20.4166 17.2568C20.4201 18.534 21.043 21.5276 21.4893 22.4117C22.1005 23.6226 22.3218 24.2901 22.5131 25.4985C22.7587 27.0513 22.7662 27.0688 23.2599 27.2751C23.7318 27.4723 24.954 28.4645 24.954 28.6505C24.954 28.7145 25.0749 28.9361 25.2225 29.1432L25.3872 29.3739V5.03961C25.3868 2.25626 23.1304 0 20.347 0V0ZM25.3116 33.7462C25.3116 33.8067 25.0459 34.1467 24.7212 34.5021C22.4569 36.9793 18.5817 36.4274 17.1592 33.4247C16.815 32.6979 16.7791 32.5153 16.7791 31.4886C16.7791 30.5082 16.8224 30.2624 17.0988 29.6724C17.5408 28.7294 18.3845 27.8656 19.3067 27.4114C19.7263 27.2049 20.0945 26.9961 20.1243 26.9472C20.1544 26.8985 19.7757 26.0437 19.2826 25.0474C18.1467 22.7521 18.0122 22.3417 17.4968 19.6C17.2637 18.3609 17.0491 17.28 17.0193 17.1979C16.9239 16.9337 16.5905 17.0367 15.7659 17.5848L14.9592 18.121L14.2281 19.9727C13.8262 20.991 13.4971 21.9755 13.4971 22.1603C13.4971 22.3683 13.6154 22.6068 13.8068 22.7858C14.2846 23.2323 14.4135 23.5601 15.2233 26.3887C15.8199 28.4724 15.9529 29.0812 15.8579 29.2904C15.7665 29.4904 15.8258 29.9296 16.1005 31.0885C16.5044 32.7939 16.6551 33.6976 16.8434 35.5458C17.0344 37.422 17.2363 38.0164 18.3233 39.9016C19.046 41.1546 19.2679 41.9098 19.7753 44.8434C20.0081 46.1895 20.2431 47.3744 20.2977 47.4763C20.3525 47.5782 20.589 47.947 20.8234 48.2953C21.4679 49.2533 21.5653 49.6941 21.3335 50.616C21.2276 51.0372 21.1079 51.6716 21.0673 52.026C20.9859 52.7353 21.2426 54.4532 21.5341 55.151C21.6326 55.3865 21.686 55.6822 21.6532 55.8083C21.6201 55.9344 21.7581 56.5647 21.9594 57.2089C22.5891 59.2236 22.5612 60.0782 21.836 60.9941C21.7061 61.1581 21.6363 61.2514 21.5946 61.3143C23.7745 60.7591 25.3868 58.7833 25.3868 56.4306V33.6449C25.343 33.6611 25.3116 33.7001 25.3116 33.7462V33.7462Z" fill="#D30529"/>
    <path d="M19.6617 56.7009C19.7206 55.7492 19.701 55.4352 19.5723 55.2803C19.4746 55.1625 19.4054 54.7952 19.4026 54.3785C19.3983 53.7472 19.3136 53.5114 18.5722 52.0718C17.7811 50.5351 17.7528 50.4512 17.8934 50.0626C18.0244 49.6999 18.0058 49.578 17.7192 48.9171C17.4333 48.2579 17.3047 48.1142 16.539 47.5975C15.0536 46.5951 13.8598 45.573 11.8718 43.6025C9.6524 41.4019 7.80968 38.9822 6.10089 36.0243C5.50755 34.9974 5.46108 34.9548 4.93696 34.952C4.54346 34.95 4.07089 34.6068 4.07267 34.3237C4.07314 34.2417 3.59157 33.1809 3.0025 31.9667C1.47375 28.8156 1.34302 28.1445 1.81048 25.8501C2.08795 24.4896 2.1401 24.3673 2.71875 23.7267C3.33307 23.0469 3.23671 22.8555 2.23054 22.7561C0.886337 22.623 0.900086 22.6314 0.621431 21.7689C0.484415 21.3447 0.37229 20.8639 0.37229 20.7006C0.37229 20.1593 0.986966 18.4462 1.83206 16.6322C2.29051 15.6477 2.8784 14.3052 3.13833 13.6488C4.06319 11.3129 5.33912 9.44513 6.36935 8.91947C6.78123 8.70932 7.58175 8.55132 9.964 8.20961C11.2901 8.01938 11.3835 7.92302 11.5739 6.54859C11.6848 5.74925 11.6737 5.62397 11.4644 5.28498C11.3134 5.04082 11.2319 4.6952 11.2319 4.29956C11.2319 3.7432 11.263 3.6741 11.5899 3.50508C11.9059 3.34175 11.948 3.25795 11.948 2.79191C11.948 1.67705 12.1729 1.05633 12.7986 0.447819C12.948 0.303224 13.093 0.154211 13.2335 0.000976562H5.03972C2.2565 0.000976562 0 2.25736 0 5.0407V56.4319C0 59.2151 2.25638 61.4718 5.03972 61.4718H20.0315C19.9809 61.3602 19.8751 61.1796 19.7525 61.0007C19.4114 60.5042 19.4151 60.6786 19.6617 56.7009V56.7009Z" fill="#0E499D"/>
    <path d="M1.79199 50.126H3.82934L5.00464 55.3216H5.02431V50.126H6.7286V58.557H4.73049L3.51595 53.3495H3.49628V58.557H1.79199V50.126ZM7.61067 50.126H10.3632C11.6659 50.126 12.2731 50.9643 12.2731 52.2277C12.2731 53.125 11.9498 53.9282 11.1762 54.1169V54.1405C12.0969 54.2467 12.4692 55.1914 12.4692 56.0651C12.4692 57.5293 11.8815 58.5566 10.3632 58.5566H7.61067V50.126V50.126ZM9.43253 53.4323H9.87345C10.2456 53.4323 10.4514 53.0308 10.4514 52.5821C10.4514 52.1097 10.2456 51.7083 9.87345 51.7083H9.43253V53.4323ZM9.43253 56.9746H9.94196C10.275 56.9746 10.5884 56.6204 10.5884 55.9354C10.5884 55.286 10.2749 54.92 9.94196 54.92H9.43253V56.9746V56.9746ZM14.2824 50.126H16.5744L18.2787 58.557H16.3392L16.1531 57.081H14.7035L14.5175 58.557H12.5777L14.2824 50.126V50.126ZM15.438 51.8499H15.4186L14.919 55.4279H15.9376L15.438 51.8499Z" fill="white"/>
</svg>
