<svg width="32" height="36" viewBox="0 0 32 36" fill="none" xmlns="http://www.w3.org/2000/svg">
    <g opacity="0.8">
        <path d="M16.0009 20.59C21.4986 20.59 25.9709 16.1178 25.9709 10.62C25.9709 5.12223 21.4986 0.65 16.0009 0.65C10.5031 0.65 6.03086 5.12223 6.03086 10.62C6.03086 16.1178 10.5031 20.59 16.0009 20.59ZM16.0009 2.28854C20.5947 2.28854 24.3323 6.02622 24.3323 10.62C24.3323 15.2138 20.5947 18.9515 16.0009 18.9515C11.4071 18.9515 7.6694 15.2138 7.6694 10.62C7.6694 6.02622 11.4071 2.28854 16.0009 2.28854Z" fill="white" stroke="white" stroke-width="0.7"/>
        <path d="M24.2441 22.1729H7.75586C3.80825 22.1729 0.65 25.6788 0.65 29.9204V34.752C0.65 35.1739 0.969387 35.5713 1.42857 35.5713H30.5714C31.0306 35.5713 31.35 35.1739 31.35 34.752V29.9204C31.35 25.6788 28.1917 22.1729 24.2441 22.1729ZM29.7929 33.9327H29.7623H29.7079H29.6536H29.5992H29.5449H29.4906H29.4363H29.382H29.3276H29.2733H29.219H29.1648H29.1105H29.0562H29.0019H28.9476H28.8934H28.8391H28.7848H28.7306H28.6763H28.6221H28.5678H28.5136H28.4594H28.4051H28.3509H28.2967H28.2425H28.1883H28.1341H28.0799H28.0257H27.9715H27.9173H27.8631H27.8089H27.7547H27.7006H27.6464H27.5922H27.538H27.4839H27.4297H27.3756H27.3214H27.2673H27.2131H27.159H27.1048H27.0507H26.9966H26.9424H26.8883H26.8342H26.7801H26.7259H26.6718H26.6177H26.5636H26.5095H26.4554H26.4013H26.3472H26.2931H26.239H26.1849H26.1308H26.0767H26.0226H25.9685H25.9144H25.8603H25.8062H25.7522H25.6981H25.644H25.5899H25.5358H25.4818H25.4277H25.3736H25.3195H25.2655H25.2114H25.1573H25.1033H25.0492H24.9951H24.9411H24.887H24.8329H24.7789H24.7248H24.6708H24.6167H24.5626H24.5086H24.4545H24.4005H24.3464H24.2923H24.2383H24.1842H24.1302H24.0761H24.022H23.968H23.9139H23.8599H23.8058H23.7517H23.6977H23.6436H23.5896H23.5355H23.4814H23.4274H23.3733H23.3192H23.2652H23.2111H23.157H23.103H23.0489H22.9948H22.9407H22.8867H22.8326H22.7785H22.7244H22.6704H22.6163H22.5622H22.5081H22.454H22.3999H22.3458H22.2918H22.2377H22.1836H22.1295H22.0754H22.0213H21.9672H21.913H21.8589H21.8048H21.7507H21.6966H21.6425H21.5884H21.5342H21.4801H21.426H21.3718H21.3177H21.2636H21.2094H21.1553H21.1011H21.047H20.9928H20.9387H20.8845H20.8304H20.7762H20.722H20.6678H20.6137H20.5595H20.5053H20.4511H20.3969H20.3427H20.2885H20.2343H20.1801H20.1259H20.0717H20.0175H19.9632H19.909H19.8548H19.8005H19.7463H19.6921H19.6378H19.5835H19.5293H19.475H19.4207H19.3665H19.3122H19.2579H19.2036H19.1493H19.095H19.0407H18.9864H18.9321H18.8778H18.8234H18.7691H18.7148H18.6604H18.6061H18.5517H18.4974H18.443H18.3886H18.3343H18.2799H18.2255H18.1711H18.1167H18.0623H18.0079H17.9534H17.899H17.8446H17.7901H17.7357H17.6813H17.6268H17.5723H17.5179H17.4634H17.4089H17.3544H17.2999H17.2454H17.1909H17.1364H17.0818H17.0273H16.9728H16.9182H16.8636H16.8091H16.7545H16.6999H16.6453H16.5907H16.5361H16.4815H16.4269H16.3723H16.3177H16.263H16.2084H16.1537H16.099H16.0444H15.9897H15.935H15.8803H15.8256H15.7709H15.7162H15.6614H15.6067H15.5519H15.4972H15.4424H15.3876H15.3328H15.278H15.2232H15.1684H15.1136H15.0588H15.0039H14.9491H14.8942H14.8394H14.7845H14.7296H14.6747H14.6198H14.5649H14.5099H14.455H14.4001H14.3451H14.2901H14.2352H14.1802H14.1252H14.0702H14.0152H13.9601H13.9051H13.8501H13.795H13.7399H13.6849H13.6298H13.5747H13.5196H13.4644H13.4093H13.3542H13.299H13.2438H13.1887H13.1335H13.0783H13.0231H12.9679H12.9126H12.8574H12.8021H12.7469H12.6916H12.6363H12.581H12.5257H12.4704H12.415H12.3597H12.3043H12.2489H12.1936H12.1382H12.0828H12.0273H11.9719H11.9165H11.861H11.8055H11.75H11.6946H11.639H11.5835H11.528H11.4724H11.4169H11.3613H11.3057H11.2501H11.1945H11.1389H11.0833H11.0276H10.972H10.9163H10.8606H10.8049H10.7492H10.6934H10.6377H10.5819H10.5262H10.4704H10.4146H10.3588H10.3029H10.2471H10.1913H10.1354H10.0795H10.0236H9.9677H9.91177H9.85583H9.79988H9.74391H9.68793H9.63193H9.57592H9.5199H9.46386H9.4078H9.35173H9.29564H9.23954H9.18343H9.1273H9.07115H9.01499H8.95881H8.90262H8.84642H8.79019H8.73396H8.6777H8.62144H8.56515H8.50885H8.45254H8.39621H8.33986H8.2835H8.22712H8.17072H8.11431H8.05788H8.00144H7.94498H7.88851H7.83201H7.77551H7.71898H7.66244H7.60588H7.54931H7.49272H7.43611H7.37948H7.32284H7.26618H7.20951H7.15282H7.09611H7.03938H6.98264H6.92588H6.8691H6.8123H6.75549H6.69866H6.64181H6.58495H6.52807H6.47117H6.41425H6.35731H6.30036H6.24339H6.1864H6.12939H6.07237H6.01532H5.95826H5.90118H5.84409H5.78697H5.72984H5.67268H5.61551H5.55832H5.50111H5.44389H5.38664H5.32938H5.27209H5.21479H5.15747H5.10013H5.04277H4.98539H4.928H4.87058H4.81314H4.75569H4.69821H4.64072H4.58321H4.52568H4.46812H4.41055H4.35296H4.29535H4.23772H4.18007H4.1224H4.06471H4.007H3.94927H3.89151H3.83374H3.77595H3.71814H3.66031H3.60246H3.54458H3.48669H3.42878H3.37084H3.31289H3.25491H3.19692H3.1389H3.08086H3.0228H2.96472H2.90662H2.8485H2.79036H2.73219H2.67401H2.6158H2.55757H2.49932H2.44105H2.38276H2.32444H2.26611H2.20775H2.20714V29.9204C2.20714 26.5216 4.72579 23.8115 7.75586 23.8115H24.2441C27.2742 23.8115 29.7929 26.5216 29.7929 29.9204V33.9327Z" fill="white" stroke="white" stroke-width="0.7"/>
    </g>
</svg>
