<svg width="114" height="39" viewBox="0 0 114 39" fill="none" xmlns="http://www.w3.org/2000/svg">
    <g opacity="0.8">
        <path d="M33.0453 6.54869C33.0452 6.1352 33.3798 5.79967 33.7933 5.79861C35.4598 5.79433 37.1285 5.795 38.796 5.79567C39.9175 5.79613 41.0384 5.79658 42.1576 5.79552L42.168 5.79551L42.168 5.79559C43.2389 5.80941 44.3771 5.92082 45.4635 6.31164C46.4228 6.65515 47.3317 7.28303 47.927 8.18883C48.6811 9.31061 48.9002 10.6434 48.9667 11.8163C48.9672 11.825 48.9676 11.8338 48.9677 11.8425C48.9878 12.7702 48.9908 13.7616 48.8264 14.7515L33.0453 6.54869ZM33.0453 6.54869C33.0462 14.9178 33.0463 23.2865 33.0453 31.6557C33.0452 32.0693 33.38 32.4049 33.7937 32.4058M33.0453 6.54869L33.7937 32.4058M49.5858 23.3857L49.5866 23.4023C49.5976 23.6599 49.6043 23.9197 49.6054 24.181C49.8824 22.6834 50.1597 21.1862 50.4369 19.6891C51.2561 15.2653 52.0752 10.8424 52.8873 6.41278C52.9525 6.05751 53.2616 5.79913 53.6228 5.79804C54.865 5.7943 56.0891 5.79501 57.3116 5.79572C58.6306 5.79649 59.9478 5.79726 61.284 5.79243C61.6456 5.79112 61.9566 6.0479 62.0237 6.40314C63.0065 11.6028 63.9803 16.8051 64.954 22.0065C65.5477 25.1785 66.1415 28.3502 66.7371 31.5208C66.7784 31.7404 66.7196 31.9669 66.5768 32.1387C66.434 32.3105 66.2221 32.4097 65.9987 32.4093C65.0278 32.4076 64.0438 32.4079 63.0588 32.4082C62.0102 32.4085 60.9605 32.4088 59.9245 32.4068C59.5356 32.406 59.2119 32.1081 59.1787 31.7206C59.0732 30.4852 58.9501 29.2556 58.8265 28.0197C58.7889 27.6439 58.7513 27.2676 58.714 26.8904C57.8234 26.8912 56.9331 26.8908 56.0431 26.8904C55.9925 27.3568 55.9411 27.8214 55.8898 28.2852C55.7628 29.4337 55.6364 30.5768 55.5236 31.7274C55.4861 32.1101 55.1652 32.4024 54.7807 32.4042C53.5524 32.41 52.3216 32.4091 51.0932 32.4081C50.391 32.4076 49.6895 32.407 48.9898 32.4078C48.767 32.408 48.5557 32.3092 48.413 32.1381C48.2704 31.967 48.2111 31.7413 48.2514 31.5222C48.4191 30.6094 48.587 29.6969 48.7552 28.7847C48.7235 28.8517 48.6905 28.9184 48.6562 28.9848C48.1849 29.9308 47.4569 30.7625 46.5405 31.3291C45.658 31.8858 44.6617 32.1682 43.7071 32.3066L49.5858 23.3857ZM49.5858 23.3857C49.5158 22.3037 49.3298 21.0938 48.719 20.0241C48.2975 19.2731 47.6591 18.6564 46.9054 18.2532C47.2859 17.9653 47.6301 17.6173 47.9075 17.2087M49.5858 23.3857L47.9075 17.2087M33.7937 32.4058C35.369 32.4091 36.9463 32.4086 38.5225 32.4081C39.58 32.4078 40.6371 32.4075 41.6927 32.4083M33.7937 32.4058L41.6927 32.4083M47.9075 17.2087C48.4429 16.4453 48.6929 15.5632 48.8262 14.7529L47.9075 17.2087ZM41.6927 32.4083C42.3339 32.4155 43.0182 32.4075 43.7065 32.3067L41.6927 32.4083ZM3.54755 16.9778C3.56866 16.8789 3.58208 16.816 3.60162 16.7569C3.60734 16.7506 3.61543 16.742 3.62651 16.7308C3.63883 16.7184 3.6523 16.7052 3.67017 16.6878L3.67442 16.6836C3.69028 16.6681 3.70999 16.6489 3.72967 16.6292C3.77269 16.5862 3.82958 16.5271 3.886 16.456C3.9491 16.3763 3.99536 16.2847 4.02198 16.1867C4.06157 16.0409 4.06318 15.9115 4.06281 15.8434C4.06269 15.82 4.06198 15.7892 4.06158 15.7719C4.06147 15.7669 4.06138 15.7631 4.06134 15.7608C4.06098 15.7416 4.06124 15.7374 4.06116 15.7391C4.07098 15.5366 3.99843 15.3388 3.86006 15.1907C3.72168 15.0426 3.52925 14.9568 3.32661 14.9529C3.24448 14.9513 3.16134 14.9524 3.09249 14.9534C3.08211 14.9535 3.07206 14.9536 3.06239 14.9537C2.99631 14.9546 2.9419 14.9549 2.89229 14.9536C2.89235 14.9495 2.89247 14.945 2.89266 14.9403C3.01087 14.4267 3.22415 13.9202 3.48341 13.3893C3.48783 13.3803 3.49206 13.3712 3.49611 13.362C3.53935 13.2636 3.584 13.1743 3.63711 13.0682C3.66041 13.0216 3.68533 12.9718 3.71249 12.9165C3.79262 12.7534 3.88386 12.558 3.95421 12.3405C4.15019 11.7854 4.40588 11.2658 4.73366 10.8085L4.73367 10.8085L4.73548 10.806C4.8736 10.6116 5.00415 10.522 5.09944 10.4951C5.2985 10.4436 5.51342 10.4314 5.82164 10.4138C5.83298 10.4131 5.84445 10.4125 5.85605 10.4118C5.97252 10.4051 6.0844 10.3715 6.18363 10.3152C6.2613 10.3126 6.36047 10.3078 6.463 10.2942C6.7098 10.2614 7.09941 10.1618 7.37663 9.7907C7.41265 9.7425 7.44273 9.69013 7.46623 9.63474C7.57008 9.38995 7.60703 9.15052 7.62734 8.969C7.63909 8.86393 7.64485 8.79374 7.64971 8.73452C7.65556 8.66316 7.66011 8.60774 7.67226 8.52642C7.69722 8.35951 7.66495 8.19572 7.58898 8.05648C7.69291 7.93377 7.75769 7.77756 7.7658 7.60749C7.76774 7.56675 7.76952 7.52829 7.77119 7.49194C7.78777 7.13289 7.79489 6.97868 7.86019 6.84879C7.86546 6.84403 7.87672 6.8348 7.89743 6.82146C7.95798 6.78246 8.03326 6.74803 8.17319 6.68522C8.49569 6.54044 8.67331 6.19011 8.5995 5.84439C8.52569 5.49868 8.22048 5.25144 7.86697 5.251C7.25039 5.25023 6.63387 5.25036 6.018 5.2505H6.01768C5.40152 5.25063 4.78601 5.25077 4.1706 5.25H4.16967C3.40897 5.25 2.6533 5.55729 2.11151 6.10299C1.58174 6.62745 1.27153 7.35477 1.25432 8.09697L1.25412 8.11424C1.25357 11.7791 1.25369 15.446 1.25382 19.1128C1.25394 22.6478 1.25406 26.1828 1.25358 29.7161C1.23516 30.1697 1.28264 30.6958 1.51772 31.1948C1.9664 32.2053 3.0085 32.8894 4.11104 32.9047L4.11104 32.9048L4.12093 32.9048C5.0805 32.9055 6.03846 32.9054 6.99604 32.9052C8.20239 32.9051 9.40814 32.9049 10.6157 32.9064C10.9581 32.9068 11.2574 32.6752 11.3429 32.3436C11.4284 32.012 11.2784 31.6646 10.9785 31.4994C10.9677 31.4935 10.9582 31.4865 10.9506 31.4796C10.9436 31.4732 10.9392 31.4678 10.9367 31.4641L10.9366 31.4577C10.9301 31.2058 10.9622 30.9473 11.0036 30.6185L11.0045 30.6119C11.0432 30.3043 11.0903 29.9303 11.0751 29.5427C11.0703 29.4195 11.0351 29.2995 10.9728 29.1931C10.9593 29.1701 10.9458 29.1486 10.933 29.129C10.9402 29.0772 10.9452 29.0156 10.9432 28.947C10.9419 28.9044 10.937 28.8619 10.9286 28.8202C10.8557 28.4608 10.711 28.1535 10.5788 27.9047C10.5137 27.7821 10.4599 27.6869 10.4114 27.6012C10.373 27.5332 10.338 27.4712 10.3033 27.4063C10.375 27.2288 10.3773 27.0272 10.3031 26.8439C10.2922 26.817 10.2783 26.7791 10.2615 26.7335C10.1968 26.5578 10.0897 26.2666 9.95019 26.0409C9.88917 25.9422 9.80608 25.859 9.70745 25.7979C9.08574 25.4124 8.50677 24.9499 7.97255 24.432L7.97258 24.432L7.96654 24.4262C7.89301 24.3565 7.80722 24.2704 7.71343 24.1763C7.51771 23.9799 7.28712 23.7485 7.06023 23.5579C6.74688 23.1924 6.4533 22.8001 6.16361 22.3897C5.73458 21.77 5.33691 21.182 5.01779 20.5603C4.90592 20.3423 4.69465 20.1927 4.45191 20.1596C4.4248 20.1559 4.39633 20.152 4.36681 20.1478C4.23736 19.8144 4.07903 19.5122 3.94169 19.25C3.93208 19.2317 3.92258 19.2135 3.9132 19.1956C3.69106 18.7709 3.52529 18.4394 3.44706 18.0901L3.44715 18.0901L3.44436 18.0785C3.38764 17.8429 3.42772 17.574 3.51436 17.1307C3.52765 17.0711 3.53833 17.021 3.54755 16.9778ZM7.85699 6.85185C7.85659 6.85233 7.85636 6.85257 7.85634 6.85257L7.85699 6.85185ZM10.8223 28.9741C10.8224 28.9741 10.8228 28.9747 10.8235 28.976C10.8227 28.9747 10.8223 28.9741 10.8223 28.9741ZM16.9395 5.79915C16.5264 5.80084 16.1925 6.13621 16.1926 6.54929C16.1941 14.9178 16.1936 23.2865 16.1931 31.6552C16.193 32.0682 16.527 32.4035 16.9401 32.4052C17.9148 32.4091 18.8937 32.4086 19.8708 32.4082C20.5707 32.4079 21.2697 32.4075 21.9654 32.4088C22.1646 32.4092 22.3556 32.3304 22.4966 32.1897C22.6375 32.0491 22.7168 31.8582 22.7168 31.6591C22.7177 29.0464 22.7176 26.4334 22.7174 23.8206C22.7173 22.9577 22.7173 22.0948 22.7172 21.2319C23.1563 22.8576 23.5802 24.5315 24.0008 26.1925C24.4918 28.1315 24.9784 30.053 25.4794 31.8597C25.5696 32.1847 25.8655 32.4096 26.2028 32.4093C28.0801 32.4077 29.9557 32.4062 31.8311 32.4098C32.0302 32.4102 32.2214 32.3314 32.3623 32.1907C32.5033 32.05 32.5825 31.859 32.5825 31.6598C32.5825 28.8693 32.5826 26.0787 32.5826 23.2881C32.5828 17.7067 32.5829 12.1251 32.5825 6.54347C32.5825 6.34417 32.5032 6.15308 32.362 6.01237C32.2209 5.87166 32.0295 5.79292 31.8302 5.79352C30.7947 5.79666 29.7609 5.79629 28.7256 5.79592C28.0891 5.7957 27.4521 5.79547 26.8137 5.79606C26.3998 5.79644 26.0644 6.13211 26.0644 6.54606V6.57383V6.60161V6.62939V6.65716V6.68494V6.71272V6.74049V6.76827V6.79605V6.82382V6.8516V6.87938V6.90715V6.93493V6.96271V6.99048V7.01826V7.04604V7.07381V7.10159V7.12937V7.15714V7.18492V7.2127V7.24048V7.26825V7.29603V7.32381V7.35158V7.37936V7.40714V7.43491V7.46269V7.49047V7.51824V7.54602V7.5738V7.60158V7.62935V7.65713V7.68491V7.71268V7.74046V7.76824V7.79601V7.82379V7.85157V7.87935V7.90712V7.9349V7.96268V7.99045V8.01823V8.04601V8.07379V8.10156V8.12934V8.15712V8.18489V8.21267V8.24045V8.26822V8.296V8.32378V8.35156V8.37933V8.40711V8.43489V8.46267V8.49044V8.51822V8.546V8.57377V8.60155V8.62933V8.65711V8.68488V8.71266V8.74044V8.76822V8.79599V8.82377V8.85155V8.87932V8.9071V8.93488V8.96266V8.99043V9.01821V9.04599V9.07377V9.10154V9.12932V9.1571V9.18488V9.21265V9.24043V9.26821V9.29598V9.32376V9.35154V9.37932V9.40709V9.43487V9.46265V9.49043V9.5182V9.54598V9.57376V9.60154V9.62931V9.65709V9.68487V9.71265V9.74042V9.7682V9.79598V9.82376V9.85154V9.87931V9.90709V9.93487V9.96265V9.99042V10.0182V10.046V10.0738V10.1015V10.1293V10.1571V10.1849V10.2126V10.2404V10.2682V10.296V10.3238V10.3515V10.3793V10.4071V10.4349V10.4626V10.4904V10.5182V10.546V10.5738V10.6015V10.6293V10.6571V10.6849V10.7126V10.7404V10.7682V10.796V10.8238V10.8515V10.8793V10.9071V10.9349V10.9626V10.9904V11.0182V11.046V11.0738V11.1015V11.1293V11.1571V11.1849V11.2126V11.2404V11.2682V11.296V11.3238V11.3515V11.3793V11.4071V11.4349V11.4626V11.4904V11.5182V11.546V11.5738V11.6015V11.6293V11.6571V11.6849V11.7126V11.7404V11.7682V11.796V11.8238V11.8515V11.8793V11.9071V11.9349V11.9626V11.9904V12.0182V12.046V12.0738V12.1015V12.1293V12.1571V12.1849V12.2127V12.2404V12.2682V12.296V12.3238V12.3515V12.3793V12.4071V12.4349V12.4627V12.4904V12.5182V12.546V12.5738V12.6015V12.6293V12.6571V12.6849V12.7127V12.7404V12.7682V12.796V12.8238V12.8515V12.8793V12.9071V12.9349V12.9627V12.9904V13.0182V13.046V13.0738V13.1016V13.1293V13.1571V13.1849V13.2127V13.2404V13.2682V13.296V13.3238V13.3516V13.3793V13.4071V13.4349V13.4627V13.4904V13.5182V13.546V13.5738V13.6016V13.6293V13.6571V13.6849V13.7127V13.7405V13.7682V13.796V13.8238V13.8516V13.8793V13.9071V13.9349V13.9627V13.9905V14.0182V14.046V14.0738V14.1016V14.1294V14.1571V14.1849V14.2127V14.2405V14.2682V14.296V14.3238V14.3516V14.3794V14.4071V14.4349V14.4627V14.4905V14.5183V14.546V14.5738V14.6016V14.6294V14.6571V14.6849V14.7127V14.7405V14.7683V14.796V14.8238V14.8516V14.8794V14.9071V14.9349V14.9627V14.9905V15.0183V15.046V15.0738V15.1016V15.1294V15.1572V15.1849V15.2127V15.2405V15.2683V15.296V15.3238V15.3516V15.3794V15.4072V15.4349V15.4627V15.4905V15.5183V15.5461V15.5738V15.6016V15.6294V15.6572V15.6849V15.7127V15.7405V15.7683V15.7961V15.8238V15.8516V15.8794V15.9072V15.935V15.9627V15.9905V16.0183V16.0461V16.0739V16.0904C25.7817 15.0785 25.5008 14.0653 25.2197 13.0512C24.6003 10.8173 23.9797 8.5788 23.3358 6.33835C23.2433 6.01657 22.9487 5.79506 22.6139 5.79553C21.874 5.79655 21.1319 5.79615 20.3889 5.79574C19.2396 5.79511 18.0881 5.79448 16.9395 5.79915ZM42.0882 15.5622L42.0882 15.5622L42.0805 15.5668C41.9015 15.6745 41.6444 15.7253 41.2875 15.7284C41.0437 15.7276 40.8095 15.7277 40.5768 15.7278C40.5567 15.7278 40.5367 15.7278 40.5167 15.7278C40.5167 15.3109 40.5167 14.8938 40.5168 14.4767C40.5169 13.515 40.517 12.553 40.5164 11.5912C40.9254 11.5906 41.3324 11.5905 41.74 11.5933C42.0076 11.5979 42.216 11.725 42.2999 11.8646L42.309 11.8793C42.4257 12.0637 42.496 12.2908 42.5374 12.5848C42.5696 12.814 42.5799 13.0382 42.5918 13.2962C42.5955 13.3769 42.5994 13.4609 42.6041 13.5494C42.5993 13.6534 42.5955 13.7523 42.5919 13.8468C42.5725 14.3512 42.5578 14.7307 42.4284 15.0962L42.4283 15.0962L42.4258 15.1035C42.3495 15.3262 42.221 15.4844 42.0882 15.5622ZM42.4145 21.6411L42.4189 21.6468C42.6456 21.9443 42.742 22.3669 42.8037 22.9388C42.8694 23.7001 42.8567 24.4765 42.8033 25.2651C42.7469 25.8163 42.6807 26.147 42.5016 26.3631C42.3763 26.5021 42.1144 26.6018 41.6891 26.612C41.2983 26.6135 40.9076 26.6136 40.5158 26.6132C40.5171 24.8518 40.5171 23.0901 40.5159 21.3286C40.926 21.3282 41.3353 21.3281 41.7447 21.3294C42.0295 21.3351 42.2821 21.4638 42.4146 21.6411L42.4145 21.6411ZM57.9932 21.4575C57.6028 21.4563 57.2109 21.4553 56.8186 21.456L57.4377 16.5783L57.9932 21.4575Z" stroke="white" stroke-width="1.5" stroke-linejoin="round"/>
        <path d="M8.52474 5.50045C8.27651 5.50045 8.06587 5.68256 8.02999 5.92817L8.02999 5.92818C7.99625 6.15911 8.12676 6.38267 8.34443 6.46682C8.55799 6.54939 8.67951 6.63834 8.7397 6.73539C8.78809 6.81342 8.85704 6.87661 8.93897 6.91805C8.95254 6.92491 8.9632 6.93137 8.9712 6.93694C8.97453 6.93926 8.97721 6.94129 8.97931 6.94299C8.98088 6.9474 8.98251 6.95179 8.9842 6.95616C9.0563 7.14241 8.99275 7.38861 8.80957 7.78268C8.74522 7.92112 8.74862 8.07846 8.81291 8.2113C8.80776 8.2201 8.8019 8.22986 8.79523 8.2407C8.78442 8.25826 8.77401 8.27467 8.7619 8.29376C8.75747 8.30074 8.75282 8.30807 8.74784 8.31594C8.73295 8.33949 8.71535 8.36756 8.69807 8.39698C8.69699 8.39773 8.69583 8.39853 8.69459 8.39939C8.67131 8.41553 8.62046 8.45078 8.57311 8.49311C8.51836 8.54207 8.45215 8.61359 8.40127 8.71406C8.37467 8.76289 8.35127 8.80681 8.33001 8.84672C8.25201 8.99314 8.20283 9.08547 8.13005 9.16715C8.12937 9.1677 8.12856 9.16835 8.12761 9.1691C8.12016 9.175 8.1144 9.17927 8.10392 9.18703C8.098 9.19141 8.09058 9.19691 8.0805 9.20443L8.07902 9.20554C8.03745 9.23659 7.94527 9.30545 7.86876 9.41145C7.82802 9.46789 7.79952 9.53223 7.78507 9.60032C7.78496 9.60083 7.78469 9.60198 7.78428 9.60372C7.77967 9.62331 7.75748 9.71755 7.7536 9.80596C7.74885 9.91397 7.76352 10.1141 7.92342 10.2849C7.94403 10.307 7.96659 10.3271 7.99082 10.345C8.0897 10.4183 8.1923 10.4713 8.27208 10.5099C8.31561 10.531 8.3474 10.5457 8.37513 10.5585C8.41054 10.5749 8.43934 10.5883 8.47755 10.6079C8.53221 10.6359 8.55981 10.6549 8.57458 10.6676C8.57963 10.6719 8.58208 10.6746 8.58298 10.6757C8.61701 10.7524 8.66982 10.8194 8.73654 10.8704C8.84345 10.952 8.95304 11.0265 9.05226 11.0934C9.06405 11.1013 9.07568 11.1091 9.08715 11.1169C9.17577 11.1765 9.25538 11.2301 9.33243 11.2862C9.5051 11.412 9.62801 11.5251 9.71258 11.6547L9.71254 11.6547L9.71622 11.6602C10.0836 12.2071 10.1161 12.9234 10.1104 13.7463C10.1101 13.7913 10.1158 13.836 10.1275 13.8794C10.1827 14.0852 10.2178 14.298 10.2577 14.5403C10.2594 14.5507 10.2612 14.5611 10.2629 14.5716C10.3035 14.8177 10.3501 15.094 10.4308 15.3688C10.4363 15.3874 10.4428 15.4056 10.4504 15.4234C10.51 15.5637 10.5803 15.7086 10.6436 15.8391C10.6691 15.8917 10.6935 15.9419 10.7156 15.9885C10.7984 16.1635 10.8644 16.318 10.9079 16.472C10.9099 16.4792 10.9121 16.4863 10.9144 16.4933C10.9612 16.6344 10.9805 16.7853 11.0077 16.9974C11.0091 17.0082 11.0105 17.0192 11.0119 17.0304C11.0389 17.2406 11.0755 17.5127 11.1849 17.7806C11.2485 17.9365 11.3864 18.0499 11.5517 18.0823C11.8732 18.1453 12.1221 18.3895 12.3205 18.8968C12.4079 19.1204 12.642 19.2503 12.878 19.2062C13.114 19.1621 13.2854 18.9564 13.2861 18.7163C13.2927 16.6904 13.2918 14.6621 13.2909 12.635C13.2903 11.1797 13.2896 9.72499 13.2918 8.27215C13.3013 7.69169 13.1392 7.08811 12.7748 6.59578C12.2848 5.91705 11.4684 5.50056 10.6322 5.5L10.6311 5.5C10.1124 5.50074 9.5939 5.50063 9.07488 5.50053C8.89157 5.50049 8.7082 5.50045 8.52474 5.50045ZM8.84654 8.14491C8.84656 8.1449 8.84643 8.14537 8.84609 8.14634L8.84654 8.14491ZM8.72826 8.37449C8.72832 8.37448 8.72751 8.37521 8.72568 8.37669C8.72728 8.37524 8.7282 8.3745 8.72826 8.37449ZM8.13704 13.2778C7.98836 13.3781 7.90135 13.5076 7.84839 13.6065C7.81111 13.6762 7.77403 13.7673 7.75585 13.8119C7.75175 13.822 7.74861 13.8297 7.74665 13.8343L7.74654 13.8342L7.74251 13.8442C7.64117 14.0949 7.54163 14.3539 7.44397 14.608C7.38324 14.766 7.32323 14.9222 7.26397 15.0733C7.18182 15.2694 7.17264 15.4711 7.16769 15.5801C7.16732 15.5881 7.16698 15.5957 7.16663 15.6026C7.15564 15.8239 7.29155 16.026 7.5006 16.0993C7.51106 16.103 7.5306 16.1128 7.55696 16.1472C7.5851 16.184 7.61326 16.2395 7.63393 16.3102L7.63389 16.3102L7.63569 16.3161C7.83367 16.9638 8.01789 17.6171 8.19855 18.2746C8.11629 18.3987 8.09279 18.5549 8.13824 18.7001C8.38261 19.4806 8.53144 20.2955 8.60613 21.1205L8.60611 21.1205L8.60654 21.1248C8.61003 21.1599 8.61343 21.1968 8.61697 21.2352C8.64661 21.5563 8.68578 21.9808 8.86469 22.3703C8.97067 22.6484 9.1216 22.9031 9.24707 23.1149C9.26438 23.1441 9.2812 23.1725 9.29735 23.2C9.44335 23.4487 9.5494 23.6484 9.60286 23.858C9.72131 24.334 9.79901 24.8111 9.88045 25.3112C9.90936 25.4887 9.93873 25.6691 9.97057 25.8534L9.97047 25.8534L9.97243 25.8635C9.97454 25.8744 9.97713 25.8906 9.98038 25.9111C9.99641 26.0118 10.0286 26.2143 10.1003 26.3785C10.1114 26.4041 10.1247 26.4286 10.1399 26.4519C10.1883 26.5261 10.2402 26.5993 10.2858 26.6636C10.2918 26.6721 10.2977 26.6804 10.3035 26.6886C10.3556 26.7623 10.4 26.826 10.4391 26.8887C10.5055 26.9954 10.5432 27.0789 10.5606 27.1535C10.554 27.2352 10.5331 27.3278 10.4989 27.4565C10.4947 27.4727 10.4901 27.4897 10.4853 27.5074C10.4516 27.6326 10.4073 27.7966 10.3859 27.9667C10.338 28.2096 10.3614 28.4336 10.3899 28.6098C10.4056 28.7068 10.4195 28.7767 10.4315 28.8373C10.4469 28.9147 10.4592 28.9769 10.4685 29.0613C10.4858 29.2387 10.5393 29.3908 10.5834 29.5034C10.6039 29.5558 10.6204 29.5957 10.6346 29.6298C10.6348 29.6304 10.6351 29.6309 10.6353 29.6315C10.6345 29.6347 10.6337 29.638 10.633 29.6413C10.6087 29.7477 10.5968 29.901 10.6644 30.0653C10.693 30.1537 10.7206 30.2348 10.7468 30.3118C10.8035 30.4784 10.8538 30.6261 10.8938 30.7881C10.9498 31.0147 10.9662 31.2047 10.9317 31.3808L10.9315 31.3817C10.914 31.4718 10.8328 31.5865 10.6283 31.7317C10.4395 31.8657 10.3674 32.1118 10.454 32.3265C10.5406 32.5411 10.7633 32.6683 10.9922 32.6338C11.6678 32.532 12.3267 32.1769 12.7515 31.5976C13.13 31.0981 13.3002 30.4814 13.2912 29.886C13.2892 28.5749 13.29 27.262 13.2908 25.9485C13.2919 24.009 13.2931 22.0681 13.2851 20.1297C13.2842 19.8925 13.1167 19.6887 12.8843 19.6416C12.6519 19.5946 12.4184 19.7173 12.3253 19.9355C12.1305 20.3919 11.7215 20.7384 11.2609 20.8254L11.2463 20.8284C10.6346 20.9629 9.94042 20.6042 9.68401 20.0231L9.68411 20.023L9.67976 20.0137C9.5205 19.672 9.50448 19.2671 9.63769 18.9218L9.63778 18.9219L9.64115 18.9126C9.79936 18.4772 10.19 18.1287 10.6377 18.0249C10.7777 17.9925 10.897 17.9013 10.9651 17.7748C11.0332 17.6482 11.0435 17.4985 10.9935 17.3637C10.8374 16.9435 10.6262 16.5197 10.4305 16.1268C10.3382 15.9417 10.2494 15.7635 10.1714 15.5957C10.1045 15.4384 10.0708 15.2776 10.0264 15.0656C10.0138 15.0058 10.0005 14.9418 9.98521 14.8727C9.92564 14.5938 9.87471 14.3114 9.82284 14.0205C9.8198 14.0035 9.81675 13.9864 9.81369 13.9692C9.76508 13.6965 9.71508 13.416 9.65736 13.1364C9.6268 12.9883 9.53092 12.8621 9.39652 12.7929C9.26213 12.7237 9.10365 12.7191 8.96541 12.7802C8.65462 12.9177 8.37969 13.1004 8.13704 13.2778Z" stroke="white" stroke-linejoin="round"/>
    </g>
    <g opacity="0.7">
        <path fill-rule="evenodd" clip-rule="evenodd" d="M106.618 5.68945C109.536 6.41888 111.87 5.25181 113.037 4.37654L113.071 4.40077H114V28.2285C114 28.8266 113.854 30.018 112.877 31.2044C111.661 32.6683 109.628 33.6208 106.798 34.0298C104.537 34.3605 102.869 35.0657 101.692 36.1987C100.861 37.001 100.01 38.4696 100.01 38.4696C100.01 38.4696 99.183 37.0303 98.3077 36.1987C97.1407 35.0655 95.4873 34.3556 93.2017 34.0298C90.3764 33.6214 88.3341 32.6829 87.1232 31.2241C86.1459 30.0084 86 28.8413 86 28.2091V4.38143H86.9239C88.1396 5.24217 90.43 6.41888 93.3914 5.68945C98.5362 4.42022 100.005 0 100.005 0C100.005 0 101.464 4.42511 106.618 5.68945ZM88.9905 13.7617L87.9401 12.9739H89.2239L89.6474 11.7582L90.0709 12.9739H91.3547L90.3043 13.7666L90.6904 15.0017L89.6449 14.2674L88.5994 15.0017L88.9855 13.7666L88.9905 13.7617ZM93.5373 13.7617L92.4869 12.9739H93.7707L94.1942 11.7582L94.6177 12.9739H95.9015L94.851 13.7666L95.2372 15.0017L94.1916 14.2674L93.1462 15.0017L93.5322 13.7666L93.5373 13.7617ZM88.9905 9.67695L87.9401 8.88914H89.2239L89.6474 7.67341L90.0709 8.88914H91.3547L90.3043 9.68184L90.6904 10.9169L89.6449 10.1826L88.5994 10.9169L88.9855 9.68184L88.9905 9.67695ZM93.5373 9.67695L92.4869 8.88914H93.7707L94.1942 7.67341L94.6177 8.88914H95.9015L94.851 9.68184L95.2372 10.9169L94.1916 10.1826L93.1462 10.9169L93.5322 9.68184L93.5373 9.67695ZM111.384 14.9773L111.378 14.9732L110.993 13.7422L112.043 12.9496H110.759L110.336 11.7338L109.912 12.9496H108.628L109.679 13.7422L109.293 14.9773L110.338 14.2431L111.378 14.9732L111.379 14.9773H111.384ZM106.813 14.9773L106.808 14.9738L106.422 13.7422L107.473 12.9496H106.189L105.765 11.7338L105.341 12.9496H104.057L105.108 13.7422L104.722 14.9773L105.767 14.2431L106.808 14.9738L106.809 14.9773H106.813ZM111.384 10.8927L111.378 10.8885L110.993 9.65761L112.043 8.86495H110.759L110.336 7.64917L109.912 8.86495H108.628L109.679 9.65761L109.293 10.8927L110.338 10.1584L111.378 10.8885L111.379 10.8927H111.384ZM106.813 10.8927L106.808 10.8891L106.422 9.65761L107.473 8.86495H106.189L105.765 7.64917L105.341 8.86495H104.057L105.108 9.65761L104.722 10.8927L105.767 10.1584L106.808 10.8891L106.809 10.8927H106.813ZM102.869 6.35082C102.869 6.35082 102.324 6.63431 101.566 7.38179C101.737 7.47851 101.929 7.61376 102.04 7.7056C101.958 7.77789 101.875 7.85432 101.795 7.92952L101.699 8.02019C101.203 7.61318 100.692 7.40739 100.294 7.31025C100.426 7.21547 100.566 7.12209 100.705 7.03165C100.805 7.05708 100.904 7.08904 100.98 7.11583C101.067 7.14639 101.126 7.17025 101.126 7.17025C101.982 6.51854 102.726 6.23656 102.726 6.23656C102.726 6.23656 102.64 6.19445 102.411 6.19753C99.041 6.24107 95.9433 8.75533 96.5269 13.054C96.5896 13.5105 96.7671 14.3426 96.9928 14.7074C97.0677 13.9926 97.3371 12.4072 98.1355 10.7054C97.8578 10.6057 97.6298 10.5648 97.6298 10.5648C97.6612 10.4989 97.6972 10.4261 97.7298 10.3615C97.7819 10.258 97.8248 10.1753 97.8248 10.1753C98.4181 10.2868 98.9384 10.5341 99.3906 10.8951C99.3538 10.9547 99.3211 11.0072 99.2918 11.0542C99.2348 11.1454 99.191 11.2156 99.1567 11.2753C98.9981 11.1503 98.8377 11.0429 98.6606 10.9446C97.761 12.5153 97.3477 13.9985 97.1774 14.7717C97.1868 14.8196 97.2844 14.8441 97.3632 14.8338C101.054 14.3559 102.761 12.4705 103.296 10.4331C103.642 9.09579 103.528 7.69525 103.065 6.55255C103.033 6.47233 102.97 6.33907 102.862 6.34884L102.869 6.35082ZM100.977 8.75294C100.51 8.3678 99.9854 8.12085 99.4312 7.99917C99.4835 7.94968 99.5363 7.90292 99.5885 7.85829C99.6425 7.81205 99.6957 7.7681 99.7469 7.72584L99.747 7.72578L99.7471 7.7257C99.7737 7.70378 99.7997 7.68231 99.825 7.66121C100.52 7.82852 100.987 8.14017 101.308 8.40519C101.194 8.52182 101.084 8.63563 100.979 8.75181L100.977 8.75294ZM100.302 9.56508C99.856 9.19112 99.3144 8.91352 98.7017 8.78708C98.7954 8.66599 98.9053 8.53706 99.0109 8.4175C99.4797 8.50066 100.081 8.74761 100.606 9.1809C100.499 9.30928 100.399 9.43964 100.304 9.56354L100.302 9.56508ZM98.1036 9.66728C98.653 9.76934 99.2132 10.0159 99.6937 10.4161C99.7768 10.2921 99.8698 10.1578 99.9679 10.0178C99.5838 9.69681 99.0391 9.3828 98.368 9.24954C98.2722 9.39203 98.1036 9.66728 98.1036 9.66728ZM106.429 31.6649C101.799 32.3798 100.01 34.5874 100.01 34.5874H99.9613C99.9613 34.5874 98.1913 32.3845 93.5424 31.6649C88.3391 30.86 88.3836 28.4453 88.3876 28.2279C88.3877 28.2233 88.3878 28.2197 88.3878 28.2172V16.206H111.583V28.2172C111.583 28.2202 111.583 28.2245 111.584 28.2302C111.59 28.4619 111.65 30.8627 106.429 31.6649Z" fill="white"/>
        <path fill-rule="evenodd" clip-rule="evenodd" d="M94.5584 24.9939L94.5575 19.3044L93.8427 18.9032V17.4249H97.1057V18.9032L96.4249 19.3044V30.9265L94.684 30.4063L92.1651 22.9661L92.1647 27.8776L92.967 28.4904V30.0028L89.4706 29.1128V27.8243L90.273 27.5111V19.293L89.4512 18.887V17.4087H92.0965L94.5668 24.9946L94.5584 24.9939ZM100.588 30.1971L101.289 31.0335V32.5118L97.8214 31.2183V29.9636L98.5848 29.6504V19.2927L97.8263 18.908V17.4102H103.856V20.4204H102.533L102.133 19.1853H100.601V22.6671H101.748L102.201 22.0057H103.125V25.1034H102.201L101.765 24.476H100.598V30.2142L100.588 30.1971ZM104.43 30.7319V29.2537L105.291 28.5485V19.3092L104.556 18.9245V17.4268H108.024V18.9245L107.343 19.3092V28.0136L108.836 27.6105L109.122 25.3347H110.546V29.1373L104.419 30.7713" fill="white"/>
    </g>
</svg>
