<svg width="40" height="37" viewBox="0 0 40 37" fill="none" xmlns="http://www.w3.org/2000/svg">
    <path d="M38.1811 21.6684C40.7585 18.9712 40.4588 16.4838 38.1512 14.356C34.7647 11.1793 30.7489 8.60201 26.5532 6.17454C22.4775 3.807 18.1619 1.85902 13.7265 0.270669C11.2092 -0.598428 8.482 0.690233 7.58293 3.20762C7.49303 3.44737 7.43309 3.68712 7.40312 3.92687C5.66492 13.2772 5.66493 22.8672 7.37315 32.2175C7.85265 34.8248 10.37 36.563 12.9773 36.0835C13.2171 36.0235 13.4868 35.9636 13.7265 35.8737C18.2518 34.2554 22.5973 32.2175 26.733 29.79C30.8687 27.4225 34.9745 24.995 38.1811 21.6684Z" fill="url(#paint0_linear)"/>
    <path d="M7.37279 4.25618C7.25292 4.22621 7.13304 4.19624 7.01317 4.1363C4.46581 3.35711 2.21815 4.25618 1.19921 7.01332C-0.0594845 10.4597 0.000453214 14.3257 0.000453214 18.1018C0.000453214 21.8779 -0.0295158 25.6839 1.16924 29.1303C2.27809 32.307 4.43584 32.7865 6.9832 32.0073C7.10307 31.9774 7.43273 31.8275 7.52264 31.7976C6.71348 27.3322 6.08413 22.8369 6.08413 18.1318C6.14407 13.4866 6.53367 8.84142 7.37279 4.25618Z" fill="url(#paint1_linear)"/>
    <path d="M7.3431 4.22656C5.69481 13.397 5.66484 22.8073 7.31313 31.9777C11.329 30.749 15.2549 29.1906 19.031 27.3026C22.837 25.4145 26.4932 23.4066 29.61 20.9192C31.9475 19.0611 31.7078 16.9034 29.58 15.1652C26.4333 12.6178 22.7171 10.6399 18.8212 8.75186C15.165 6.92376 11.299 5.42532 7.3431 4.22656Z" fill="url(#paint2_linear)"/>
    <path d="M11.4492 12.3483C11.4492 12.3483 11.0596 12.9177 11.0596 18.0723C11.0596 23.227 11.4492 23.8563 11.4492 23.8563C11.569 24.4857 11.8687 24.6955 12.558 24.5456C12.558 24.5456 13.7268 24.3658 18.372 22.0282C23.0171 19.6907 23.7963 18.7916 23.7963 18.7916C24.3058 18.2821 24.4257 17.9525 23.7963 17.413C23.7963 17.413 22.5376 16.2442 18.372 14.1165C14.2662 12.0186 12.558 11.659 12.558 11.659C11.9586 11.4792 11.599 11.659 11.4492 12.3483Z" fill="url(#paint3_linear)"/>
    <defs>
        <linearGradient id="paint0_linear" x1="23.0442" y1="0.00550456" x2="23.0442" y2="36.1789" gradientUnits="userSpaceOnUse">
            <stop stop-color="#53C4FE"/>
            <stop offset="1" stop-color="#0D84F4"/>
        </linearGradient>
        <linearGradient id="paint1_linear" x1="3.80236" y1="3.89194" x2="3.80236" y2="32.3513" gradientUnits="userSpaceOnUse">
            <stop stop-color="#F9B93B"/>
            <stop offset="1" stop-color="#FA7535"/>
        </linearGradient>
        <linearGradient id="paint2_linear" x1="18.6991" y1="4.21727" x2="18.6991" y2="31.9609" gradientUnits="userSpaceOnUse">
            <stop stop-color="#AEF922"/>
            <stop offset="1" stop-color="#62BB0D"/>
        </linearGradient>
        <linearGradient id="paint3_linear" x1="17.6355" y1="11.6012" x2="17.6355" y2="24.5743" gradientUnits="userSpaceOnUse">
            <stop stop-color="white"/>
            <stop offset="0.6" stop-color="white"/>
            <stop offset="1" stop-color="#E5F6D2"/>
        </linearGradient>
    </defs>
</svg>
