<svg width="42" height="42" viewBox="0 0 42 42" fill="none" xmlns="http://www.w3.org/2000/svg">
    <g opacity="0.8">
        <path d="M25.2334 1.29936L25.2334 1.29935C22.2949 0.668194 19.2525 0.702323 16.3289 1.39924C13.4053 2.09616 10.6746 3.43821 8.33678 5.32711C5.99901 7.21601 4.11335 9.60391 2.81792 12.3159C1.52249 15.0279 0.850104 17.9954 0.85 21.0009C0.85 26.3454 2.97311 31.4711 6.75226 35.2502C10.5314 39.0294 15.6571 41.1525 21.0016 41.1525C25.9772 41.1517 30.7765 39.3102 34.4756 35.9826C38.1747 32.6549 40.5119 28.0765 41.0373 23.1287C41.5627 18.181 40.2391 13.2138 37.3213 9.18358C34.4035 5.15334 30.0979 2.34503 25.2334 1.29936ZM12.0732 37.2308L12.0731 37.2307C8.47006 35.2511 5.62817 32.1289 3.99533 28.356C2.36249 24.5831 2.03154 20.3741 3.05463 16.3924C4.07772 12.4107 6.39669 8.88261 9.64606 6.3642C12.8954 3.84579 16.8904 2.48023 21.0015 2.48275L21.0018 2.48274C22.3091 2.48077 23.6127 2.62045 24.8899 2.89933L24.8904 2.89943C28.3762 3.64877 31.5716 5.3885 34.0928 7.90968C36.614 10.4309 38.3537 13.6263 39.1031 17.1121L39.1032 17.1126C39.382 18.3898 39.5217 19.6934 39.5197 21.0007V21.0009C39.5208 24.2199 38.6828 27.3836 37.0883 30.1799C35.4939 32.9762 33.198 35.3086 30.4272 36.947C27.6565 38.5855 24.5064 39.4733 21.2878 39.5231C18.0693 39.5729 14.8933 38.7828 12.0732 37.2308Z" fill="white" stroke="white" stroke-width="0.3"/>
        <path d="M7.2385 6.26602H7.30064H7.60733H7.62049L7.62044 6.26659C13.6789 6.79839 19.4206 9.20653 24.0457 13.1556C27.3105 15.9144 29.9356 19.3509 31.7385 23.2264C33.5415 27.102 34.4791 31.3236 34.4861 35.5981V35.5983V35.8983V35.966L34.4354 36.0108L34.2087 36.2108L34.2078 36.2116C30.5439 39.3938 25.8547 41.1469 21.0017 41.1488C15.6572 41.1488 10.5316 39.0257 6.7524 35.2465C2.97331 31.4674 0.850207 26.3419 0.850134 20.9974C0.850134 20.9974 0.850134 20.9973 0.850134 20.9972H1.00013L7.2385 6.26602ZM7.2385 6.26602L7.19457 6.30995M7.2385 6.26602L7.19457 6.30995M7.19457 6.30995L6.98226 6.52225L7.19457 6.30995ZM22.9847 14.3976L22.985 14.3979C26.0295 16.9717 28.4859 20.1692 30.1882 23.7741C31.8804 27.3575 32.7884 31.2606 32.8516 35.2224C30.0011 37.5989 26.5017 39.0645 22.8072 39.4281C19.0891 39.794 15.3473 39.0267 12.0733 37.227C9.55611 35.8427 7.39553 33.8918 5.76238 31.5285C4.12922 29.1652 3.06828 26.4544 2.66345 23.6103C2.25863 20.7663 2.52103 17.8671 3.42989 15.142C4.33128 12.4392 5.84403 9.98127 7.85008 7.95907C13.4313 8.51797 18.7106 10.7635 22.9847 14.3976Z" fill="white" stroke="white" stroke-width="0.3"/>
        <path d="M21.0027 41.1554H21.0029C24.8208 41.1504 28.5587 40.061 31.7814 38.014C35.0041 35.967 37.579 33.0466 39.2063 29.5929C40.8336 26.1392 41.4462 22.2942 40.973 18.5058C40.4997 14.7174 38.96 11.1414 36.5331 8.1941L36.2934 7.90111L36.2387 7.8343L36.1535 7.84799L35.7819 7.90773C35.7816 7.90777 35.7813 7.90782 35.781 7.90786C32.8063 8.35037 29.9189 9.25483 27.2234 10.5885L27.2232 10.5886C22.3074 13.0298 18.1705 16.7946 15.2782 21.4592C12.3859 26.1238 10.853 31.5031 10.852 36.9917V36.9936V36.9956V36.9975V36.9994V37.0013V37.0032V37.0051V37.007V37.0089V37.0109V37.0128V37.0147V37.0166V37.0185V37.0204V37.0223V37.0242V37.0261V37.028V37.03V37.0319V37.0338V37.0357V37.0376V37.0395V37.0414V37.0433V37.0452V37.0471V37.049V37.0509V37.0528V37.0547V37.0566V37.0585V37.0605V37.0624V37.0643V37.0662V37.0681V37.07V37.0719V37.0738V37.0757V37.0776V37.0795V37.0814V37.0833V37.0852V37.0871V37.089V37.0909V37.0928V37.0947V37.0966V37.0985V37.1004V37.1023V37.1042V37.1061V37.108V37.1099V37.1118V37.1137V37.1156V37.1174V37.1193V37.1212V37.1231V37.125V37.1269V37.1288V37.1307V37.1326V37.1345V37.1364V37.1383V37.1402V37.1421V37.144V37.1459V37.1478V37.1496V37.1515V37.1534V37.1553V37.1572V37.1591V37.161V37.1629V37.1648V37.1667V37.1686V37.1704V37.1723V37.1742V37.1761V37.178V37.1799V37.1818V37.1837V37.1856V37.1874V37.1893V37.1912V37.1931V37.195V37.1969V37.1988V37.2006V37.2025V37.2044V37.2063V37.2082V37.2101V37.212V37.2138V37.2157V37.2176V37.2195V37.2214V37.2233V37.2251V37.227V37.2289V37.2308V37.2327V37.2346V37.2364V37.2383V37.2402V37.2421V37.244V37.2459V37.2477V37.2496V37.2515V37.2534V37.2553V37.2571V37.259V37.2609V37.2628V37.2647V37.2665V37.2684V37.2703V37.2722V37.2741V37.2759V37.2778V37.2797V37.2816V37.2834V37.2853V37.2872V37.2891V37.291V37.2928V37.2947V37.2966V37.2985V37.3003V37.3022V37.3041V37.306V37.3078V37.3097V37.3116V37.3135V37.3153V37.3172V37.3191V37.321V37.3228V37.3247V37.3266V37.3285V37.3303V37.3322V37.3341V37.336V37.3378V37.3397V37.3416V37.3435V37.3453V37.3472V37.3491V37.3509V37.3528V37.3547V37.3566V37.3584V37.3603V37.3622V37.364V37.3659V37.3678V37.3697V37.3715V37.3734V37.3753V37.3771V37.379V37.3809V37.3828V37.3846V37.3865V37.3884V37.3902V37.3921V37.394V37.3958V37.3977V37.3996V37.4015V37.4033V37.4052V37.4071V37.4089V37.4108V37.4127V37.4145V37.4164V37.4183V37.4201V37.422V37.4239V37.4257V37.4276V37.4295V37.4313V37.4332V37.4351V37.4369V37.4388V37.4407V37.4425V37.4444V37.4463V37.4481V37.45V37.4519V37.4537V37.4556V37.4575V37.4593V37.4612V37.4631V37.4649V37.4668V37.4687V37.4705V37.4724V37.4743V37.4761V37.478V37.4799V37.4817V37.4836V37.4855V37.4873V37.4892V37.4911V37.4929V37.4948V37.4967V37.4985V37.5004V37.5022V37.5041V37.506V37.5078V37.5097V37.5116V37.5134V37.5153V37.5172V37.519V37.5209V37.5227V37.5246V37.5265V37.5283V37.5302V37.5321V37.5339V37.5358V37.5377V37.5395V37.5414V37.5432V37.5451V37.547V37.5488V37.5507V37.5526V37.5544V37.5563V37.5581V37.56V37.5619V37.5637V37.5656V37.5675V37.5693V37.5712V37.5731V37.5749V37.5768V37.5786V37.5805V37.5824V37.5842V37.5861V37.588V37.5898V37.5917V37.5935V37.5954V37.5973V37.5991V37.601V37.6028V37.6047V37.6066V37.6084V37.6103V37.6122V37.614V37.6159V37.6177V37.6196V37.6215V37.6233V37.6252V37.6271V37.6289V37.6308V37.6326V37.6345V37.6364V37.6382V37.6401V37.642V37.6438V37.6457V37.6475V37.6494V37.6513V37.6531V37.655V37.6569V37.6587V37.6606V37.6624V37.6643V37.6662V37.668V37.6699V37.6718V37.6736V37.6755V37.6773V37.6792V37.6811V37.6829V37.6848V37.6866V37.6885V37.6904V37.6922V37.6941V37.696V37.6978V37.6997V37.7016V37.7034V37.7053V37.7071V37.709V37.7109V37.7127V37.7146V37.7165V37.7183V37.7202V37.722V37.7239V37.7258V37.7276V37.7295V37.7314V37.7332V37.7351V37.7369V37.7388V37.7407V37.7425V37.7444V37.7463V37.7481V37.75V37.7519V37.7537V37.7556V37.7575V37.7593V37.7612V37.763V37.7649V37.7668V37.7686V37.7705V37.7724V37.7742V37.7761V37.778V37.7798V37.7817V37.7836V37.7854V37.7873V37.7892V37.791V37.7929V37.7947V37.7966V37.7985V37.8003V37.8022V37.8041V37.8059V37.8078V37.8097V37.8115V37.8134V37.8153V37.8171V37.819V37.8209V37.8227V37.8246V37.8265V37.8283V37.8302V37.8321V37.8339V37.8358V37.8377V37.8395V37.8414V37.8433V37.8451V37.847V37.8489V37.8507V37.8526V37.8545V37.8564V37.8582V37.8601V37.862V37.8638V37.8657V37.8676V37.8694V37.8713V37.8732V37.875V37.8769V37.8788V37.8807V37.8825V37.8844V37.8863V37.8881V37.89V37.8919V37.8937V37.8956V37.8975V37.8994V37.9012V37.9031V37.905V37.9068V37.9087V37.9106V37.9125V37.9143V37.9162V37.9181V37.92V37.9218V37.9237V37.9256V37.9274V37.9293V37.9312V37.9331V37.9349V37.9368V37.9387V37.9406V37.9424V37.9443V37.9462V37.9481V37.9499V37.9518V38.3385V38.4268L10.9291 38.4696L11.2891 38.6696L11.29 38.6701C14.268 40.2998 17.608 41.1544 21.0027 41.1554ZM21.5723 39.5271C18.4163 39.6242 15.2883 38.9127 12.4854 37.4608V37.4606V37.4595V37.4584V37.4574V37.4563V37.4552V37.4542V37.4531V37.452V37.451V37.4499V37.4488V37.4478V37.4467V37.4456V37.4446V37.4435V37.4424V37.4414V37.4403V37.4392V37.4382V37.4371V37.436V37.435V37.4339V37.4328V37.4318V37.4307V37.4296V37.4286V37.4275V37.4264V37.4253V37.4243V37.4232V37.4221V37.4211V37.42V37.4189V37.4179V37.4168V37.4157V37.4147V37.4136V37.4125V37.4114V37.4104V37.4093V37.4082V37.4072V37.4061V37.405V37.404V37.4029V37.4018V37.4007V37.3997V37.3986V37.3975V37.3965V37.3954V37.3943V37.3933V37.3922V37.3911V37.39V37.389V37.3879V37.3868V37.3858V37.3847V37.3836V37.3825V37.3815V37.3804V37.3793V37.3783V37.3772V37.3761V37.375V37.374V37.3729V37.3718V37.3708V37.3697V37.3686V37.3675V37.3665V37.3654V37.3643V37.3632V37.3622V37.3611V37.36V37.359V37.3579V37.3568V37.3557V37.3547V37.3536V37.3525V37.3514V37.3504V37.3493V37.3482V37.3472V37.3461V37.345V37.3439V37.3429V37.3418V37.3407V37.3396V37.3386V37.3375V37.3364V37.3353V37.3343V37.3332V37.3321V37.3311V37.33V37.3289V37.3278V37.3268V37.3257V37.3246V37.3235V37.3225V37.3214V37.3203V37.3192V37.3182V37.3171V37.316V37.3149V37.3139V37.3128V37.3117V37.3106V37.3096V37.3085V37.3074V37.3064V37.3053V37.3042V37.3031V37.3021V37.301V37.2999V37.2988V37.2978V37.2967V37.2956V37.2945V37.2935V37.2924V37.2913V37.2902V37.2892V37.2881V37.287V37.2859V37.2849V37.2838V37.2827V37.2816V37.2806V37.2795V37.2784V37.2773V37.2763V37.2752V37.2741V37.2731V37.272V37.2709V37.2698V37.2688V37.2677V37.2666V37.2655V37.2645V37.2634V37.2623V37.2612V37.2602V37.2591V37.258V37.2569V37.2559V37.2548V37.2537V37.2526V37.2516V37.2505V37.2494V37.2483V37.2473V37.2462V37.2451V37.244V37.243V37.2419V37.2408V37.2398V37.2387V37.2376V37.2365V37.2355V37.2344V37.2333V37.2322V37.2312V37.2301V37.229V37.2279V37.2269V37.2258V37.2247V37.2236V37.2226V37.2215V37.2204V37.2194V37.2183V37.2172V37.2161V37.2151V37.214V37.2129V37.2118V37.2108V37.2097V37.2086V37.2075V37.2065V37.2054V37.2043V37.2033V37.2022V37.2011V37.2V37.199V37.1979V37.1968V37.1957V37.1947V37.1936V37.1925V37.1915V37.1904V37.1893V37.1882V37.1872V37.1861V37.185V37.184V37.1829V37.1818V37.1807V37.1797V37.1786V37.1775V37.1764V37.1754V37.1743V37.1732V37.1722V37.1711V37.17V37.1689V37.1679V37.1668V37.1657V37.1647V37.1636V37.1625V37.1615V37.1604V37.1593V37.1582V37.1572V37.1561V37.155V37.154V37.1529V37.1518V37.1507V37.1497V37.1486V37.1475V37.1465V37.1454V37.1443V37.1433V37.1422V37.1411V37.1401V37.139V37.1379V37.1368V37.1358V37.1347V37.1336V37.1326V37.1315V37.1304V37.1294V37.1283V37.1272V37.1262V37.1251V37.124V37.123V37.1219V37.1208V37.1197V37.1187V37.1176V37.1165V37.1155V37.1144V37.1133V37.1123V37.1112V37.1101V37.1091V37.108V37.1069V37.1059V37.1048V37.1037V37.1027V37.1016V37.1005V37.0995V37.0984V37.0973V37.0963V37.0952V37.0941V37.0931V37.092V37.091V37.0899V37.0888V37.0878V37.0867V37.0856V37.0846V37.0835V37.0824V37.0814V37.0803V37.0792V37.0782V37.0771V37.076V37.075V37.0739V37.0729V37.0718V37.0707V37.0697V37.0686V37.0675V37.0665V37.0654V37.0644V37.0633V37.0622V37.0612V37.0601V37.059V37.058V37.0569V37.0559V37.0548V37.0537V37.0527V37.0516V37.0506V37.0495V37.0484V37.0474V37.0463V37.0453V37.0442V37.0431V37.0421V37.041V37.04V37.0389V37.0378V37.0368V37.0357V37.0347V37.0336V37.0325V37.0315V37.0304V37.0294V37.0283V37.0273V37.0262V37.0251V37.0241V37.023V37.022V37.0209V37.0198V37.0188V37.0177V37.0167V37.0156V37.0146V37.0135V37.0125V37.0114V37.0103V37.0093V37.0082V37.0072V37.0061V37.0051C12.4854 37.0051 12.4854 37.0051 12.4854 37.0051C12.4867 32.6046 13.5307 28.2672 15.5318 24.348C17.5328 20.4289 20.434 17.0397 23.9976 14.4581L23.9977 14.458C27.432 11.9672 31.3895 10.2941 35.5682 9.56587C37.3074 11.7789 38.5171 14.3611 39.1042 17.1148L39.1043 17.1155C39.3832 18.3927 39.5229 19.6963 39.5209 21.0036V21.0039C39.5233 24.1917 38.7027 27.3261 37.1385 30.1038C35.5744 32.8815 33.3197 35.2084 30.5927 36.8592C27.8657 38.5101 24.7586 39.429 21.5723 39.5271Z" fill="white" stroke="white" stroke-width="0.3"/>
        <path d="M24.1899 3.33492C24.1835 6.37605 25.1412 9.34094 26.9253 11.8037C28.2693 13.6631 30.0347 15.1777 32.0768 16.2233C34.119 17.269 36.3798 17.816 38.6741 17.8196H38.6744C39.111 17.8196 39.5433 17.7926 39.9712 17.7386L40.7093 17.6655L40.8755 17.649L40.8413 17.4855L40.688 16.7521L40.6878 16.7512C39.8707 12.9631 37.9787 9.49102 35.2386 6.75086C32.4984 4.0107 29.0263 2.11873 25.2382 1.30164L25.2382 1.30164L25.2373 1.30144L24.5039 1.1481L24.3404 1.11391L24.324 1.28013L24.2506 2.02019L24.2506 2.02019L24.2505 2.02083C24.2101 2.44796 24.1899 2.886 24.1899 3.33492ZM24.1899 3.33492C24.1899 3.33498 24.1899 3.33503 24.1899 3.33508H24.3399L24.1899 3.33477C24.1899 3.33482 24.1899 3.33487 24.1899 3.33492ZM25.8233 3.12309C28.9525 3.96618 31.8069 5.61611 34.1001 7.90931C36.3942 10.2034 38.0446 13.0592 38.8874 16.1899C36.8489 16.2154 34.8322 15.7589 33.0021 14.8567C31.1153 13.9265 29.4837 12.5505 28.2484 10.8478C26.6678 8.66216 25.8189 6.0326 25.8233 3.33533V3.33508V3.3343V3.33352V3.33274V3.33196V3.33118V3.3304V3.32961V3.32883V3.32805V3.32727V3.32649V3.32571V3.32493V3.32415V3.32336V3.32258V3.3218V3.32102V3.32024V3.31946V3.31868V3.31789V3.31711V3.31633V3.31555V3.31477V3.31399V3.31321V3.31242V3.31164V3.31086V3.31008V3.3093V3.30852V3.30774V3.30695V3.30617V3.30539V3.30461V3.30383V3.30305V3.30226V3.30148V3.3007V3.29992V3.29914V3.29836V3.29757V3.29679V3.29601V3.29523V3.29445V3.29367V3.29288V3.2921V3.29132V3.29054V3.28976V3.28898V3.28819V3.28741V3.28663V3.28585V3.28507V3.28428V3.2835V3.28272V3.28194V3.28116V3.28037V3.27959V3.27881V3.27803V3.27725V3.27646V3.27568V3.2749V3.27412V3.27334V3.27255V3.27177V3.27099V3.27021V3.26942V3.26864V3.26786V3.26708V3.26629V3.26551V3.26473V3.26395V3.26316V3.26238V3.2616V3.26082V3.26003V3.25925V3.25847V3.25769V3.2569V3.25612V3.25534V3.25455V3.25377V3.25299V3.25221V3.25142V3.25064V3.24986V3.24907V3.24829V3.24751V3.24672V3.24594V3.24516V3.24437V3.24359V3.24281V3.24202V3.24124V3.24046V3.23967V3.23889V3.23811V3.23732V3.23654V3.23576V3.23497V3.23419V3.2334V3.23262V3.23184V3.23105V3.23027V3.22948V3.2287V3.22792V3.22713V3.22635V3.22556V3.22478V3.22399V3.22321V3.22243V3.22164V3.22086V3.22007V3.21929V3.2185V3.21772V3.21693V3.21615V3.21536V3.21458V3.2138V3.21301V3.21223V3.21144V3.21066V3.20987V3.20908V3.2083V3.20751V3.20673V3.20594V3.20516V3.20437V3.20359V3.2028V3.20202V3.20123V3.20045V3.19966V3.19887V3.19809V3.1973V3.19652V3.19573V3.19494V3.19416V3.19337V3.19259V3.1918V3.19101V3.19023V3.18944V3.18865V3.18787V3.18708V3.18629V3.18551V3.18472V3.18393V3.18315V3.18236V3.18157V3.18079V3.18V3.17921V3.17842V3.17764V3.17685V3.17606V3.17527V3.17449V3.1737V3.17291V3.17212V3.17134V3.17055V3.16976V3.16897V3.16818V3.1674V3.16661V3.16582V3.16503V3.16424V3.16345V3.16267V3.16188V3.16109V3.1603V3.15951V3.15872V3.15793V3.15714V3.15636V3.15557V3.15478V3.15399V3.1532V3.15241V3.15162V3.15083V3.15004V3.14925V3.14846V3.14767V3.14688V3.14609V3.1453V3.14451V3.14372V3.14293V3.14214V3.14135V3.14056V3.13977V3.13898V3.13819V3.1374V3.13661V3.13582V3.13503V3.13423V3.13344V3.13265V3.13186V3.13107V3.13028V3.12949V3.12869V3.1279V3.12711V3.12632V3.12553V3.12474V3.12394V3.12315V3.12309Z" fill="white" stroke="white" stroke-width="0.3"/>
        <path d="M21.2816 41.1545H21.3437L21.3877 41.1106L21.581 40.9172C24.2987 38.1996 25.8254 34.5137 25.8254 30.6704C25.8254 26.827 24.2987 23.1411 21.581 20.4235C18.8634 17.7059 15.1775 16.1791 11.3342 16.1791C7.49083 16.1791 3.80492 17.7059 1.08728 20.4235L0.893934 20.6168L0.85 20.6608V20.7229V21.0029C0.85 26.3475 2.97311 31.4731 6.75226 35.2523C10.5314 39.0314 15.6571 41.1545 21.0016 41.1545H21.2816ZM7.90521 34.0993C4.51548 30.7096 2.57296 26.1381 2.48453 21.3468C4.91193 19.078 8.12426 17.8363 11.4483 17.8839C14.7943 17.9318 17.9898 19.2823 20.356 21.6485C22.7222 24.0148 24.0727 27.2103 24.1206 30.5563C24.1682 33.8803 22.9265 37.0926 20.6577 39.52C15.8664 39.4316 11.2949 37.489 7.90521 34.0993Z" fill="white" stroke="white" stroke-width="0.3"/>
    </g>
</svg>
