<svg width="76" height="21" viewBox="0 0 76 21" fill="none" xmlns="http://www.w3.org/2000/svg">
    <g clip-path="url(#clip0)">
        <path d="M22.3043 0.574372C17.9454 0.605537 14.3799 5.45018 14.3799 9.67582C14.3799 14.1226 16.9935 19.547 22.3043 19.5294C27.6151 19.5118 30.3716 13.672 30.3716 9.67582C30.3716 5.26176 26.6633 0.543209 22.3043 0.574372ZM22.3043 0.740116C25.9526 0.740116 26.9369 4.76935 26.9369 9.67582C26.9369 16.1498 25.7496 19.3437 22.3043 19.3376C18.8591 19.3316 17.7383 16.7175 17.7383 9.67582C17.7383 5.26478 18.6561 0.740116 22.3043 0.740116Z" fill="white"/>
        <path d="M31.8116 9.79529C31.7921 4.98717 35.6402 0.728103 38.8977 0.51679C40.0744 0.433428 41.5869 0.972264 42.4699 1.35611C43.1111 1.63484 44.42 1.23139 44.6525 0.491211H44.7792V7.04078H44.6525C44.6525 6.76157 43.4395 0.681457 38.8977 0.681457C35.543 0.681457 35.219 6.58029 35.219 9.79529C35.219 13.0103 35.3167 19.3749 39.2315 19.3749C41.1279 19.3749 42.5317 18.5452 42.8956 16.8667V11.7629H41.3037V11.5455H47.4739V11.7629H45.9521V19.2246H45.8281C45.8281 19.2246 45.5807 18.148 44.3253 18.1516C42.7207 18.1561 41.2074 19.5502 39.3628 19.5333C34.4843 19.4884 31.8311 14.6034 31.8116 9.79529V9.79529Z" fill="white"/>
        <path d="M2.41242 1.21987H0.491211V1.00391H7.2213V1.21987H5.53288L10.3417 14.2791C11.8454 9.64957 13.0104 6.22742 14.578 1.21987H12.908V1.00391H16.4615V1.21987H14.8433L8.99864 19.44L2.41242 1.21987Z" fill="white"/>
        <path d="M48.4148 14.979L48.3844 1.19861H46.5557V0.992188H53.293V1.19861H51.4653L51.5059 16.308C51.9105 18.0382 52.6299 19.351 55.0874 19.3705C57.545 19.3901 59.2157 17.9167 59.8366 15.9032V1.19861H57.7447L57.7446 0.998268H74.867L74.9026 7.6134H74.738C74.4205 3.34225 72.7724 1.72807 69.8902 1.25716C68.8984 1.09511 67.8579 1.21524 66.5426 1.20501V9.64766C67.688 9.73614 68.9081 9.66375 69.7303 8.95756C70.4779 8.31539 70.6893 6.83169 70.7443 6.22893H70.889V13.5799H70.7324C70.6871 13.5799 70.6269 11.7352 69.7303 10.86C68.8277 9.97907 67.6784 9.76248 66.5426 9.97235V18.9909C68.1469 18.9909 69.4258 19.1268 70.5364 18.8224C73.9123 17.8968 75.1008 15.0487 75.0917 12.1921H75.2794V19.2045H61.8491V18.9909H63.3676V1.19861H60.0867V15.9032C59.7148 17.3102 58.3556 19.6378 54.8724 19.6219C51.6338 19.6072 48.4218 18.1471 48.4148 14.979V14.979Z" fill="white"/>
    </g>
    <defs>
        <clipPath id="clip0">
            <rect width="75.77" height="20.1122" fill="white"/>
        </clipPath>
    </defs>
</svg>
