<svg width="48" height="39" viewBox="0 0 48 39" fill="none" xmlns="http://www.w3.org/2000/svg">
    <path d="M3.53418 26.7411C3.53418 32.3309 10.8115 36.8638 19.7904 36.8638C28.7693 36.8638 36.0466 32.3303 36.0466 26.7411C36.0466 21.152 28.7686 16.6191 19.7904 16.6191C10.8121 16.6191 3.53418 21.1513 3.53418 26.7411Z" fill="white"/>
    <path d="M20.1642 36.0383C12.218 36.8221 5.35874 33.2313 4.84176 28.0136C4.32605 22.7972 10.3518 17.9324 18.2967 17.1468C26.2435 16.3604 33.1034 19.9525 33.6191 25.1676C34.1342 30.3859 28.111 35.252 20.1642 36.0383V36.0383ZM36.0585 18.7194C35.3826 18.5177 34.9192 18.3792 35.2728 17.4914C36.0394 15.5626 36.1185 13.8993 35.2875 12.7122C33.7295 10.4866 29.466 10.606 24.579 12.6528C24.579 12.6496 23.0446 13.3243 23.4365 12.1071C24.1884 9.69009 24.0748 7.6662 22.9048 6.49756C20.2542 3.84436 13.2035 6.59777 7.15669 12.642C2.62895 17.1704 0 21.9694 0 26.1193C0 34.0572 10.1794 38.883 20.138 38.883C33.1921 38.883 41.8762 31.298 41.8762 25.2768C41.8762 21.6381 38.8119 19.5734 36.0585 18.7194" fill="#E6162D"/>
    <path d="M44.7258 4.19372C41.5735 0.698666 36.9232 -0.63336 32.631 0.278698H32.6297C32.3937 0.329114 32.1699 0.425524 31.9712 0.562425C31.7724 0.699326 31.6025 0.874036 31.4713 1.07658C31.34 1.27913 31.25 1.50554 31.2062 1.74289C31.1625 1.98024 31.1659 2.22389 31.2163 2.45991C31.2667 2.69594 31.3632 2.91973 31.5001 3.11849C31.637 3.31726 31.8117 3.48711 32.0142 3.61836C32.2168 3.74961 32.4432 3.83967 32.6805 3.88342C32.9179 3.92717 33.1615 3.92373 33.3975 3.87332C36.4509 3.22486 39.7551 4.17457 41.9979 6.65608C43.0607 7.83385 43.7947 9.27068 44.126 10.8221C44.4573 12.3735 44.3742 13.9848 43.8853 15.4939L43.8859 15.4946C43.8113 15.7242 43.7828 15.9664 43.802 16.2071C43.8211 16.4478 43.8876 16.6824 43.9976 16.8974C44.1076 17.1124 44.2589 17.3035 44.4429 17.46C44.6269 17.6164 44.8399 17.7349 45.0698 17.8088C45.5332 17.9587 46.0372 17.9185 46.4709 17.6971C46.9047 17.4757 47.2329 17.0912 47.3835 16.6281L47.3841 16.6204C48.7296 12.445 47.8794 7.68494 44.7258 4.19372" fill="#FF9933"/>
    <path d="M39.8872 8.56168C38.3529 6.85947 36.0877 6.21292 33.9962 6.65778C33.7881 6.69586 33.5897 6.7753 33.4128 6.89141C33.236 7.00752 33.0842 7.15794 32.9665 7.33375C32.8488 7.50957 32.7676 7.70721 32.7277 7.91498C32.6877 8.12275 32.6899 8.33642 32.734 8.54334C32.7781 8.75026 32.8633 8.94623 32.9845 9.11964C33.1057 9.29304 33.2605 9.44037 33.4396 9.5529C33.6188 9.66542 33.8187 9.74085 34.0276 9.77472C34.2364 9.8086 34.4499 9.80022 34.6555 9.7501V9.75138C35.1751 9.64025 35.7149 9.66761 36.2206 9.8307C36.7263 9.99379 37.1804 10.2869 37.5372 10.6807C37.8934 11.0754 38.1392 11.5571 38.2498 12.0772C38.3604 12.5972 38.3319 13.1373 38.1671 13.6428H38.1684C38.0394 14.042 38.0741 14.4762 38.265 14.8498C38.4559 15.2234 38.7873 15.506 39.1864 15.6354C39.5858 15.7642 40.02 15.7291 40.3936 15.5378C40.7671 15.3466 41.0494 15.0148 41.1784 14.6155C41.8358 12.5814 41.4248 10.2633 39.8872 8.56168" fill="#FF9933"/>
    <path d="M20.6015 26.5886C20.3232 27.0647 19.7092 27.2932 19.228 27.0947C18.7544 26.8994 18.6057 26.3684 18.875 25.9012C19.152 25.4366 19.7431 25.21 20.2147 25.397C20.6947 25.5725 20.867 26.1106 20.6015 26.5886ZM18.0696 29.8392C17.3011 31.0653 15.6551 31.6027 14.4149 31.0366C13.1933 30.4807 12.8327 29.0554 13.6025 27.86C14.3613 26.6697 15.9519 26.1386 17.1824 26.6544C18.427 27.1854 18.8252 28.6004 18.0696 29.8392ZM20.9576 21.1603C17.176 20.1761 12.9017 22.0609 11.2594 25.3932C9.58659 28.7912 11.2046 32.5633 15.0238 33.797C18.9816 35.0729 23.6459 33.1179 25.2677 29.4492C26.8678 25.8636 24.8707 22.1719 20.9576 21.1603Z" fill="black"/>
</svg>
