<svg width="90" height="19" viewBox="0 0 90 19" fill="none" xmlns="http://www.w3.org/2000/svg">
    <path d="M16.14 17.5559C15.975 18.1476 15.945 18.199 15.765 18.199H13.8V18.3148H18.24V18.199H16.215C16.08 18.199 16.11 18.1219 16.26 17.5817L17.625 13.0416H23.025L24.675 18.199H22.485V18.3148H29.865V18.199H27.57L21.45 0H21.42L16.14 17.5559ZM20.235 4.34718L22.98 12.9258H17.655L20.235 4.34718ZM79.695 9.23455H81.39C82.89 9.23455 85.095 9.7876 85.095 12.0255V16.0897C85.095 17.7489 86.16 18.8035 88.05 18.8035C90.03 18.8035 90 17.0801 90 15.8454V14.5335H89.865V15.8454C89.865 17.2601 89.67 18.482 88.695 18.482C87.84 18.482 87.66 18.0318 87.66 16.1155V12.0384C87.66 10.1477 85.875 9.4532 83.115 9.18311C86.55 8.83585 87.84 6.95807 87.84 4.87451C87.84 1.80061 86.19 0.501598 81.915 0.501598H75.15V0.617352H76.92C77.055 0.617352 77.115 0.643075 77.115 0.707382V18.109C77.115 18.1733 77.055 18.199 76.92 18.199H75.15V18.3148H81.375V18.199H79.875C79.74 18.199 79.68 18.1733 79.68 18.109V9.23455H79.695ZM79.695 0.617352H81.51C84.315 0.617352 85.11 2.44368 85.11 4.87451C85.11 7.13813 84.315 9.13166 81.51 9.13166H79.695V0.617352ZM34.455 18.109C34.44 18.1476 34.455 18.199 34.56 18.199H39.405C40.89 18.199 42.825 16.3084 42.825 10.212V9.58182H42.96V18.3148H31.395L40.155 0.707382C40.17 0.668798 40.155 0.617352 40.05 0.617352H34.905C33.555 0.617352 31.59 2.72664 31.59 8.60434V9.23455H31.455V0.501598H43.23L34.455 18.109ZM5.82 0.617352C8.625 0.617352 9.765 2.44368 9.765 4.87451C9.765 7.13813 8.625 8.9516 5.82 8.9516H4.545V0.617352H5.82ZM0 0.501598V0.617352H1.77C1.905 0.617352 1.965 0.643075 1.965 0.707382V18.109C1.965 18.1733 1.905 18.199 1.77 18.199H0V18.3148H6.615C10.875 18.3148 13.155 16.7971 13.155 13.7232C13.155 11.5882 11.805 9.42748 7.56 8.99019C11.16 8.70723 12.405 6.76515 12.405 4.86164C12.405 2.09642 10.47 0.488737 6.195 0.488737L0 0.501598ZM5.82 9.06736C8.985 9.06736 10.245 10.9194 10.245 13.7232C10.245 16.1412 9.12 18.2119 6.495 18.2119H4.74C4.605 18.2119 4.545 18.1862 4.545 18.1218V9.06736H5.82ZM46.665 17.5559C46.485 18.1476 46.47 18.199 46.29 18.199H44.325V18.3148H48.765V18.199H46.74C46.605 18.199 46.635 18.1219 46.785 17.5817L48.15 13.0416H53.55L55.2 18.199H53.01V18.3148H60.39V18.199H58.095L51.975 0H51.93L46.665 17.5559ZM50.775 4.34718L53.52 12.9258H48.195L50.775 4.34718Z" fill="white"/>
    <path d="M61.3954 17.558C61.2304 18.1497 61.2004 18.2011 61.0204 18.2011H59.0554V18.3169H63.4954V18.2011H61.4704C61.3354 18.2011 61.3654 18.124 61.5154 17.5837L62.8804 13.0431H68.2804L69.9304 18.2011H67.7404V18.3169H75.1204V18.2011H72.8254L66.7054 0H66.6604L61.3954 17.558ZM65.5054 4.34769L68.2504 12.9273H62.9254L65.5054 4.34769ZM56.6554 2.34107C56.6554 2.35393 56.6704 2.35393 56.6704 2.35393H56.9704V2.39252H55.9504V2.35393H56.2204C56.2354 2.35393 56.2354 2.35393 56.2354 2.34107V1.45352H55.2604V2.34107C55.2604 2.35393 55.2604 2.35393 55.2754 2.35393H55.5454V2.39252H54.5254V2.35393H54.8254C54.8404 2.35393 54.8404 2.35393 54.8404 2.34107V0.591699C54.8404 0.591699 54.8404 0.578835 54.8254 0.578835H54.5254V0.540246H55.5454V0.578835H55.2754C55.2604 0.578835 55.2604 0.578836 55.2604 0.591699V1.40207H56.2354V0.591699C56.2354 0.591699 56.2354 0.578835 56.2204 0.578835H55.9504V0.540246H56.9704V0.578835H56.6704C56.6554 0.578835 56.6554 0.578836 56.6554 0.591699V2.34107ZM59.4904 1.58215C59.4004 1.58215 59.3404 1.54356 59.3404 1.47925C59.3404 1.42779 59.3854 1.42779 59.3854 1.37634C59.3854 1.33775 59.3554 1.31203 59.3104 1.31203C59.2654 1.31203 59.1604 1.32489 59.1004 1.51783V2.3282C59.1004 2.34107 59.1004 2.34107 59.1154 2.34107H59.2954V2.37966H58.5754V2.34107H58.7554C58.7704 2.34107 58.7704 2.34107 58.7704 2.3282V1.32489C58.7704 1.32489 58.7704 1.31203 58.7554 1.31203H58.5754V1.27344H59.0854L59.1004 1.2863V1.45352C59.1604 1.31202 59.2654 1.24771 59.4154 1.24771C59.5804 1.24771 59.6854 1.32489 59.6854 1.44066C59.6704 1.5307 59.5954 1.58215 59.4904 1.58215ZM62.2054 2.41824C62.4454 2.41824 62.6254 2.31534 62.7604 2.17385L62.7304 2.14812C62.6104 2.28962 62.4604 2.37966 62.2204 2.37966C62.1304 2.37966 62.0704 2.36679 62.0104 2.31534C61.9054 2.23816 61.8754 2.14812 61.8754 1.83941C61.8754 1.81368 61.8754 1.81368 61.8754 1.78796H62.7904L62.8054 1.77509C62.8054 1.56928 62.6404 1.26057 62.2204 1.26057C61.8304 1.26057 61.5454 1.51783 61.5454 1.83941C61.5304 2.16098 61.8154 2.41824 62.2054 2.41824ZM62.3704 1.36348C62.4454 1.42779 62.4604 1.54356 62.4754 1.74937H61.8604C61.8754 1.54356 61.9054 1.42779 61.9954 1.36348C62.0554 1.31203 62.1304 1.29916 62.2054 1.29916C62.2804 1.29916 62.3254 1.32489 62.3704 1.36348ZM57.6154 2.36679C57.7804 2.36679 57.8854 2.26389 57.8854 2.17385V1.78796C57.8104 1.82655 57.6904 1.82654 57.6004 1.83941C57.4954 1.85227 57.3754 1.90373 57.3754 2.14812C57.3754 2.32821 57.5104 2.36679 57.6154 2.36679ZM57.2254 1.49211C57.2254 1.40207 57.3604 1.26057 57.6154 1.26057C58.0054 1.26057 58.1854 1.40207 58.1854 1.73651V2.26389C58.1854 2.3282 58.2154 2.35393 58.2754 2.35393C58.3354 2.35393 58.3804 2.31534 58.3954 2.28961L58.4254 2.31534C58.4104 2.36679 58.3054 2.41824 58.1854 2.41824C58.0504 2.41824 57.9154 2.35393 57.9004 2.25103C57.8554 2.36679 57.7354 2.41824 57.5554 2.41824C57.2554 2.41824 57.0754 2.32821 57.0754 2.14812C57.0754 1.878 57.4204 1.81368 57.5404 1.80082C57.7204 1.78796 57.8854 1.77509 57.8854 1.72364V1.56929C57.8854 1.38921 57.7954 1.29916 57.6304 1.29916C57.5404 1.29916 57.4954 1.33775 57.4954 1.41493C57.4954 1.45352 57.5254 1.46638 57.5254 1.51783C57.5254 1.56928 57.4804 1.60788 57.3754 1.60788C57.2704 1.60788 57.2254 1.54356 57.2254 1.49211ZM60.8254 1.36348C60.7654 1.32489 60.6904 1.29916 60.6154 1.29916C60.5104 1.29916 60.4054 1.36348 60.3304 1.42779V2.19957C60.3754 2.28962 60.4954 2.36679 60.6154 2.36679C60.6904 2.36679 60.7654 2.35393 60.8254 2.30248C60.9154 2.2253 60.9754 2.09667 60.9754 1.82655C60.9904 1.58215 60.9304 1.44066 60.8254 1.36348ZM61.3054 1.85227C61.3054 2.13526 61.0204 2.41824 60.6304 2.41824C60.5104 2.41824 60.4204 2.35393 60.3454 2.28961V3.15144C60.3454 3.15144 60.3454 3.1643 60.3604 3.1643H60.5404V3.20289H59.8204V3.1643H60.0004C60.0154 3.1643 60.0154 3.1643 60.0154 3.15144V1.33775C60.0154 1.33775 60.0154 1.32489 60.0004 1.32489H59.8204V1.2863H60.3304L60.3454 1.29916V1.40207C60.4204 1.33775 60.5104 1.27344 60.6304 1.27344C61.0204 1.26057 61.3054 1.55642 61.3054 1.85227ZM65.2354 1.29916C65.2654 1.29916 65.2954 1.2863 65.2954 1.27344H65.3404V1.54356H65.2954C65.2954 1.3892 65.1304 1.29916 64.9654 1.29916C64.8004 1.29916 64.7254 1.36348 64.7254 1.46638C64.7254 1.59501 64.8304 1.65933 65.0704 1.72364C65.3254 1.78796 65.4904 1.89086 65.4904 2.05808C65.4904 2.26389 65.2954 2.41824 64.9804 2.41824C64.7854 2.41824 64.7104 2.34107 64.6054 2.34107C64.5604 2.34107 64.5154 2.36679 64.5004 2.39252H64.4404L64.4554 2.03235H64.5154C64.5004 2.2253 64.7104 2.37966 64.9654 2.37966C65.1604 2.37966 65.2654 2.30248 65.2654 2.16098C65.2654 2.01949 65.1304 1.96804 64.9054 1.90372C64.6804 1.83941 64.5154 1.76223 64.5154 1.59501C64.5154 1.3892 64.7404 1.26057 64.9504 1.26057C65.1004 1.26057 65.1154 1.29916 65.2354 1.29916ZM64.2754 0.913274C64.2754 0.836096 64.3504 0.784644 64.4404 0.784644C64.5454 0.784644 64.6054 0.848959 64.6054 0.939C64.6054 1.06763 64.4704 1.22198 64.2754 1.32489L64.2454 1.29916C64.3804 1.23485 64.4854 1.14481 64.5454 1.02904C64.5154 1.05477 64.4854 1.06763 64.4404 1.06763C64.3504 1.0419 64.2754 0.990452 64.2754 0.913274ZM63.8704 1.58215C63.7804 1.58215 63.7204 1.54356 63.7204 1.47925C63.7204 1.42779 63.7654 1.42779 63.7654 1.37634C63.7654 1.33775 63.7354 1.31203 63.6754 1.31203C63.6304 1.31203 63.5254 1.32489 63.4654 1.51783V2.3282C63.4654 2.34107 63.4654 2.34107 63.4804 2.34107H63.6604V2.37966H62.9404V2.34107H63.1204C63.1354 2.34107 63.1354 2.34107 63.1354 2.3282V1.32489C63.1354 1.32489 63.1354 1.31203 63.1204 1.31203H62.9404V1.27344H63.4504L63.4654 1.2863V1.45352C63.5254 1.31202 63.6304 1.24771 63.7804 1.24771C63.9454 1.24771 64.0504 1.32489 64.0504 1.44066C64.0354 1.5307 63.9604 1.58215 63.8704 1.58215Z" fill="white"/>
</svg>
