<svg width="63" height="26" viewBox="0 0 63 26" fill="none" xmlns="http://www.w3.org/2000/svg">
    <g clip-path="url(#clip0)">
        <path fill-rule="evenodd" clip-rule="evenodd" d="M2.28606 24.6545H0.415039V25.0175H10.7755V18.4829H10.4683C10.4683 18.4829 10.4683 22.2529 9.21164 23.4816C8.15047 24.5428 7.03344 24.6266 5.21827 24.6266V12.5906C5.21827 12.5906 6.47492 12.5068 7.08929 13.1212C8.03876 14.0707 8.15047 15.2994 8.15047 17.0029H8.48558V7.7874H8.15047C8.15047 9.49087 8.06669 10.7196 7.08929 11.6691C6.47492 12.2834 5.21827 12.1997 5.21827 12.1997V0.778072C7.03344 0.778072 7.89914 0.889775 8.96031 1.92302C10.189 3.15175 10.217 6.92171 10.217 6.92171H10.5242V0.415039H0.415039V0.778072H2.28606V24.6545Z" fill="white"/>
        <path fill-rule="evenodd" clip-rule="evenodd" d="M22.5317 0.778072V24.6545C24.3468 24.6545 25.4638 24.5428 26.525 23.5095C27.7537 22.2808 27.7816 18.5108 27.7816 18.5108H28.0888V25.0454H17.7285V24.6824H19.5995V0.750147H17.7285V0.415039H24.2351V0.778072H22.5317V0.778072Z" fill="white"/>
        <path fill-rule="evenodd" clip-rule="evenodd" d="M39.1771 0.778072V24.6545C40.9922 24.6545 42.1092 24.5428 43.1704 23.5095C44.3991 22.2808 44.427 18.5108 44.427 18.5108H44.7341V25.0454H34.374V24.6824H36.245V0.750147H34.374V0.415039H40.8805V0.778072H39.1771V0.778072Z" fill="white"/>
        <path fill-rule="evenodd" clip-rule="evenodd" d="M53.3056 24.6545H51.4346V25.0175H61.795V18.4829H61.4878C61.4878 18.4829 61.4878 22.2529 60.2311 23.4816C59.17 24.5428 58.0529 24.6266 56.2378 24.6266V12.5906C56.2378 12.5906 57.4944 12.5068 58.1088 13.1212C59.0583 14.0707 59.17 15.2994 59.17 17.0029H59.5051V7.7874H59.17C59.17 9.49087 59.0862 10.7196 58.1088 11.6691C57.4944 12.2834 56.2378 12.1997 56.2378 12.1997V0.778072C58.0529 0.778072 58.9186 0.889775 59.9798 1.92302C61.2085 3.15175 61.2364 6.92171 61.2364 6.92171H61.5436V0.415039H51.4346V0.778072H53.3056V24.6545V24.6545Z" fill="white"/>
    </g>
    <defs>
        <clipPath id="clip0">
            <rect width="62.21" height="25.4599" fill="white"/>
        </clipPath>
    </defs>
</svg>
