<svg width="144" height="19" viewBox="0 0 144 19" fill="none" xmlns="http://www.w3.org/2000/svg">
    <path d="M54 0.235942H57.12V8.73194C57.024 12.3559 54 15.1879 50.4 15.0919C46.92 14.9959 44.136 12.2119 44.04 8.73194V0.235942H47.16V8.73194C47.232 10.6279 48.816 12.0919 50.712 12.0199C52.512 11.9479 53.928 10.5079 54 8.73194V0.235942ZM69.216 15.0919H72.336V0.235942H69.216V15.0919ZM3.12 9.13994H9.432V6.21194H3.12V3.18794H9.648V0.235942H0V15.0919H9.84V12.1399H3.12V9.13994ZM29.856 14.8039C30.552 15.6439 32.664 16.1239 34.56 15.8119L31.992 18.4279C28.992 18.4279 26.04 16.0519 25.344 15.0199C21.264 13.9639 18.816 9.81194 19.848 5.73194C20.904 1.65194 25.056 -0.796058 29.136 0.235942C33.216 1.26794 35.664 5.44394 34.632 9.52394C33.984 11.9719 32.208 13.9399 29.856 14.8039ZM31.752 7.65194C31.752 5.15594 29.736 3.13994 27.24 3.13994C24.744 3.13994 22.728 5.15594 22.728 7.65194C22.728 10.1479 24.744 12.1639 27.24 12.1639C29.712 12.1399 31.728 10.1479 31.752 7.65194ZM138.288 7.33994L143.544 0.187939H139.68L136.368 4.69994L133.056 0.187939H129.192L134.472 7.33994L128.808 15.0919H132.672L136.416 10.0039L140.16 15.0919H144L138.288 7.33994ZM117.36 4.77194C118.944 6.69194 118.704 9.52394 116.784 11.1079C115.512 12.1639 113.784 12.4279 112.272 11.8519L110.4 14.4199C114.144 16.3399 118.752 14.8759 120.672 11.1319C122.208 8.15594 121.632 4.53194 119.232 2.17994L117.36 4.77194ZM94.104 9.47594L86.976 0.211941H83.976V15.0679H87.096V5.49194L94.464 15.0679H97.2V0.235942H94.08V9.47594H94.104ZM109.392 7.65194C109.416 5.15594 111.432 3.16394 113.904 3.13994C114.48 3.13994 115.056 3.25994 115.584 3.47594L117.456 0.907939C113.736 -1.03606 109.128 0.379945 107.16 4.12394C105.576 7.12394 106.176 10.8199 108.624 13.1719L110.448 10.6039C109.752 9.78794 109.368 8.73194 109.368 7.65194H109.392Z" fill="white"/>
</svg>
