<svg width="76" height="25" viewBox="0 0 76 25" fill="none" xmlns="http://www.w3.org/2000/svg">
    <path d="M8.20599 0.526753C8.20687 0.522789 8.32831 0.528514 8.32831 0.528514L8.65393 8.39519L8.54436 8.40179C8.31731 7.50942 7.70525 0.591061 5.31727 0.591061C3.48195 0.591061 2.86592 9.07438 2.86592 11.9167C2.86592 15.5976 3.31914 23.3216 5.37931 23.3216C6.37243 23.3216 6.91145 21.6183 6.91145 19.3711V12.1937H5.80921V11.9118H10.2578V12.1937H9.14147V23.4405C9.13883 23.4397 9.0143 23.4441 9.01342 23.4419C8.85193 22.9736 8.82861 22.0108 8.10478 22.0108C7.30219 22.0108 6.44195 23.6744 5.32651 23.6709C1.63739 23.6594 0.352539 16.8371 0.352539 11.9185C0.352539 7.84373 1.83892 0.351889 5.32343 0.351889C5.90733 0.351889 6.31831 0.502967 6.78429 1.17732C7.12574 1.67196 7.77169 1.78472 8.04802 1.15133C8.13163 0.960169 8.16991 0.71395 8.20599 0.526753Z" fill="white"/>
    <path d="M58.2467 23.0287V0.938118H57.2598V0.668995H61.462V0.938118H60.4706L60.4776 23.0287H61.462V23.3018H57.2598V23.0287H58.2467V0.938118Z" fill="white"/>
    <path d="M46.0495 23.0265H48.6834C49.9186 22.9776 51.4314 21.8231 51.4314 18.6029C51.4314 17.9884 51.4388 17.3467 51.4388 16.7036L51.6734 16.7049V23.2969L43.6963 23.3018L49.1116 0.939437H46.5859C44.9886 0.939437 44.1073 3.35934 44.1073 5.58456C44.1073 6.1554 44.0901 7.26053 44.0901 7.26053L43.8675 7.26317V0.668993H51.617L46.0495 23.0265Z" fill="white"/>
    <path d="M19.3033 0.942529V11.9162C19.7609 11.9136 20.5186 11.9656 21.3058 10.9494C22.0371 10.0051 22.3271 7.62436 22.3271 5.85017C22.3271 3.95706 21.3806 0.937683 20.1653 0.937683L19.3033 0.942529ZM16.1044 0.670323L20.8042 0.671643C23.0545 0.671643 24.5136 3.1748 24.5136 6.18008C24.5136 9.17523 23.2859 11.9664 21.3934 11.9664C21.1404 11.9664 21.1637 12.1184 21.3934 12.1184C22.5273 12.1184 23.3788 13.4169 23.5508 13.7622C24.2443 15.1585 23.7664 21.5831 24.4603 22.2178C25.0455 22.7534 25.4754 21.9161 25.552 21.7861L25.6233 21.8381C25.6123 21.8971 25.1107 23.5537 23.8447 23.5537C22.7931 23.5537 22.2607 22.2601 22.1093 21.4501C21.8633 20.1304 21.9434 16.094 21.8092 15.2823C21.6922 14.5744 21.3745 12.462 20.3818 12.2774C19.9391 12.195 19.7996 12.195 19.3037 12.1981C19.3011 12.1981 19.3046 23.0238 19.3046 23.0238H20.296V23.3018H15.9697V23.0238H17.0808L17.0764 0.942529H16.1044V0.670323Z" fill="white"/>
    <path d="M32.0263 16.4101H35.1799L33.6605 7.55809L32.0263 16.4101ZM30.4519 23.0228L34.7025 0.350348L38.631 23.0232L39.5243 23.0258V23.2998L35.4373 23.2994V23.0214H36.3324L35.22 16.6981H31.9642L30.8101 23.0267H31.9576V23.298H29.4834V23.0289L30.4519 23.0228V23.0228Z" fill="white"/>
    <path d="M68.1522 16.4101H71.3063L69.7865 7.55809L68.1522 16.4101ZM66.5783 23.0228L70.8284 0.350348L74.7573 23.0232L75.6501 23.0258V23.2998L71.5632 23.2994V23.0214H72.4582L71.3459 16.6981H68.0902L66.936 23.0272H68.0836V23.298H65.6094V23.0294L66.5783 23.0228V23.0228Z" fill="white"/>
</svg>
