<svg width="56" height="46" viewBox="0 0 56 46" fill="none" xmlns="http://www.w3.org/2000/svg">
    <g opacity="0.8">
        <path d="M9.62238 30.7834L9.62189 30.7829C9.16593 30.3233 8.9182 29.7153 8.91905 29.0709L8.91905 29.0706L8.9665 17.0903C8.9665 17.0903 8.9665 17.0903 8.9665 17.0902C8.96738 16.4445 9.22498 15.8409 9.67793 15.384L9.67881 15.3831L9.67882 15.3831C10.1384 14.9271 10.7464 14.6794 11.3907 14.6802L11.3911 14.6802L27.1468 14.7407L27.2967 14.7413L27.2962 14.8913L27.235 31.4062L27.2344 31.5562L27.0844 31.5557L11.3344 31.4972L9.62238 30.7834ZM9.62238 30.7834C9.86872 31.0294 10.1574 31.2162 10.4721 31.337M9.62238 30.7834L10.4721 31.337M10.4721 31.337C10.7476 31.4428 11.0369 31.4969 11.334 31.4972L10.4721 31.337ZM11.3887 16.6532L25.3305 16.7035L25.2755 29.5972L11.3351 29.5469C11.2095 29.5436 11.0991 29.4966 11.0113 29.4093C10.9276 29.3229 10.8795 29.2055 10.8808 29.0877L10.8809 29.0866L10.9283 17.1089C10.9283 17.1084 10.9283 17.108 10.9283 17.1075C10.9316 16.9818 10.9787 16.8714 11.066 16.7836C11.1524 16.6999 11.2697 16.6518 11.3875 16.6532L11.3875 16.6532L11.3887 16.6532Z" fill="white" stroke="white" stroke-width="0.3"/>
        <path d="M6.74198 19.0639C6.10719 19.0618 5.5842 19.5758 5.58035 20.215C5.58035 20.215 5.58035 20.2151 5.58035 20.2151L5.55624 25.92C5.5542 26.5547 6.06796 27.0776 6.70705 27.0816L6.74198 19.0639ZM6.74198 19.0639L8.96241 19.0714L8.92778 27.0891L6.70744 27.0816L6.74198 19.0639ZM6.75795 17.1021L6.75774 17.1021C5.03936 17.0969 3.63205 18.4889 3.62691 20.2081L3.6028 25.9131C3.59657 27.2452 4.4299 28.3876 5.6033 28.8381C5.94535 28.9694 6.31634 29.0433 6.70395 29.0422C6.70413 29.0422 6.7043 29.0422 6.70448 29.0422L10.7501 29.0587L10.9002 29.0593L10.9008 28.9092L10.9417 17.2703L10.9422 17.1204L10.7923 17.1197L6.75795 17.1021Z" fill="white" stroke="white" stroke-width="0.3"/>
        <path d="M25.2836 31.0433L25.2833 31.1286L25.3565 31.1725L41.5098 40.856C41.587 40.9059 41.6667 40.9429 41.7449 40.9728C42.1572 41.1311 42.6353 41.1049 43.0275 40.8778C43.4991 40.6104 43.7892 40.1097 43.7941 39.5665L43.7941 39.5658L43.9211 6.86476C43.9211 6.86467 43.9211 6.86457 43.9211 6.86448C43.9259 6.31828 43.6305 5.81705 43.1631 5.54566L43.1629 5.54553C42.6881 5.27096 42.1057 5.27827 41.6384 5.55292L41.6382 5.55301L25.4112 15.1148L25.3376 15.1581L25.3373 15.2435L25.2836 31.0433ZM41.9606 7.64666L41.8425 38.7675L27.2447 30.0181L27.2986 16.2882L41.9606 7.64666Z" fill="white" stroke="white" stroke-width="0.3"/>
        <path d="M12.1108 29.5419L11.9436 29.5413L11.961 29.7076L13.2657 42.1528C13.2658 42.1529 13.2658 42.1531 13.2658 42.1533C13.3137 42.6432 13.6383 43.0433 14.0719 43.2097C14.2109 43.2631 14.3647 43.2956 14.5171 43.3005L14.5171 43.3005L14.5213 43.3006L19.2676 43.3185L19.2679 43.3185C19.6378 43.3192 19.9804 43.1613 20.2238 42.8934C20.4694 42.623 20.583 42.256 20.5395 41.8962C20.5395 41.8962 20.5395 41.8961 20.5395 41.8961L19.8856 36.3159L20.6153 35.8399C21.6311 35.1774 22.2395 34.0605 22.2462 32.8495L22.2462 32.8492L22.2561 29.7316L22.2565 29.5817L22.1067 29.5811L12.1108 29.5419ZM18.5009 41.3461L15.1492 41.3326L14.1242 31.5073L20.2872 31.5365L20.2824 32.8385L20.2824 32.8393C20.2835 33.3881 20.0074 33.895 19.547 34.1901L19.5462 34.1906L17.87 35.28L17.7918 35.3308L17.8028 35.4233L18.5009 41.3461Z" fill="white" stroke="white" stroke-width="0.3"/>
    </g>
</svg>
