<svg width="50" height="40" viewBox="0 0 50 40" fill="none" xmlns="http://www.w3.org/2000/svg">
    <g opacity="0.8">
        <path d="M44.8005 34.0206V38.22C44.8006 38.4074 44.7478 38.5909 44.6481 38.7496C44.5484 38.9082 44.4059 39.0355 44.237 39.1167C44.0681 39.1979 43.8798 39.2296 43.6936 39.2084C43.5076 39.1873 43.3313 39.114 43.1851 38.9971L44.8005 34.0206ZM44.8005 34.0206H45.2227C46.1586 34.0206 47.076 33.7473 47.8059 33.184C48.5371 32.6196 49.05 31.7136 49.05 30.6656V14.2203C49.05 12.1301 47.303 10.3931 45.2227 10.3931H34.1013V5.24939C34.1013 2.84616 32.1825 0.95 29.8018 0.95H5.24945C2.86881 0.95 0.95 2.84616 0.95 5.24939V22.247C0.95 24.6502 2.86881 26.5464 5.24945 26.5464H6.61593L6.61593 32.6344L6.61594 32.6348C6.61753 32.8303 6.67671 33.0209 6.78608 33.183C6.89545 33.345 7.05015 33.4712 7.23085 33.5458C7.41156 33.6204 7.61024 33.6401 7.80206 33.6024C7.99388 33.5647 8.17034 33.4713 8.30938 33.3339L8.30959 33.3337L15.097 26.5464H19.1903V30.6656C19.1903 31.6074 19.4833 32.486 20.105 33.106C20.7267 33.7258 21.609 34.0206 22.5454 34.0206H36.8541L43.1848 38.9968L44.8005 34.0206ZM14.6931 24.5577C14.4324 24.5557 14.1813 24.6561 13.9939 24.8374L13.9933 24.8379L8.60458 30.2266V25.552C8.60456 25.2883 8.49979 25.0355 8.31332 24.849C8.12686 24.6625 7.87397 24.5577 7.61026 24.5577H5.24945C4.55022 24.5577 3.97345 24.3311 3.57164 23.9316C3.16987 23.5321 2.93864 22.9554 2.93864 22.247V5.24939C2.93864 4.54093 3.16987 3.96425 3.57164 3.56476C3.97345 3.16524 4.55022 2.93862 5.24945 2.93862H29.8018C30.5011 2.93862 31.0778 3.16524 31.4796 3.56476C31.8814 3.96425 32.1126 4.54093 32.1126 5.24939V22.247C32.1126 22.9554 31.8814 23.5321 31.4796 23.9316C31.0778 24.3311 30.5011 24.5577 29.8018 24.5577H14.6931ZM14.6931 24.5577L14.6927 24.6077V24.5577H14.6931ZM42.8119 33.0264V36.1549L37.817 32.2345L37.8164 32.234C37.638 32.0987 37.4192 32.0275 37.1954 32.032H22.5454C21.9954 32.032 21.6908 31.8792 21.5036 31.6925C21.317 31.5065 21.1789 31.2205 21.1789 30.6656V26.5464H29.8018C32.1825 26.5464 34.1013 24.6502 34.1013 22.247V12.3817H45.2227C45.6662 12.3817 46.1264 12.6135 46.4769 12.9629C46.8274 13.3123 47.0614 13.7724 47.0614 14.2203V30.6656C47.0614 30.8919 47.0219 31.0681 46.9453 31.2172C46.8685 31.3664 46.7526 31.4921 46.5939 31.6146C46.279 31.8575 45.7735 32.032 45.2227 32.032H43.8062C43.5425 32.0321 43.2896 32.1368 43.1032 32.3233C42.9167 32.5098 42.8119 32.7627 42.8119 33.0264ZM9.4989 11.3374C8.43942 11.3374 7.56026 12.2165 7.56026 13.276C7.56026 14.3355 8.43942 15.2146 9.4989 15.2146C10.5584 15.2146 11.4375 14.3355 11.4375 13.276C11.4375 12.2165 10.5584 11.3374 9.4989 11.3374ZM17.5256 11.3374C16.4662 11.3374 15.587 12.2165 15.587 13.276C15.587 14.3355 16.4662 15.2146 17.5256 15.2146C18.5851 15.2146 19.4643 14.3355 19.4643 13.276C19.4643 12.2165 18.5851 11.3374 17.5256 11.3374ZM25.5524 11.3374C24.4929 11.3374 23.6137 12.2165 23.6137 13.276C23.6137 14.3355 24.4929 15.2146 25.5524 15.2146C26.6119 15.2146 27.491 14.3355 27.491 13.276C27.491 12.2165 26.6119 11.3374 25.5524 11.3374Z" fill="white" stroke="white" stroke-width="0.1"/>
    </g>
</svg>
