<svg width="48" height="48" viewBox="0 0 48 48" fill="none" xmlns="http://www.w3.org/2000/svg">
    <g opacity="0.8" clip-path="url(#clip0)">
        <path d="M13.0766 46.1685L12.9825 46.2023L7.59686 31.2225C7.57631 31.1653 7.54911 31.1124 7.51645 31.0644C7.51862 31.008 7.51482 30.9508 7.50465 30.8937M13.0766 46.1685L13.1105 46.2626L19.9946 43.7874M13.0766 46.1685L19.9608 43.6933L19.9946 43.7874M13.0766 46.1685L7.69097 31.1886C7.64978 31.074 7.58525 30.9746 7.50465 30.8937M19.9946 43.7874L28.3042 40.8007L27.739 40.8976M19.9946 43.7874L19.9608 43.6933L27.739 40.8976M27.739 40.8976L28.2786 40.7036L22.9601 41.6153L15.4304 42.9075C15.365 42.9183 15.2997 42.9235 15.2354 42.9235C14.6673 42.9235 14.164 42.5161 14.0636 41.9434L11.2835 25.7217L8.88457 11.736C8.8526 11.7467 8.82063 11.7575 8.78865 11.7683M27.739 40.8976L22.977 41.7139L15.4473 43.006L15.4467 43.0061C15.3759 43.0178 15.3052 43.0235 15.2354 43.0235C14.6199 43.0235 14.0741 42.5823 13.9651 41.9607L13.965 41.9603L11.1849 25.7386L8.78865 11.7683M8.78865 11.7683L8.77154 11.6685C6.34459 12.4855 3.86385 13.3256 1.4673 14.1836M8.78865 11.7683C6.39814 12.573 3.9565 13.3998 1.59497 14.2441M1.4673 14.1836L7.37195 30.7863C7.37547 30.7886 7.37897 30.7909 7.38245 30.7932L7.46942 30.7619L1.59497 14.2441M1.4673 14.1836L1.50101 14.2777C1.53231 14.2665 1.56363 14.2553 1.59497 14.2441M1.4673 14.1836L1.56152 14.1501L1.59497 14.2441M7.50465 30.8937C7.49679 30.8496 7.48514 30.8057 7.46949 30.7621L7.46954 30.7623L7.38248 30.7932C7.42619 30.8225 7.46716 30.8561 7.50465 30.8937ZM46.4938 7.73066L42.147 7.73093L42.1465 7.73093L42.1265 7.73106C42.1008 7.73122 42.0734 7.7314 42.0449 7.7314C41.6284 7.7314 40.9185 7.70088 40.4123 7.19826C40.0811 6.86939 39.9173 6.42545 39.9172 5.88908L46.4938 7.73066ZM46.4938 7.73066V37.2036H18.6886V23.6004C18.6886 23.5962 18.6886 23.5921 18.6885 23.5879V1.73956H39.9082L39.9172 5.88887L46.4938 7.73066ZM5.95794 31.3056C5.99915 31.4202 6.0637 31.5196 6.14432 31.6005C6.15218 31.6446 6.16383 31.6885 6.17948 31.7321L6.26633 31.7009L6.17948 31.7321L11.6759 47.0203L11.676 47.0208C11.8667 47.5421 12.3604 47.8661 12.8826 47.8661C13.0271 47.8661 13.1738 47.8412 13.3166 47.789C13.3166 47.789 13.3166 47.789 13.3167 47.789L20.5041 45.2049L36.8171 39.3415L39.9181 38.81H46.7975C47.5159 38.81 48.0999 38.2245 48.0999 37.5049V6.85009C48.1 6.38607 47.8444 6.1457 47.6756 5.987L47.6735 5.98497L47.6722 5.98372L47.6685 5.98024L47.6552 5.96754L47.6056 5.92032L47.4223 5.74554L46.7765 5.12977L44.8299 3.27346L42.8887 1.42217L42.2496 0.812691L42.0706 0.641987L42.0234 0.59702L42.0113 0.585491L42.0083 0.582573L42.0075 0.58184L42.0075 0.581805L42.0073 0.581655L42.0035 0.57801C41.7886 0.371785 41.5402 0.133398 41.0835 0.133398H18.3848C17.6666 0.133398 17.0823 0.717504 17.0823 1.43574V5.04358L9.16528 6.40071L9.1649 6.40078C8.46942 6.52279 8.0018 7.18806 8.12221 7.88296L8.12224 7.88314L8.51377 10.166C5.93909 11.0325 3.2972 11.9257 0.745652 12.8422L0.745121 12.8424C0.084658 13.0839 -0.261737 13.8178 -0.026069 14.4822L-0.0260395 14.4823L5.95782 31.3053L5.95794 31.3056ZM45.4923 6.12431L42.2236 6.1243L42.2232 6.12431L42.136 6.12468L42.1358 6.12468H42.1357C42.0509 6.12525 41.9148 6.12616 41.788 6.11508C41.7245 6.10952 41.6666 6.10121 41.6203 6.08942C41.5775 6.07851 41.5559 6.0673 41.5473 6.06111C41.5457 6.05774 41.5416 6.04833 41.537 6.0296C41.5297 5.99918 41.5235 5.95257 41.5235 5.88727V5.88706L41.5158 2.33238L45.4923 6.12431ZM12.7681 25.467L9.75974 7.92841L17.0822 6.67319V24.6236C17.0822 24.6278 17.0823 24.632 17.0823 24.6361V37.5047C17.0823 38.2242 17.6663 38.8098 18.3848 38.8098H30.4106L22.7054 40.1306L22.7223 40.2291L22.7054 40.1306L15.4932 41.3683L12.7681 25.467L12.6695 25.4839L12.7681 25.467Z" fill="white" stroke="white" stroke-width="0.2"/>
        <path d="M21.7285 11.1509C21.7285 11.6773 22.1553 12.104 22.6816 12.104H42.785C43.3114 12.104 43.7382 11.6773 43.7382 11.1509C43.7382 10.6245 43.3114 10.1978 42.785 10.1978H22.6816C22.1553 10.1978 21.7285 10.6245 21.7285 11.1509Z" fill="white" stroke="black" stroke-width="0.5"/>
        <path d="M42.785 16.1885H22.6816C22.1553 16.1885 21.7285 16.6152 21.7285 17.1416C21.7285 17.668 22.1553 18.0947 22.6816 18.0947H42.785C43.3114 18.0947 43.7382 17.668 43.7382 17.1416C43.7382 16.6152 43.3114 16.1885 42.785 16.1885Z" fill="white" stroke="black" stroke-width="0.5"/>
        <path d="M42.785 22.1787H22.6816C22.1553 22.1787 21.7285 22.6055 21.7285 23.1318C21.7285 23.6582 22.1553 24.085 22.6816 24.085H42.785C43.3114 24.085 43.7382 23.6582 43.7382 23.1318C43.7382 22.6055 43.3114 22.1787 42.785 22.1787Z" fill="white" stroke="black" stroke-width="0.5"/>
        <path d="M42.785 28.1787H22.6816C22.1553 28.1787 21.7285 28.6055 21.7285 29.1318C21.7285 29.6582 22.1553 30.085 22.6816 30.085H42.785C43.3114 30.085 43.7382 29.6582 43.7382 29.1318C43.7382 28.6055 43.3114 28.1787 42.785 28.1787Z" fill="white" stroke="black" stroke-width="0.5"/>
    </g>
    <defs>
        <clipPath id="clip0">
            <rect width="48" height="48" fill="white"/>
        </clipPath>
    </defs>
</svg>
