<svg width="104" height="28" viewBox="0 0 104 28" fill="none" xmlns="http://www.w3.org/2000/svg">
    <path d="M94.5372 7.06641L90.0048 12.8098H89.4463L91.8307 7.06697" fill="white"/>
    <path d="M7.47629 20.9845C5.94986 20.9845 4.60172 20.6049 3.60957 20.099L2.61742 20.9845H2.15955L1.85449 15.3674L2.3882 15.3171C3.99104 18.9607 5.87346 20.1238 7.62911 20.1238C9.4606 20.1238 10.5291 18.9352 10.5291 17.3414C10.5291 15.823 9.94393 15.0893 7.5527 14.1029C6.73883 13.7736 5.79761 13.4445 5.00866 13.0648C3.22811 12.1799 2.28689 10.7878 2.28689 8.94082C2.28689 5.92943 4.90678 4.10799 7.47629 4.10799C8.74859 4.10799 9.6134 4.46199 10.4527 4.94296L11.4449 4.08301H11.8773L12.3103 9.04218L11.8014 9.11822C10.4018 6.33455 8.90084 4.96851 7.24764 4.96851C5.7976 4.96851 4.83094 5.92946 4.83094 7.4224C4.83094 8.61161 5.33917 9.52272 7.14574 10.3074C8.03603 10.7119 9.07912 11.066 10.0203 11.5216C12.081 12.5086 13.0477 13.7992 13.0477 15.6711C13.0477 19.0112 10.2241 20.9845 7.47629 20.9845" fill="white"/>
    <path d="M20.8332 21.0095C16.9665 21.0095 15.0586 18.252 15.0586 14.8871C15.0586 11.7749 17.2467 8.78906 21.1643 8.78906C25.0316 8.78906 26.888 11.5216 26.888 14.8616C26.888 17.9993 24.7509 21.0095 20.8332 21.0095V21.0095ZM20.9351 9.49785C19.1545 9.49785 18.0605 11.4712 18.0605 14.9376C18.0605 18.3534 19.2304 20.3007 21.037 20.3007C22.8939 20.3007 23.9116 18.328 23.9116 14.8616C23.9116 11.4456 22.8175 9.49785 20.9351 9.49785" fill="white"/>
    <path d="M32.4078 20.9063C30.398 20.9063 29.7625 19.9205 29.7625 18.0989V10.5329H27.8789V10.1788L30.2203 8.33166L32.0773 5.92773H32.4588V9.21733H36.3255V10.5329H32.4588V17.0865C32.4588 18.0989 32.6116 18.7063 33.1209 19.0598C33.5528 19.3635 34.1386 19.4649 34.9773 19.4649C35.3843 19.4649 35.8931 19.4394 36.3764 19.4146L36.4019 19.7687C35.4098 20.3755 33.7815 20.9063 32.4078 20.9063" fill="white"/>
    <path d="M44.2878 10.7126C43.3211 10.7126 42.5825 10.8899 41.6413 11.3454V19.7206L43.0659 20.2514V20.6056H37.3167V20.2514L38.9201 19.7206V4.43776L37.165 3.29906V3.04563L41.5406 1.85645L41.6413 1.93248V10.7885L41.7438 10.839C43.2447 9.42197 44.6183 8.78968 45.9919 8.78968C48.2819 8.78968 49.2485 10.5103 49.2485 12.307V19.7206L50.8508 20.2514V20.6057H45.1017V20.2514L46.5262 19.7206V13.3438C46.5262 11.6997 45.8652 10.7126 44.2878 10.7126Z" fill="white"/>
    <path d="M54.619 14.0264C54.619 17.2402 55.5347 19.3403 58.4092 19.3403C59.6815 19.3403 60.7252 19.0871 62.2505 18.5307L62.4032 18.8344C60.8513 20.1743 59.1218 21.0095 57.4936 21.0095C54.0083 21.0095 51.7178 18.6315 51.7178 15.1148C51.7178 11.4967 54.4655 8.78906 57.5699 8.78906C60.9278 8.78906 62.5567 11.0406 62.5306 14.0264H54.619V14.0264ZM59.6815 13.1664C59.5797 10.7879 58.8926 9.49785 57.3917 9.49785C55.9162 9.49785 54.7717 11.0406 54.6445 13.3942L59.6815 13.1664" fill="white"/>
    <path d="M69.2994 21.0101C67.9767 21.0101 66.2217 20.7069 65.0003 20.3523V4.43776L63.2197 3.299V3.04563L67.6207 1.85645L67.7226 1.93242V10.4089L67.824 10.46C68.7148 9.57437 69.9356 8.78968 71.513 8.78968C73.9296 8.78968 76.1171 10.9914 76.1171 14.6095C76.1171 18.2276 73.3699 21.0101 69.2994 21.0101V21.0101ZM69.7329 10.5607C68.9689 10.5607 68.3327 10.7126 67.7226 10.9658V18.9869C68.5111 19.7965 69.5286 20.15 70.4953 20.15C71.9964 20.15 73.2426 18.8095 73.2426 15.2417C73.2426 12.1046 71.8944 10.5607 69.7329 10.5607Z" fill="white"/>
    <path d="M83.0879 21.3902C81.8162 24.5024 80.6215 25.869 79.0435 25.869C77.6954 25.869 77.0592 25.0849 77.0592 24.2747C77.0592 23.4906 77.7712 22.8327 78.5856 22.8327C79.4505 22.8327 79.9593 23.2877 80.5699 24.047C81.0532 23.5154 81.6379 22.6049 81.9691 21.8961L82.4014 20.9346L77.8986 10.1312L76.3467 9.52398V9.19531H82.5549V9.52398L80.9259 10.1312L83.6731 17.5449H83.8005L86.2936 10.3086L84.8182 9.52398V9.19531H89.1943V9.52398L87.5399 10.359L83.0879 21.3903" fill="white"/>
    <path d="M97.592 21.0095C96.193 21.0095 94.9981 20.7818 93.8271 20.3267L93.8018 16.9873L94.3105 16.9364C95.6842 19.3404 96.7278 20.2508 98.0754 20.2508C99.2719 20.2508 100.009 19.4922 100.009 18.3279C100.009 17.0122 98.6612 16.5064 97.2111 15.9245C95.6078 15.2412 93.9042 14.4825 93.9042 12.3822C93.9042 10.3833 95.6842 8.78906 98.2797 8.78906C99.2719 8.78906 100.671 8.99177 101.357 9.24459L101.433 12.2553L100.95 12.3822C99.7042 10.3324 98.8904 9.54822 97.72 9.54822C96.6508 9.54822 95.9903 10.2564 95.9903 11.1674C95.9903 12.4837 97.364 13.0146 98.8139 13.5965C100.416 14.2543 102.146 15.0134 102.146 17.1641C102.146 19.5177 100.06 21.0095 97.592 21.0095" fill="white"/>
</svg>
