<svg width="30" height="34" viewBox="0 0 30 34" fill="none" xmlns="http://www.w3.org/2000/svg">
    <path d="M22.2321 12.2305C24.4216 13.7932 27.1018 14.7108 30 14.7108V9.14155C29.4549 9.14155 28.9098 9.08704 28.3737 8.96893V13.3571C25.4755 13.3571 22.7954 12.4395 20.6058 10.8768V22.2425C20.6058 27.9299 15.9905 32.5361 10.3031 32.5361C8.17717 32.5361 6.20566 31.8911 4.57031 30.7918C6.44188 32.6997 9.04935 33.8898 11.9385 33.8898C17.6259 33.8898 22.2412 29.2836 22.2412 23.5962L22.2321 12.2305ZM24.249 6.61584C23.1315 5.39842 22.3956 3.81758 22.2412 2.0732V1.35547H20.6967C21.0783 3.57228 22.4047 5.46201 24.249 6.61584ZM8.16808 26.4308C7.5412 25.6132 7.20504 24.6138 7.20504 23.578C7.20504 20.9797 9.31283 18.8719 11.9203 18.8719C12.4018 18.8719 12.8833 18.9446 13.3467 19.0899V13.3935C12.8107 13.3208 12.2655 13.2844 11.7204 13.3026V17.7362C11.2571 17.5909 10.7756 17.5182 10.294 17.5182C7.69565 17.5182 5.57878 19.626 5.57878 22.2243C5.57878 24.0596 6.63267 25.6586 8.16808 26.4308Z" fill="#EE1D52"/>
    <path d="M20.6048 10.8742C22.7944 12.4369 25.4745 13.3545 28.3727 13.3545V8.9663C26.7556 8.62106 25.3292 7.77613 24.248 6.60413C22.4037 5.45938 21.0773 3.56056 20.6957 1.34375H16.6346V23.5845C16.6255 26.1738 14.5177 28.2816 11.9193 28.2816C10.393 28.2816 9.03018 27.5548 8.16708 26.4191C6.63167 25.6469 5.57778 24.0479 5.57778 22.2126C5.57778 19.6142 7.68556 17.5065 10.293 17.5065C10.7927 17.5065 11.2742 17.5882 11.7194 17.7245V13.2909C6.13198 13.409 1.63477 17.9698 1.63477 23.5845C1.63477 26.3828 2.75225 28.9267 4.56931 30.78C6.20466 31.8794 8.17616 32.5244 10.3021 32.5244C15.9895 32.5244 20.6048 27.9182 20.6048 22.2308V10.8742Z" fill="white"/>
    <path d="M28.3642 8.97625V7.79517C26.9106 7.79517 25.4751 7.38633 24.2395 6.61408C25.3388 7.81334 26.7834 8.6401 28.3642 8.97625ZM20.6872 1.35371C20.6508 1.14475 20.6236 0.926698 20.6054 0.717737V0H14.9998V22.2408C14.9907 24.8301 12.8829 26.9288 10.2845 26.9288C9.52137 26.9288 8.80363 26.7471 8.16767 26.4291C9.03077 27.5556 10.3845 28.2916 11.9199 28.2916C14.5183 28.2916 16.6261 26.1929 16.6351 23.5945V1.35371H20.6872ZM11.72 13.3008V12.038C11.2476 11.9744 10.7751 11.9381 10.3027 11.9381C4.61532 11.9381 0 16.5443 0 22.2317C0 25.7931 1.80797 28.9366 4.56989 30.7809C2.75284 28.9275 1.63535 26.3836 1.63535 23.5854C1.63535 17.9798 6.13256 13.419 11.72 13.3008Z" fill="#69C9D0"/>
</svg>
